<svg width="18" height="18" viewBox="0 0 18 18" fill="none" xmlns="http://www.w3.org/2000/svg">
<path d="M14.625 2.81256H3.375C2.92745 2.81256 2.49822 2.99035 2.18176 3.30682C1.86529 3.62329 1.6875 4.05251 1.6875 4.50006V12.3751C1.6875 12.8226 1.86529 13.2518 2.18176 13.5683C2.49822 13.8848 2.92745 14.0626 3.375 14.0626H8.4375V15.1876H6.75C6.60082 15.1876 6.45774 15.2468 6.35225 15.3523C6.24676 15.4578 6.1875 15.6009 6.1875 15.7501C6.1875 15.8992 6.24676 16.0423 6.35225 16.1478C6.45774 16.2533 6.60082 16.3126 6.75 16.3126H11.25C11.3992 16.3126 11.5423 16.2533 11.6477 16.1478C11.7532 16.0423 11.8125 15.8992 11.8125 15.7501C11.8125 15.6009 11.7532 15.4578 11.6477 15.3523C11.5423 15.2468 11.3992 15.1876 11.25 15.1876H9.5625V14.0626H14.625C15.0726 14.0626 15.5018 13.8848 15.8182 13.5683C16.1347 13.2518 16.3125 12.8226 16.3125 12.3751V4.50006C16.3125 4.05251 16.1347 3.62329 15.8182 3.30682C15.5018 2.99035 15.0726 2.81256 14.625 2.81256ZM3.375 3.93756H14.625C14.7742 3.93756 14.9173 3.99682 15.0227 4.10231C15.1282 4.2078 15.1875 4.35088 15.1875 4.50006V10.1251H2.8125V4.50006C2.8125 4.35088 2.87176 4.2078 2.97725 4.10231C3.08274 3.99682 3.22582 3.93756 3.375 3.93756ZM14.625 12.9376H3.375C3.22582 12.9376 3.08274 12.8783 2.97725 12.7728C2.87176 12.6673 2.8125 12.5242 2.8125 12.3751V11.2501H15.1875V12.3751C15.1875 12.5242 15.1282 12.6673 15.0227 12.7728C14.9173 12.8783 14.7742 12.9376 14.625 12.9376Z" fill="black"/>
</svg>
