<svg width="18" height="18" viewBox="0 0 18 18" fill="none" xmlns="http://www.w3.org/2000/svg">
<path d="M15.1875 2.81252H9.5625V1.68752C9.5625 1.53834 9.50324 1.39526 9.39775 1.28978C9.29226 1.18429 9.14918 1.12502 9 1.12502C8.85082 1.12502 8.70774 1.18429 8.60225 1.28978C8.49676 1.39526 8.4375 1.53834 8.4375 1.68752V2.81252H2.8125C2.51413 2.81252 2.22798 2.93105 2.017 3.14203C1.80603 3.35301 1.6875 3.63915 1.6875 3.93752V12.375C1.6875 12.6734 1.80603 12.9595 2.017 13.1705C2.22798 13.3815 2.51413 13.5 2.8125 13.5H5.58L4.06055 15.3985C3.96731 15.515 3.92418 15.6638 3.94067 15.8122C3.95715 15.9605 4.03189 16.0962 4.14844 16.1895C4.26499 16.2827 4.4138 16.3258 4.56215 16.3094C4.71049 16.2929 4.84621 16.2181 4.93945 16.1016L7.02 13.5H10.98L13.0605 16.1016C13.1067 16.1593 13.1638 16.2073 13.2285 16.243C13.2933 16.2786 13.3644 16.3012 13.4379 16.3094C13.5113 16.3175 13.5856 16.3111 13.6566 16.2906C13.7276 16.27 13.7939 16.2356 13.8516 16.1895C13.9093 16.1433 13.9573 16.0862 13.993 16.0215C14.0286 15.9567 14.0512 15.8856 14.0593 15.8122C14.0675 15.7387 14.0611 15.6644 14.0405 15.5934C14.02 15.5224 13.9856 15.4562 13.9395 15.3985L12.42 13.5H15.1875C15.4859 13.5 15.772 13.3815 15.983 13.1705C16.194 12.9595 16.3125 12.6734 16.3125 12.375V3.93752C16.3125 3.63915 16.194 3.35301 15.983 3.14203C15.772 2.93105 15.4859 2.81252 15.1875 2.81252ZM15.1875 12.375H2.8125V3.93752H15.1875V12.375ZM7.3125 8.43752V10.125C7.3125 10.2742 7.25324 10.4173 7.14775 10.5228C7.04226 10.6283 6.89918 10.6875 6.75 10.6875C6.60082 10.6875 6.45774 10.6283 6.35225 10.5228C6.24676 10.4173 6.1875 10.2742 6.1875 10.125V8.43752C6.1875 8.28834 6.24676 8.14526 6.35225 8.03978C6.45774 7.93429 6.60082 7.87502 6.75 7.87502C6.89918 7.87502 7.04226 7.93429 7.14775 8.03978C7.25324 8.14526 7.3125 8.28834 7.3125 8.43752ZM9.5625 7.31252V10.125C9.5625 10.2742 9.50324 10.4173 9.39775 10.5228C9.29226 10.6283 9.14918 10.6875 9 10.6875C8.85082 10.6875 8.70774 10.6283 8.60225 10.5228C8.49676 10.4173 8.4375 10.2742 8.4375 10.125V7.31252C8.4375 7.16334 8.49676 7.02026 8.60225 6.91478C8.70774 6.80929 8.85082 6.75002 9 6.75002C9.14918 6.75002 9.29226 6.80929 9.39775 6.91478C9.50324 7.02026 9.5625 7.16334 9.5625 7.31252ZM11.8125 6.18752V10.125C11.8125 10.2742 11.7532 10.4173 11.6477 10.5228C11.5423 10.6283 11.3992 10.6875 11.25 10.6875C11.1008 10.6875 10.9577 10.6283 10.8523 10.5228C10.7468 10.4173 10.6875 10.2742 10.6875 10.125V6.18752C10.6875 6.03834 10.7468 5.89526 10.8523 5.78978C10.9577 5.68429 11.1008 5.62502 11.25 5.62502C11.3992 5.62502 11.5423 5.68429 11.6477 5.78978C11.7532 5.89526 11.8125 6.03834 11.8125 6.18752Z" fill="black"/>
</svg>
