<svg width="20" height="20" viewBox="0 0 20 20" fill="none" xmlns="http://www.w3.org/2000/svg">
<g clip-path="url(#clip0_218_101)">
<path d="M19.8362 14.0958V11.1437C19.8353 10.2383 19.1016 9.50458 18.1962 9.50362H16.8841V6.22351C16.8841 6.04236 16.7372 5.89549 16.5561 5.89549H14.588C14.4069 5.89549 14.26 6.04236 14.26 6.22351V9.50362H11.3079V5.56748C11.3079 5.38634 11.161 5.23947 10.9799 5.23947H9.01183C8.83069 5.23947 8.68382 5.38634 8.68382 5.56748V9.50362H5.73171V6.22351C5.73171 6.04236 5.58484 5.89549 5.4037 5.89549H3.43563C3.25449 5.89549 3.10762 6.04236 3.10762 6.22351V9.50362H1.79557C0.890339 9.50458 0.156637 10.2383 0.155516 11.1437V14.0958C0.144304 14.7997 0.522927 15.4524 1.13955 15.7922V19.344H0.483527C0.302384 19.344 0.155516 19.4908 0.155516 19.672C0.155516 19.8531 0.302384 20 0.483527 20H19.5082C19.6893 20 19.8362 19.8531 19.8362 19.672C19.8362 19.4908 19.6893 19.344 19.5082 19.344H18.8522V15.7972C19.4594 15.4452 19.834 14.7975 19.8362 14.0958ZM14.916 6.55152H16.2281V9.50362H14.916V6.55152ZM9.33984 5.89549H10.6519V9.50362H9.33984V5.89549ZM3.76364 6.55152H5.07569V9.50362H3.76364V6.55152ZM0.811539 11.1437C0.811539 10.6001 1.25214 10.1596 1.79557 10.1596H18.1962C18.7397 10.1596 19.1802 10.6001 19.1802 11.1437V14.0958C19.1791 14.6168 18.8716 15.0883 18.3952 15.2996C17.8994 15.5084 17.3266 15.4009 16.9403 15.0263C16.694 14.7792 16.5559 14.4445 16.5561 14.0958V12.7837C16.5545 12.2884 16.2734 11.8365 15.8299 11.616L15.8099 11.6051C15.7574 11.5803 15.7032 11.5591 15.6478 11.5418C15.6151 11.531 15.5852 11.5202 15.5527 11.5124C15.5107 11.5028 15.4683 11.4952 15.4255 11.49C15.3967 11.4858 15.3691 11.4771 15.3398 11.4749C15.3241 11.4749 15.3091 11.4771 15.2937 11.4765C15.2782 11.4759 15.2612 11.4717 15.2441 11.4717C15.2077 11.4717 15.1726 11.4792 15.1366 11.4821C15.1004 11.4851 15.0621 11.4867 15.0253 11.493C14.9686 11.5036 14.9125 11.518 14.8577 11.5359C14.8281 11.545 14.798 11.5516 14.7692 11.5628C14.708 11.5877 14.6489 11.6173 14.5924 11.6514C14.5717 11.6632 14.5497 11.6717 14.5294 11.6842C14.4529 11.7339 14.3816 11.7914 14.3169 11.8558C14.0697 12.1011 13.9312 12.4354 13.932 12.7837V13.4398C13.932 14.1643 13.3447 14.7518 12.62 14.7518C11.8954 14.7518 11.3079 14.1643 11.3079 13.4398V12.7837C11.3063 12.2884 11.0252 11.8365 10.5817 11.616L10.5617 11.6051C10.5092 11.5803 10.455 11.5591 10.3996 11.5418C10.367 11.531 10.337 11.5202 10.3045 11.5124C10.2625 11.5028 10.2201 11.4952 10.1773 11.49C10.1485 11.4858 10.121 11.4771 10.0916 11.4749C10.0759 11.4749 10.0609 11.4771 10.0455 11.4765C10.03 11.4759 10.013 11.4717 9.99586 11.4717C9.95951 11.4717 9.92443 11.4792 9.8884 11.4821C9.8522 11.4851 9.81392 11.4867 9.77708 11.493C9.72055 11.5036 9.66465 11.518 9.60987 11.5359C9.57992 11.545 9.54981 11.5516 9.52098 11.5628C9.46012 11.5877 9.40118 11.6171 9.34481 11.6511C9.32382 11.6629 9.30156 11.6717 9.28122 11.6839C9.20466 11.7334 9.13339 11.7907 9.06869 11.8551C8.8214 12.1006 8.68286 12.4352 8.68382 12.7837V14.7518C8.68382 15.4764 8.0965 16.0639 7.37177 16.0639C6.6472 16.0639 6.05972 15.4764 6.05972 14.7518V12.7837C6.05812 12.2884 5.77704 11.8365 5.33355 11.616L5.31353 11.6051C5.261 11.5803 5.20686 11.5591 5.15145 11.5418C5.11877 11.531 5.08882 11.5202 5.05631 11.5124C5.01435 11.5028 4.97191 11.4952 4.92914 11.49C4.90031 11.4858 4.87277 11.4771 4.84346 11.4749C4.81431 11.4727 4.78051 11.4717 4.74768 11.4717C4.02311 11.4717 3.43563 12.059 3.43563 12.7837V14.0958C3.43611 14.4433 3.29901 14.777 3.05413 15.0236C2.729 15.3366 2.26949 15.4669 1.82841 15.3713C1.74993 15.3547 1.67305 15.331 1.5989 15.3002C1.44898 15.2341 1.31237 15.1413 1.19577 15.0263C0.949438 14.7792 0.811379 14.4445 0.811539 14.0958V11.1437ZM1.79557 19.344V16.0366C1.82841 16.0421 1.86124 16.0435 1.89407 16.0474L1.91922 16.0501C2.20623 16.0797 2.49628 16.0461 2.76888 15.9516C2.85216 15.9223 2.93352 15.8874 3.01216 15.8473C3.02898 15.8391 3.045 15.8302 3.06245 15.8211C3.12604 15.7865 3.18786 15.7485 3.24744 15.7072C3.2665 15.6942 3.28572 15.682 3.30446 15.6683C3.80657 15.3029 4.09998 14.7166 4.09166 14.0958V12.7837C4.09133 12.6096 4.16069 12.4428 4.28417 12.3202C4.317 12.2877 4.35304 12.2586 4.3918 12.2336C4.39869 12.2294 4.40621 12.2264 4.4131 12.2225C4.44529 12.2028 4.47893 12.186 4.51384 12.1722C4.52409 12.1684 4.5345 12.166 4.54475 12.1628C4.57679 12.1519 4.60962 12.1437 4.64309 12.1381C4.65879 12.1356 4.67593 12.1349 4.6913 12.1332C4.71885 12.1306 4.74656 12.1296 4.77427 12.1303C4.79493 12.1312 4.81559 12.1333 4.83593 12.1365C4.86059 12.1394 4.8851 12.1439 4.90912 12.15C4.91729 12.1519 4.92482 12.1549 4.93267 12.1572C5.21855 12.2615 5.40739 12.5348 5.4037 12.8392V14.7518C5.4037 15.8387 6.28491 16.7199 7.37177 16.7199C8.45879 16.7199 9.33984 15.8387 9.33984 14.7518V12.7837C9.33984 12.561 9.45324 12.3535 9.64062 12.2333C9.64623 12.2297 9.6528 12.2273 9.6584 12.2238C9.69172 12.2035 9.72663 12.186 9.76299 12.1719C9.77228 12.1684 9.78173 12.1663 9.79086 12.1634C9.82305 12.1525 9.85588 12.1439 9.88936 12.1378C9.90505 12.1356 9.92219 12.1346 9.9366 12.1332C9.96415 12.1304 9.99202 12.1295 10.0199 12.1303C10.0405 12.1312 10.0611 12.1333 10.0816 12.1365C10.1062 12.1394 10.1306 12.1439 10.1547 12.15C10.1629 12.1519 10.1704 12.1549 10.1783 12.1572C10.4651 12.2607 10.6553 12.5342 10.6519 12.8392V13.4398C10.6519 14.5266 11.5331 15.4078 12.62 15.4078C13.707 15.4078 14.588 14.5266 14.588 13.4398V12.7837C14.5877 12.6096 14.6571 12.4428 14.7805 12.3202C14.8134 12.2877 14.8494 12.2586 14.8882 12.2336C14.8951 12.2294 14.9026 12.2264 14.9098 12.2221C14.9418 12.2027 14.9755 12.186 15.0102 12.1722C15.0205 12.1684 15.0312 12.166 15.043 12.1628C15.0746 12.1519 15.107 12.1437 15.1398 12.1381C15.1555 12.1356 15.1726 12.1349 15.188 12.1332C15.2155 12.1306 15.2433 12.1296 15.271 12.1303C15.2916 12.1312 15.3123 12.1333 15.3326 12.1365C15.3573 12.1394 15.3818 12.1439 15.4058 12.15C15.414 12.1519 15.4215 12.1549 15.4294 12.1572C15.7151 12.2616 15.9039 12.535 15.9001 12.8392V14.0958C15.8996 14.6186 16.1068 15.1202 16.4765 15.4902C16.5415 15.5536 16.6109 15.6125 16.6841 15.6667C16.7054 15.682 16.7273 15.6958 16.7497 15.7105C16.8048 15.7482 16.8606 15.7831 16.9185 15.8148C16.9416 15.8273 16.9645 15.8395 16.9877 15.8508C17.0539 15.8837 17.1216 15.9128 17.1908 15.9381C17.2046 15.9431 17.218 15.9493 17.2321 15.954C17.4122 16.0153 17.5999 16.0507 17.7898 16.0589H17.7921C17.8835 16.0626 17.9751 16.0599 18.0663 16.0507L18.0991 16.047C18.1319 16.0435 18.1648 16.0421 18.1976 16.0366V19.344H1.79557Z" fill="#2C83EC"/>
<path d="M9.99602 4.58351C10.9014 4.58239 11.6351 3.84869 11.6361 2.94346C11.6361 2.1561 10.4949 0.463989 10.266 0.132934C10.2015 0.0491697 10.1019 0 9.99602 0C9.89031 0 9.79053 0.0491697 9.72614 0.132934C9.49711 0.463989 8.35596 2.1561 8.35596 2.94346C8.35708 3.84869 9.09078 4.58239 9.99602 4.58351ZM9.99602 0.912282C10.468 1.64999 10.98 2.58517 10.98 2.94346C10.98 3.48689 10.5396 3.92749 9.99602 3.92749C9.45259 3.92749 9.01198 3.48689 9.01198 2.94346C9.01198 2.58517 9.52402 1.64999 9.99602 0.912282Z" fill="#2C83EC"/>
<path d="M15.5722 5.23964C16.4776 5.23852 17.2113 4.50482 17.2122 3.59958C17.2122 2.81223 16.0711 1.12012 15.8422 0.789062C15.7777 0.705298 15.6781 0.656128 15.5722 0.656128C15.4665 0.656128 15.3667 0.705298 15.3023 0.789062C15.0733 1.12012 13.9321 2.81223 13.9321 3.59958C13.9333 4.50482 14.667 5.23852 15.5722 5.23964ZM15.5722 1.56841C16.0442 2.30612 16.5562 3.2413 16.5562 3.59958C16.5562 4.14301 16.1158 4.58362 15.5722 4.58362C15.0288 4.58362 14.5882 4.14301 14.5882 3.59958C14.5882 3.2413 15.1002 2.30612 15.5722 1.56841Z" fill="#2C83EC"/>
<path d="M4.41984 5.23964C5.32524 5.23852 6.05894 4.50482 6.0599 3.59958C6.0599 2.81223 4.91875 1.12012 4.68988 0.789062C4.62533 0.705298 4.52571 0.656128 4.41984 0.656128C4.31414 0.656128 4.21436 0.705298 4.14997 0.789062C3.92094 1.12012 2.77979 2.81223 2.77979 3.59958C2.78091 4.50482 3.51461 5.23852 4.41984 5.23964ZM4.41984 1.56841C4.89184 2.30612 5.40388 3.2413 5.40388 3.59958C5.40388 4.14301 4.96343 4.58362 4.41984 4.58362C3.87641 4.58362 3.43581 4.14301 3.43581 3.59958C3.43581 3.2413 3.94785 2.30612 4.41984 1.56841Z" fill="#2C83EC"/>
</g>
<defs>
<clipPath id="clip0_218_101">
<rect width="20" height="20" fill="white"/>
</clipPath>
</defs>
</svg>
