<svg width="24" height="24" viewBox="0 0 24 24" fill="none" xmlns="http://www.w3.org/2000/svg">
<path d="M12 0C8.76914 0 6.14062 2.62852 6.14062 5.85938C6.14062 9.09023 8.76914 11.7188 12 11.7188C15.2309 11.7188 17.8594 9.09023 17.8594 5.85938C17.8594 2.62852 15.2309 0 12 0ZM12 10.3125C9.54455 10.3125 7.54688 8.31483 7.54688 5.85938C7.54688 3.40392 9.54455 1.40625 12 1.40625C14.4555 1.40625 16.4531 3.40392 16.4531 5.85938C16.4531 8.31483 14.4555 10.3125 12 10.3125Z" fill="black"/>
<path d="M21.2682 20.9982C20.5773 16.454 16.6682 13.125 12.0752 13.125H11.893C7.31068 13.125 3.41982 16.4761 2.73225 20.9982L2.27588 24H21.7246L21.2682 20.9982ZM11.2971 22.5938H3.9121L4.12257 21.2096C4.52293 18.5765 6.24277 16.2806 8.75246 15.1868L11.2971 19.1216V22.5938ZM10.1327 14.7314C10.7063 14.5995 11.2967 14.5312 11.893 14.5312H12.0752C12.6821 14.5312 13.2824 14.601 13.8652 14.7355L12.0002 17.6192L10.1327 14.7314ZM12.7034 22.5938V19.1216L15.2453 15.1909C17.7677 16.2886 19.4791 18.5859 19.8779 21.2096L20.0884 22.5938H12.7034Z" fill="black"/>
</svg>
