<svg width="40" height="40" viewBox="0 0 40 40" fill="none" xmlns="http://www.w3.org/2000/svg">
<path d="M32.5 5.3125H28.4375V3.75C28.4375 3.50136 28.3387 3.2629 28.1629 3.08709C27.9871 2.91127 27.7486 2.8125 27.5 2.8125C27.2514 2.8125 27.0129 2.91127 26.8371 3.08709C26.6613 3.2629 26.5625 3.50136 26.5625 3.75V5.3125H13.4375V3.75C13.4375 3.50136 13.3387 3.2629 13.1629 3.08709C12.9871 2.91127 12.7486 2.8125 12.5 2.8125C12.2514 2.8125 12.0129 2.91127 11.8371 3.08709C11.6613 3.2629 11.5625 3.50136 11.5625 3.75V5.3125H7.5C6.91984 5.3125 6.36344 5.54297 5.9532 5.9532C5.54297 6.36344 5.3125 6.91984 5.3125 7.5V32.5C5.3125 33.0802 5.54297 33.6366 5.9532 34.0468C6.36344 34.457 6.91984 34.6875 7.5 34.6875H32.5C33.0802 34.6875 33.6366 34.457 34.0468 34.0468C34.457 33.6366 34.6875 33.0802 34.6875 32.5V7.5C34.6875 6.91984 34.457 6.36344 34.0468 5.9532C33.6366 5.54297 33.0802 5.3125 32.5 5.3125ZM7.5 7.1875H11.5625V8.75C11.5625 8.99864 11.6613 9.2371 11.8371 9.41291C12.0129 9.58873 12.2514 9.6875 12.5 9.6875C12.7486 9.6875 12.9871 9.58873 13.1629 9.41291C13.3387 9.2371 13.4375 8.99864 13.4375 8.75V7.1875H26.5625V8.75C26.5625 8.99864 26.6613 9.2371 26.8371 9.41291C27.0129 9.58873 27.2514 9.6875 27.5 9.6875C27.7486 9.6875 27.9871 9.58873 28.1629 9.41291C28.3387 9.2371 28.4375 8.99864 28.4375 8.75V7.1875H32.5C32.5829 7.1875 32.6624 7.22042 32.721 7.27903C32.7796 7.33763 32.8125 7.41712 32.8125 7.5V12.8125H7.1875V7.5C7.1875 7.41712 7.22042 7.33763 7.27903 7.27903C7.33763 7.22042 7.41712 7.1875 7.5 7.1875ZM32.5 32.8125H7.5C7.41712 32.8125 7.33763 32.7796 7.27903 32.721C7.22042 32.6624 7.1875 32.5829 7.1875 32.5V14.6875H32.8125V32.5C32.8125 32.5829 32.7796 32.6624 32.721 32.721C32.6624 32.7796 32.5829 32.8125 32.5 32.8125ZM21.5625 20.625C21.5625 20.934 21.4709 21.2361 21.2992 21.4931C21.1275 21.75 20.8835 21.9503 20.5979 22.0686C20.3124 22.1868 19.9983 22.2178 19.6952 22.1575C19.3921 22.0972 19.1137 21.9484 18.8951 21.7299C18.6766 21.5113 18.5278 21.2329 18.4675 20.9298C18.4072 20.6267 18.4382 20.3126 18.5564 20.0271C18.6747 19.7415 18.875 19.4975 19.1319 19.3258C19.3889 19.1541 19.691 19.0625 20 19.0625C20.4144 19.0625 20.8118 19.2271 21.1049 19.5201C21.3979 19.8132 21.5625 20.2106 21.5625 20.625ZM28.4375 20.625C28.4375 20.934 28.3459 21.2361 28.1742 21.4931C28.0025 21.75 27.7585 21.9503 27.4729 22.0686C27.1874 22.1868 26.8733 22.2178 26.5702 22.1575C26.2671 22.0972 25.9887 21.9484 25.7701 21.7299C25.5516 21.5113 25.4028 21.2329 25.3425 20.9298C25.2822 20.6267 25.3132 20.3126 25.4314 20.0271C25.5497 19.7415 25.75 19.4975 26.0069 19.3258C26.2639 19.1541 26.566 19.0625 26.875 19.0625C27.2894 19.0625 27.6868 19.2271 27.9799 19.5201C28.2729 19.8132 28.4375 20.2106 28.4375 20.625ZM14.6875 26.875C14.6875 27.184 14.5959 27.4861 14.4242 27.7431C14.2525 28 14.0085 28.2003 13.7229 28.3186C13.4374 28.4368 13.1233 28.4678 12.8202 28.4075C12.5171 28.3472 12.2387 28.1984 12.0201 27.9799C11.8016 27.7613 11.6528 27.4829 11.5925 27.1798C11.5322 26.8767 11.5632 26.5626 11.6814 26.2771C11.7997 25.9915 12 25.7475 12.2569 25.5758C12.5139 25.4041 12.816 25.3125 13.125 25.3125C13.5394 25.3125 13.9368 25.4771 14.2299 25.7701C14.5229 26.0632 14.6875 26.4606 14.6875 26.875ZM21.5625 26.875C21.5625 27.184 21.4709 27.4861 21.2992 27.7431C21.1275 28 20.8835 28.2003 20.5979 28.3186C20.3124 28.4368 19.9983 28.4678 19.6952 28.4075C19.3921 28.3472 19.1137 28.1984 18.8951 27.9799C18.6766 27.7613 18.5278 27.4829 18.4675 27.1798C18.4072 26.8767 18.4382 26.5626 18.5564 26.2771C18.6747 25.9915 18.875 25.7475 19.1319 25.5758C19.3889 25.4041 19.691 25.3125 20 25.3125C20.4144 25.3125 20.8118 25.4771 21.1049 25.7701C21.3979 26.0632 21.5625 26.4606 21.5625 26.875ZM28.4375 26.875C28.4375 27.184 28.3459 27.4861 28.1742 27.7431C28.0025 28 27.7585 28.2003 27.4729 28.3186C27.1874 28.4368 26.8733 28.4678 26.5702 28.4075C26.2671 28.3472 25.9887 28.1984 25.7701 27.9799C25.5516 27.7613 25.4028 27.4829 25.3425 27.1798C25.2822 26.8767 25.3132 26.5626 25.4314 26.2771C25.5497 25.9915 25.75 25.7475 26.0069 25.5758C26.2639 25.4041 26.566 25.3125 26.875 25.3125C27.2894 25.3125 27.6868 25.4771 27.9799 25.7701C28.2729 26.0632 28.4375 26.4606 28.4375 26.875Z" fill="black"/>
</svg>
