<svg width="50" height="50" viewBox="0 0 50 50" fill="none" xmlns="http://www.w3.org/2000/svg">
<path d="M44.4988 5.2668H39.8075V3.17188C39.8075 2.10518 38.6845 1.26953 37.2519 1.26953C35.8172 1.26953 34.6933 2.10518 34.6933 3.17188V5.2668H27.5587V3.17188C27.5587 2.10518 26.4347 1.26953 25.0001 1.26953C23.5655 1.26953 22.4415 2.10518 22.4415 3.17188V5.2668H15.3095V3.17188C15.3095 2.10518 14.1857 1.26953 12.7509 1.26953C11.316 1.26953 10.1923 2.10518 10.1923 3.17188V5.2668H5.5041C4.68124 5.2677 3.89234 5.59498 3.31048 6.17682C2.72862 6.75866 2.40132 7.54755 2.40039 8.37041V45.6268C2.40135 46.4496 2.72865 47.2385 3.3105 47.8204C3.89235 48.4022 4.68124 48.7295 5.5041 48.7305H44.4988C45.3214 48.7293 46.1098 48.4018 46.6912 47.8199C47.2726 47.2381 47.5993 46.4493 47.5998 45.6268V8.37041C47.5993 7.54789 47.2725 6.75916 46.6912 6.1773C46.1098 5.59544 45.3213 5.26799 44.4988 5.2668ZM36.256 3.18359C36.3038 3.08105 36.6632 2.83203 37.252 2.83203C37.8392 2.83203 38.1976 3.08145 38.2452 3.18359V5.2668H36.256V3.18359ZM24.004 3.18447C24.0528 3.08164 24.4126 2.83203 25.0001 2.83203C25.5876 2.83203 25.9474 3.08164 25.9962 3.18447V5.2668H24.004V3.18447ZM11.755 3.18447C11.8038 3.08164 12.1635 2.83203 12.7511 2.83203C13.3387 2.83203 13.6983 3.08164 13.7472 3.18447V5.2668H11.755V3.18447Z" fill="#EAE8E8"/>
<path d="M23.2537 20.0353V23.5426C23.2537 23.7498 23.1714 23.9485 23.0249 24.095C22.8784 24.2415 22.6797 24.3238 22.4725 24.3238H18.4979C18.2907 24.3238 18.0919 24.2415 17.9454 24.095C17.7989 23.9485 17.7166 23.7498 17.7166 23.5426V20.0353C17.7166 19.8281 17.7989 19.6294 17.9454 19.4829C18.0919 19.3364 18.2907 19.2541 18.4979 19.2541H22.4725C22.6797 19.2541 22.8784 19.3364 23.0249 19.4829C23.1714 19.6294 23.2537 19.8281 23.2537 20.0353ZM31.5021 19.2541H27.5275C27.3203 19.2541 27.1216 19.3364 26.9751 19.4829C26.8286 19.6294 26.7463 19.8281 26.7463 20.0353V23.5426C26.7463 23.7498 26.8286 23.9485 26.9751 24.095C27.1216 24.2415 27.3203 24.3238 27.5275 24.3238H31.5021C31.7094 24.3238 31.9081 24.2415 32.0546 24.095C32.2011 23.9485 32.2834 23.7498 32.2834 23.5426V20.0353C32.2834 19.8281 32.2011 19.6294 32.0546 19.4829C31.9081 19.3364 31.7094 19.2541 31.5021 19.2541ZM13.4455 27.8352H9.46777C9.26057 27.8352 9.06186 27.9176 8.91535 28.0641C8.76883 28.2106 8.68652 28.4093 8.68652 28.6165V32.1237C8.68652 32.3309 8.76883 32.5296 8.91535 32.6761C9.06186 32.8227 9.26057 32.905 9.46777 32.905H13.4456C13.6528 32.905 13.8515 32.8227 13.998 32.6761C14.1445 32.5296 14.2269 32.3309 14.2269 32.1237V28.6165C14.2269 28.4093 14.1445 28.2106 13.998 28.0641C13.8515 27.9176 13.6527 27.8352 13.4455 27.8352ZM22.4724 27.8352H18.4978C18.2906 27.8352 18.0918 27.9176 17.9453 28.0641C17.7988 28.2106 17.7165 28.4093 17.7165 28.6165V32.1237C17.7165 32.3309 17.7988 32.5296 17.9453 32.6761C18.0918 32.8227 18.2906 32.905 18.4978 32.905H22.4724C22.6796 32.905 22.8783 32.8227 23.0248 32.6761C23.1713 32.5296 23.2536 32.3309 23.2536 32.1237V28.6165C23.2536 28.4093 23.1713 28.2106 23.0248 28.0641C22.8783 27.9176 22.6796 27.8353 22.4725 27.8352H22.4724ZM31.5021 27.8352H27.5274C27.3202 27.8352 27.1215 27.9176 26.975 28.0641C26.8285 28.2106 26.7462 28.4093 26.7462 28.6165V32.1237C26.7462 32.3309 26.8285 32.5296 26.975 32.6761C27.1215 32.8227 27.3202 32.905 27.5274 32.905H31.5021C31.7093 32.905 31.908 32.8227 32.0545 32.6761C32.201 32.5296 32.2833 32.3309 32.2833 32.1237V28.6165C32.2833 28.4093 32.201 28.2106 32.0545 28.0641C31.908 27.9176 31.7093 27.8353 31.5021 27.8352H31.5021ZM13.4454 36.4192H9.46777C9.26057 36.4192 9.06186 36.5015 8.91535 36.6481C8.76883 36.7946 8.68652 36.9933 8.68652 37.2005V40.7049C8.68652 40.9121 8.76883 41.1108 8.91535 41.2573C9.06186 41.4038 9.26057 41.4861 9.46777 41.4861H13.4456C13.6528 41.4861 13.8515 41.4038 13.998 41.2573C14.1445 41.1108 14.2269 40.9121 14.2269 40.7049V37.2006C14.2269 36.9934 14.1445 36.7947 13.998 36.6481C13.8515 36.5016 13.6528 36.4193 13.4456 36.4193L13.4454 36.4192ZM22.4723 36.4192H18.4977C18.2905 36.4192 18.0917 36.5015 17.9452 36.6481C17.7987 36.7946 17.7164 36.9933 17.7164 37.2005V40.7049C17.7164 40.9121 17.7987 41.1108 17.9452 41.2573C18.0917 41.4038 18.2905 41.4861 18.4977 41.4861H22.4723C22.6795 41.4861 22.8782 41.4038 23.0247 41.2573C23.1712 41.1108 23.2535 40.9121 23.2535 40.7049V37.2006C23.2535 36.9934 23.1712 36.7947 23.0248 36.6482C22.8783 36.5017 22.6796 36.4194 22.4725 36.4193L22.4723 36.4192ZM13.4456 19.2541H9.46777C9.26057 19.2541 9.06186 19.3364 8.91535 19.4829C8.76883 19.6294 8.68652 19.8281 8.68652 20.0353V23.5426C8.68652 23.7498 8.76883 23.9485 8.91535 24.095C9.06186 24.2415 9.26057 24.3238 9.46777 24.3238H13.4456C13.6528 24.3238 13.8515 24.2415 13.998 24.095C14.1445 23.9485 14.2269 23.7498 14.2269 23.5426V20.0353C14.2269 19.8281 14.1445 19.6294 13.998 19.4829C13.8515 19.3364 13.6528 19.2541 13.4456 19.2541ZM40.5318 27.8352H36.5572C36.35 27.8352 36.1513 27.9176 36.0048 28.0641C35.8583 28.2106 35.776 28.4093 35.776 28.6165V32.1237C35.776 32.3309 35.8583 32.5296 36.0048 32.6761C36.1513 32.8227 36.35 32.905 36.5572 32.905H40.5318C40.739 32.905 40.9378 32.8227 41.0843 32.6761C41.2308 32.5296 41.3131 32.3309 41.3131 32.1237V28.6165C41.3131 28.4093 41.2308 28.2106 41.0843 28.0641C40.9378 27.9176 40.739 27.8352 40.5318 27.8352ZM31.5021 36.4192H27.5275C27.3203 36.4192 27.1216 36.5015 26.9751 36.6481C26.8286 36.7946 26.7463 36.9933 26.7463 37.2005V40.7049C26.7463 40.9121 26.8286 41.1108 26.9751 41.2573C27.1216 41.4038 27.3203 41.4861 27.5275 41.4861H31.5021C31.7094 41.4861 31.9081 41.4038 32.0546 41.2573C32.2011 41.1108 32.2834 40.9121 32.2834 40.7049V37.2006C32.2834 36.9934 32.2011 36.7947 32.0546 36.6481C31.9081 36.5016 31.7094 36.4192 31.5021 36.4192Z" fill="#484868"/>
<path d="M13.4463 19.2541H12.4697C12.6769 19.2541 12.8756 19.3364 13.0222 19.4829C13.1687 19.6294 13.251 19.8281 13.251 20.0353V23.5426C13.251 23.7498 13.1687 23.9485 13.0222 24.095C12.8756 24.2415 12.6769 24.3238 12.4697 24.3238H13.4463C13.6535 24.3238 13.8522 24.2415 13.9987 24.095C14.1452 23.9485 14.2275 23.7498 14.2275 23.5426V20.0353C14.2275 19.8281 14.1452 19.6294 13.9987 19.4829C13.8522 19.3364 13.6535 19.2541 13.4463 19.2541Z" fill="#3D3D54"/>
<path d="M22.4736 36.4193H21.4971C21.7043 36.4193 21.903 36.5016 22.0495 36.6481C22.196 36.7946 22.2783 36.9934 22.2783 37.2006V40.705C22.2783 40.9122 22.196 41.1109 22.0495 41.2574C21.903 41.4039 21.7043 41.4862 21.4971 41.4862H22.4736C22.6808 41.4862 22.8795 41.4039 23.0261 41.2574C23.1726 41.1109 23.2549 40.9122 23.2549 40.705V37.2006C23.2549 36.9934 23.1726 36.7946 23.0261 36.6481C22.8795 36.5016 22.6808 36.4193 22.4736 36.4193Z" fill="#3D3D54"/>
<path d="M22.4736 27.8353H21.4971C21.7043 27.8353 21.903 27.9176 22.0495 28.0641C22.196 28.2106 22.2783 28.4093 22.2783 28.6165V32.1237C22.2783 32.3309 22.196 32.5297 22.0495 32.6762C21.903 32.8227 21.7043 32.905 21.4971 32.905H22.4736C22.6808 32.905 22.8795 32.8227 23.0261 32.6762C23.1726 32.5297 23.2549 32.3309 23.2549 32.1237V28.6165C23.2549 28.4093 23.1726 28.2106 23.0261 28.0641C22.8795 27.9176 22.6808 27.8353 22.4736 27.8353Z" fill="#3D3D54"/>
<path d="M13.4463 36.4193H12.4697C12.6769 36.4193 12.8756 36.5016 13.0222 36.6481C13.1687 36.7946 13.251 36.9934 13.251 37.2006V40.705C13.251 40.9122 13.1687 41.1109 13.0222 41.2574C12.8756 41.4039 12.6769 41.4862 12.4697 41.4862H13.4463C13.6535 41.4862 13.8522 41.4039 13.9987 41.2574C14.1452 41.1109 14.2275 40.9122 14.2275 40.705V37.2006C14.2275 36.9934 14.1452 36.7946 13.9987 36.6481C13.8522 36.5016 13.6535 36.4193 13.4463 36.4193Z" fill="#3D3D54"/>
<path d="M13.4463 27.8353H12.4697C12.6769 27.8353 12.8756 27.9176 13.0222 28.0641C13.1687 28.2106 13.251 28.4093 13.251 28.6165V32.1237C13.251 32.3309 13.1687 32.5297 13.0222 32.6762C12.8756 32.8227 12.6769 32.905 12.4697 32.905H13.4463C13.6535 32.905 13.8522 32.8227 13.9987 32.6762C14.1452 32.5297 14.2275 32.3309 14.2275 32.1237V28.6165C14.2275 28.4093 14.1452 28.2106 13.9987 28.0641C13.8522 27.9176 13.6535 27.8353 13.4463 27.8353Z" fill="#3D3D54"/>
<path d="M31.5029 36.4193H30.5264C30.7336 36.4193 30.9323 36.5016 31.0788 36.6481C31.2253 36.7946 31.3076 36.9934 31.3076 37.2006V40.705C31.3076 40.9122 31.2253 41.1109 31.0788 41.2574C30.9323 41.4039 30.7336 41.4862 30.5264 41.4862H31.5029C31.7101 41.4862 31.9088 41.4039 32.0554 41.2574C32.2019 41.1109 32.2842 40.9122 32.2842 40.705V37.2006C32.2842 36.9934 32.2019 36.7946 32.0554 36.6481C31.9088 36.5016 31.7101 36.4193 31.5029 36.4193Z" fill="#3D3D54"/>
<path d="M31.5029 19.2541H30.5264C30.7336 19.2541 30.9323 19.3364 31.0788 19.4829C31.2253 19.6294 31.3076 19.8281 31.3076 20.0353V23.5426C31.3076 23.7498 31.2253 23.9485 31.0788 24.095C30.9323 24.2415 30.7336 24.3238 30.5264 24.3238H31.5029C31.7101 24.3238 31.9088 24.2415 32.0554 24.095C32.2019 23.9485 32.2842 23.7498 32.2842 23.5426V20.0353C32.2842 19.8281 32.2019 19.6294 32.0554 19.4829C31.9088 19.3364 31.7101 19.2541 31.5029 19.2541Z" fill="#3D3D54"/>
<path d="M22.4736 19.2541H21.4971C21.7043 19.2541 21.903 19.3364 22.0495 19.4829C22.196 19.6294 22.2783 19.8281 22.2783 20.0353V23.5426C22.2783 23.7498 22.196 23.9485 22.0495 24.095C21.903 24.2415 21.7043 24.3238 21.4971 24.3238H22.4736C22.6808 24.3238 22.8795 24.2415 23.0261 24.095C23.1726 23.9485 23.2549 23.7498 23.2549 23.5426V20.0353C23.2549 19.8281 23.1726 19.6294 23.0261 19.4829C22.8795 19.3364 22.6808 19.2541 22.4736 19.2541Z" fill="#3D3D54"/>
<path d="M40.5322 27.8353H39.5557C39.7629 27.8353 39.9616 27.9176 40.1081 28.0641C40.2546 28.2106 40.3369 28.4093 40.3369 28.6165V32.1237C40.3369 32.3309 40.2546 32.5297 40.1081 32.6762C39.9616 32.8227 39.7629 32.905 39.5557 32.905H40.5322C40.7394 32.905 40.9381 32.8227 41.0847 32.6762C41.2312 32.5297 41.3135 32.3309 41.3135 32.1237V28.6165C41.3135 28.4093 41.2312 28.2106 41.0847 28.0641C40.9381 27.9176 40.7394 27.8353 40.5322 27.8353Z" fill="#3D3D54"/>
<path d="M31.5029 27.8353H30.5264C30.7336 27.8353 30.9323 27.9176 31.0788 28.0641C31.2253 28.2106 31.3076 28.4093 31.3076 28.6165V32.1237C31.3076 32.3309 31.2253 32.5297 31.0788 32.6762C30.9323 32.8227 30.7336 32.905 30.5264 32.905H31.5029C31.7101 32.905 31.9088 32.8227 32.0554 32.6762C32.2019 32.5297 32.2842 32.3309 32.2842 32.1237V28.6165C32.2842 28.4093 32.2019 28.2106 32.0554 28.0641C31.9088 27.9176 31.7101 27.8353 31.5029 27.8353Z" fill="#3D3D54"/>
<path d="M38.0513 24.0996C37.8453 24.0996 37.6476 24.0182 37.5013 23.8732L35.8958 22.2814C35.7497 22.1353 35.6674 21.9373 35.667 21.7307C35.6666 21.5241 35.748 21.3257 35.8934 21.1789C36.0389 21.0322 36.2366 20.9491 36.4432 20.9478C36.6498 20.9464 36.8486 21.027 36.9959 21.1719L38.0018 22.1687L40.0466 19.7546C40.1805 19.5965 40.3718 19.498 40.5783 19.4809C40.7848 19.4638 40.9896 19.5295 41.1477 19.6634C41.3058 19.7973 41.4042 19.9886 41.4213 20.1951C41.4384 20.4016 41.3728 20.6064 41.2389 20.7645L38.6479 23.8233C38.5782 23.9055 38.4923 23.9725 38.3955 24.0199C38.2987 24.0673 38.1932 24.0942 38.0856 24.0988C38.0739 24.0993 38.0626 24.0996 38.0513 24.0996Z" fill="#D22E2E"/>
<path d="M40.7663 46.215C40.6938 46.2876 40.6076 46.3452 40.5128 46.3845C40.418 46.4238 40.3164 46.444 40.2138 46.444H5.5041C4.68124 46.4431 3.89235 46.1158 3.3105 45.5339C2.72865 44.9521 2.40135 44.1632 2.40039 43.3403V45.6268C2.40135 46.4496 2.72865 47.2385 3.3105 47.8204C3.89235 48.4022 4.68124 48.7295 5.5041 48.7305H44.4988C45.3214 48.7293 46.1098 48.4018 46.6912 47.8199C47.2726 47.2381 47.5993 46.4493 47.5998 45.6268V39.0552C47.5998 39.2623 47.5175 39.4609 47.3711 39.6074L40.7663 46.215Z" fill="#D1C9C9"/>
<path d="M47.5996 39.0552V38.9528H41.6934C41.279 38.9528 40.8815 39.1174 40.5885 39.4104C40.2955 39.7034 40.1309 40.1009 40.1309 40.5153V46.4441H40.2136C40.3162 46.4441 40.4178 46.4238 40.5126 46.3845C40.6074 46.3452 40.6936 46.2877 40.7661 46.2151L47.3709 39.6074C47.5173 39.461 47.5996 39.2623 47.5996 39.0552Z" fill="#BCB3B3"/>
<path d="M44.4988 5.26678H36.256V8.22401C36.3019 8.32655 36.6601 8.57743 37.252 8.57743C37.4592 8.57743 37.658 8.65974 37.8045 8.80625C37.951 8.95276 38.0333 9.15148 38.0333 9.35868C38.0333 9.56588 37.951 9.76459 37.8045 9.91111C37.658 10.0576 37.4592 10.1399 37.252 10.1399C35.8174 10.1399 34.6935 9.30311 34.6935 8.23475V5.26678H24.004V8.22343C24.0507 8.32635 24.4094 8.57743 25.0001 8.57743C25.2073 8.57743 25.406 8.65974 25.5525 8.80625C25.699 8.95276 25.7813 9.15148 25.7813 9.35868C25.7813 9.56588 25.699 9.76459 25.5525 9.91111C25.406 10.0576 25.2073 10.1399 25.0001 10.1399C23.5654 10.1399 22.4415 9.30311 22.4415 8.23475V5.26678H11.7552V8.22343C11.8019 8.32635 12.1605 8.57743 12.7513 8.57743C12.9585 8.57743 13.1572 8.65974 13.3037 8.80625C13.4502 8.95276 13.5325 9.15148 13.5325 9.35868C13.5325 9.56588 13.4502 9.76459 13.3037 9.91111C13.1572 10.0576 12.9585 10.1399 12.7513 10.1399C11.3167 10.1399 10.1927 9.30311 10.1927 8.23475V5.26678H5.5041C4.68124 5.26769 3.89234 5.59496 3.31048 6.17681C2.72862 6.75865 2.40132 7.54754 2.40039 8.3704V15.0312H47.5998V8.3704C47.5993 7.54788 47.2725 6.75914 46.6912 6.17729C46.1098 5.59543 45.3213 5.26797 44.4988 5.26678Z" fill="#D22E2E"/>
<path d="M2.40039 15.0312H47.5998V16.2512H2.40039V15.0312Z" fill="#D1C9C9"/>
<path d="M25.7812 9.35869C25.7812 9.56589 25.6989 9.76461 25.5524 9.91112C25.4059 10.0576 25.2072 10.1399 25 10.1399C23.5653 10.1399 22.4414 9.30312 22.4414 8.23477V3.17188C22.4414 2.10518 23.5653 1.26953 25 1.26953C26.4347 1.26953 27.5586 2.10518 27.5586 3.17188V5.2668H25.9961V3.18447C25.9473 3.08164 25.5874 2.83203 25 2.83203C24.4126 2.83203 24.0527 3.08164 24.0039 3.18447V8.22354C24.0506 8.32646 24.4093 8.57754 25 8.57754C25.2072 8.57754 25.4059 8.65984 25.5524 8.80633C25.6989 8.95282 25.7812 9.15151 25.7812 9.35869ZM12.751 8.57744C12.1604 8.57744 11.8018 8.32637 11.7549 8.22344V3.18438C11.8037 3.08154 12.1634 2.83193 12.751 2.83193C13.3386 2.83193 13.6982 3.08154 13.7471 3.18438V5.2668H15.3096V3.17188C15.3096 2.10518 14.1858 1.26953 12.751 1.26953C11.3161 1.26953 10.1924 2.10518 10.1924 3.17188V8.23477C10.1924 9.30312 11.3162 10.1399 12.751 10.1399C12.9582 10.1399 13.1569 10.0576 13.3034 9.91112C13.4499 9.76461 13.5322 9.56589 13.5322 9.35869C13.5322 9.15149 13.4499 8.95278 13.3034 8.80626C13.1569 8.65975 12.9582 8.57744 12.751 8.57744ZM37.2518 8.57744C36.66 8.57744 36.3018 8.32656 36.2557 8.22402V3.18359C36.3035 3.08105 36.6629 2.83203 37.2518 2.83203C37.8389 2.83203 38.1973 3.08145 38.2449 3.18359V5.2668H39.8074V3.17188C39.8074 2.10518 38.6844 1.26953 37.2518 1.26953C35.8171 1.26953 34.6932 2.10518 34.6932 3.17188V8.23477C34.6932 9.30312 35.8169 10.1399 37.2518 10.1399C37.459 10.1399 37.6577 10.0576 37.8042 9.91112C37.9507 9.76461 38.033 9.56589 38.033 9.35869C38.033 9.15149 37.9507 8.95278 37.8042 8.80626C37.6577 8.65975 37.459 8.57744 37.2518 8.57744Z" fill="#484868"/>
<path d="M12.756 7.89392C12.3975 7.89394 12.0516 8.02605 11.7844 8.26502C11.8887 8.38162 12.229 8.57751 12.7512 8.57751C12.9584 8.57751 13.1571 8.65983 13.3036 8.80634C13.4501 8.95285 13.5324 9.15156 13.5324 9.35876C13.5324 9.56597 13.4501 9.76468 13.3036 9.91119C13.1571 10.0577 12.9584 10.14 12.7512 10.14C12.2778 10.1443 11.8092 10.0455 11.3779 9.85037C11.4681 10.103 11.626 10.326 11.8343 10.495C12.0427 10.664 12.2934 10.7725 12.5592 10.8087C12.825 10.8448 13.0956 10.8073 13.3415 10.7002C13.5874 10.593 13.7992 10.4204 13.9537 10.2011C14.1081 9.98176 14.1994 9.72423 14.2174 9.45659C14.2355 9.18895 14.1797 8.9215 14.0561 8.68342C13.9325 8.44535 13.7459 8.2458 13.5166 8.10657C13.2873 7.96734 13.0242 7.89378 12.756 7.89392Z" fill="#AD1E1E"/>
<path d="M25.0003 7.89392C24.6431 7.89382 24.2984 8.02487 24.0314 8.26218C24.1329 8.37849 24.4743 8.57742 25.0003 8.57742C25.2075 8.57742 25.4062 8.65973 25.5527 8.80624C25.6992 8.95275 25.7815 9.15147 25.7815 9.35867C25.7815 9.56587 25.6992 9.76458 25.5527 9.91109C25.4062 10.0576 25.2075 10.1399 25.0003 10.1399C24.5247 10.1443 24.054 10.0445 23.6211 9.84753C23.7107 10.1005 23.8682 10.324 24.0763 10.4935C24.2844 10.663 24.5351 10.7721 24.8009 10.8088C25.0668 10.8455 25.3376 10.8084 25.5839 10.7015C25.8301 10.5947 26.0422 10.4222 26.197 10.203C26.3518 9.98374 26.4434 9.72616 26.4617 9.45839C26.48 9.19062 26.4244 8.92297 26.3009 8.68469C26.1773 8.4464 25.9907 8.24666 25.7613 8.10729C25.532 7.96791 25.2687 7.89427 25.0003 7.89441V7.89392Z" fill="#AD1E1E"/>
<path d="M37.2506 7.89396C36.8936 7.89383 36.5491 8.02474 36.2822 8.26183C36.3821 8.37765 36.7235 8.57745 37.252 8.57745C37.4592 8.57745 37.6579 8.65976 37.8044 8.80628C37.9509 8.95279 38.0332 9.1515 38.0332 9.3587C38.0332 9.5659 37.9509 9.76462 37.8044 9.91113C37.6579 10.0576 37.4592 10.14 37.252 10.14C36.7758 10.1444 36.3044 10.0444 35.8711 9.84698C35.9607 10.1 36.1182 10.3234 36.3263 10.4929C36.5343 10.6625 36.785 10.7715 37.0509 10.8082C37.3167 10.8449 37.5875 10.8078 37.8338 10.701C38.08 10.5942 38.2921 10.4218 38.4469 10.2026C38.6017 9.98334 38.6933 9.72578 38.7117 9.45803C38.73 9.19027 38.6744 8.92262 38.551 8.68433C38.4275 8.44604 38.2409 8.24628 38.0115 8.10687C37.7822 7.96746 37.519 7.89387 37.2506 7.89396Z" fill="#AD1E1E"/>
</svg>
