<svg width="15" height="15" viewBox="0 0 15 15" fill="none" xmlns="http://www.w3.org/2000/svg">
<mask id="mask0_316_937" style="mask-type:alpha" maskUnits="userSpaceOnUse" x="1" y="1" width="13" height="12">
<path fill-rule="evenodd" clip-rule="evenodd" d="M2.59596 1.21484H11.9418C12.5843 1.21484 13.11 1.74054 13.11 2.38307V9.39241C13.11 10.0349 12.5843 10.5606 11.9418 10.5606H3.76418L1.42773 12.8971L1.43358 2.38307C1.43358 1.74054 1.95344 1.21484 2.59596 1.21484ZM10.1892 5.30364H4.34806C4.0268 5.30364 3.76395 5.56649 3.76395 5.88775C3.76395 6.20901 4.0268 6.47186 4.34806 6.47186H10.1892C10.5104 6.47186 10.7733 6.20901 10.7733 5.88775C10.7733 5.56649 10.5104 5.30364 10.1892 5.30364ZM7.85274 8.2242H4.34806C4.0268 8.2242 3.76395 7.96135 3.76395 7.64009C3.76395 7.31883 4.0268 7.05598 4.34806 7.05598H7.85274C8.174 7.05598 8.43685 7.31883 8.43685 7.64009C8.43685 7.96135 8.174 8.2242 7.85274 8.2242ZM4.34806 4.71953H10.1892C10.5104 4.71953 10.7733 4.45668 10.7733 4.13542C10.7733 3.81415 10.5104 3.5513 10.1892 3.5513H4.34806C4.0268 3.5513 3.76395 3.81415 3.76395 4.13542C3.76395 4.45668 4.0268 4.71953 4.34806 4.71953Z" fill="black"/>
</mask>
<g mask="url(#mask0_316_937)">
<rect x="0.259766" y="0.0466309" width="14.0187" height="14.0187" rx="7.00935" fill="url(#paint0_linear_316_937)"/>
</g>
<defs>
<linearGradient id="paint0_linear_316_937" x1="0.259766" y1="7.05598" x2="14.2785" y2="7.05598" gradientUnits="userSpaceOnUse">
<stop stop-color="#F90280"/>
<stop offset="1" stop-color="#FA6C07"/>
</linearGradient>
</defs>
</svg>
