<svg width="40" height="40" viewBox="0 0 40 40" fill="none" xmlns="http://www.w3.org/2000/svg">
<path d="M19.9358 36C18.0418 36 16.1477 35.7086 14.3994 34.9801C11.1941 33.8146 8.42582 31.6291 6.53176 28.7152C4.63771 25.8012 3.76353 22.3045 4.05492 18.9535C4.34632 15.4568 5.65759 12.2515 7.84303 9.62894C10.0285 7.0064 13.0881 5.11235 16.4391 4.38386C19.7901 3.65538 23.2869 3.94677 26.4922 5.40374C27.2207 5.69513 27.5121 6.56931 27.2207 7.29779C26.9293 8.02627 26.0551 8.31767 25.3266 8.02627C22.7041 6.8607 19.7901 6.56931 17.1676 7.1521C14.2537 7.73488 11.7768 9.33754 10.0285 11.523C8.13442 13.7084 7.11455 16.331 6.96885 19.2449C6.82316 22.0131 7.55164 24.9271 9.0086 27.2582C10.4656 29.5894 12.7967 31.4834 15.4192 32.3576C18.0418 33.3775 20.9557 33.3775 23.7239 32.649C26.3465 31.9205 28.8233 30.1721 30.5717 27.9867C32.32 25.8012 33.1942 22.8873 33.1942 20.1191V18.8078C33.1942 17.9336 33.777 17.3508 34.6512 17.3508C35.5254 17.3508 36.1082 17.9336 36.1082 18.8078V19.9734C36.1082 23.4701 34.9426 26.8211 32.9028 29.5894C30.8631 32.3576 27.9491 34.3973 24.5981 35.4172C22.9955 35.7086 21.5385 36 19.9358 36ZM19.9358 24.3443C19.4987 24.3443 19.2074 24.1986 18.916 23.9072L14.5451 19.5363C13.9623 18.9535 13.9623 18.0793 14.5451 17.4965C15.1279 16.9138 16.002 16.9138 16.5848 17.4965L19.9358 20.8476L33.4856 7.29779C34.0684 6.71501 34.9426 6.71501 35.5254 7.29779C36.1082 7.88058 36.1082 8.75476 35.5254 9.33754L20.9557 23.9072C20.6643 24.1986 20.3729 24.3443 19.9358 24.3443Z" fill="#19B36E"/>
</svg>
