<svg width="50" height="50" viewBox="0 0 50 50" fill="none" xmlns="http://www.w3.org/2000/svg">
<g clip-path="url(#clip0_311_3277)">
<path d="M0.732422 8.49346C0.732422 4.16915 4.26904 0.670903 8.60771 0.733305C12.8104 0.793754 16.2276 4.24034 16.2542 8.44327C16.269 10.797 15.2358 12.9095 13.594 14.3424C13.4208 14.4936 13.4457 14.7695 13.6437 14.8866L15.1061 15.7519C15.3425 15.8917 15.2433 16.2542 14.9686 16.2541L8.34648 16.2524C4.12803 16.1741 0.732422 12.7306 0.732422 8.49346Z" fill="#7ACAA6"/>
<path d="M15.1064 15.7518L13.644 14.8866C13.4472 14.7701 13.4198 14.4946 13.5922 14.3442C15.2527 12.8961 16.2914 10.7529 16.2538 8.36784C16.1887 4.24236 12.8496 0.855931 8.72529 0.735716C8.14043 0.718724 7.56973 0.766576 7.01953 0.872337C10.5845 1.55574 13.3013 4.69802 13.3249 8.44324C13.3363 10.257 12.7255 11.9275 11.6933 13.2542C11.07 14.0552 11.2726 15.217 12.1461 15.7338L12.1767 15.7518C12.4105 15.8902 12.3156 16.2457 12.0478 16.2534L14.9688 16.2541C15.2437 16.2542 15.3429 15.8918 15.1064 15.7518Z" fill="#57BE92"/>
<path d="M38.5503 28.903H20.9442C16.5469 28.903 14.1405 23.7784 16.949 20.3948L17.1052 20.2066C18.3425 18.716 19.0197 16.8396 19.0197 14.9024V11.5073C19.0198 5.55645 23.8439 0.732422 29.7946 0.732422C35.7454 0.732422 40.5694 5.55645 40.5694 11.5072V15.017C40.5694 16.9745 41.2609 18.8691 42.5218 20.3665C45.3654 23.7433 42.9649 28.903 38.5503 28.903Z" fill="#C59191"/>
<path d="M47.8047 37.6279V49.2676H11.6885V37.7158C11.6885 35.1006 13.2559 32.7402 15.667 31.7256L21.4961 29.1904L23.46 28.3369C24.9492 27.6895 25.9131 26.2207 25.9131 24.5967V23.8428H33.5811V24.5576C33.5811 26.1895 34.5537 27.6641 36.0527 28.3066L43.9385 31.6865C46.2891 32.7285 47.8047 35.0576 47.8047 37.6279Z" fill="white"/>
<path d="M21.4961 31.9663C23.4859 32.5608 26.4148 33.195 29.9849 33.1326C33.3346 33.0741 36.0844 32.4228 37.9977 31.8116L38.9483 29.5478L36.0532 28.3069C34.5534 27.6641 33.5811 26.1894 33.5811 24.5576V23.8433H25.9128V24.5965C25.9128 26.2205 24.9494 27.6898 23.4601 28.3374L21.1152 29.3569L21.4961 31.9663Z" fill="#FFCEBF"/>
<path d="M43.9384 31.6868L37.9981 29.1408L37.9971 29.1409V49.2676H47.8042V37.6283C47.8042 35.0575 46.2888 32.7283 43.9384 31.6868Z" fill="#8795DE"/>
<path d="M21.4961 29.1904V49.2676H11.6885V37.7158C11.6885 35.1006 13.2559 32.7402 15.667 31.7256L21.4961 29.1904Z" fill="#8795DE"/>
<path d="M31.9249 22.2812H30.2085C29.4272 22.2812 28.7939 21.6479 28.7939 20.8666C28.7939 20.0854 29.4272 19.4521 30.2085 19.4521H31.9249C32.7061 19.4521 33.3395 20.0854 33.3395 20.8666C33.3395 21.6479 32.7061 22.2812 31.9249 22.2812Z" fill="white"/>
<path d="M30.2085 20.1844C29.8323 20.1844 29.5264 20.4904 29.5264 20.8665C29.5264 21.2426 29.8324 21.5486 30.2085 21.5486H31.9249C32.3011 21.5486 32.607 21.2426 32.607 20.8665C32.607 20.4904 32.301 20.1844 31.9249 20.1844H30.2085Z" fill="black"/>
<path d="M29.7474 37.8887C30.138 37.8887 30.4547 37.572 30.4547 37.1814C30.4547 36.7907 30.138 36.4741 29.7474 36.4741C29.3567 36.4741 29.04 36.7907 29.04 37.1814C29.04 37.572 29.3567 37.8887 29.7474 37.8887Z" fill="black"/>
<path d="M32.404 28.0521C33.2861 28.0521 34.1269 27.8749 34.8932 27.5552C34.0712 26.7964 33.5801 25.7168 33.5801 24.5576V23.8433H25.9118V24.5965C25.9118 25.1832 25.7855 25.7494 25.5547 26.2643C26.7158 27.3711 28.2867 28.0521 30.0176 28.0521H32.404Z" fill="#FFB09E"/>
<path d="M37.4104 12.3077V18.6513C37.4104 22.2252 34.5132 25.1222 30.9395 25.1222H28.5529C24.9791 25.1222 22.082 22.2251 22.082 18.6513V12.3077C22.082 9.98279 23.9668 8.09802 26.2917 8.09802H33.2007C35.5257 8.09812 37.4104 9.98279 37.4104 12.3077Z" fill="#FFCEBF"/>
<path d="M31.9239 22.2811H30.2075C29.4263 22.2811 28.793 21.6478 28.793 20.8666C28.793 20.0853 29.4263 19.452 30.2075 19.452H31.9239C32.7052 19.452 33.3385 20.0853 33.3385 20.8666C33.3385 21.6478 32.7052 22.2811 31.9239 22.2811Z" fill="#685E68"/>
<path d="M31.2747 6.41913C31.439 4.34637 33.4233 2.97089 35.3225 2.25848C38.4642 4.141 40.5675 7.57831 40.5675 11.5072V12.2479C40.3938 12.2844 40.2209 12.3163 40.0501 12.3418C39.0039 12.498 38.1128 12.4305 37.5042 12.3418C33.5818 11.8192 31.0762 8.92245 31.2747 6.41913Z" fill="#B98080"/>
<path d="M29.7933 0.732422C32.2267 0.732422 34.4714 1.53945 36.2751 2.8999C35.3753 4.46563 33.3092 7.56123 29.4348 9.85293C26.5586 11.5543 23.8466 12.126 22.1765 12.3419H19.0186V11.5072C19.0185 5.55645 23.8425 0.732422 29.7933 0.732422Z" fill="#C59191"/>
<path d="M41.8372 49.2676H18.3913L17.0982 37.0686C17.0065 36.2033 17.6848 35.4493 18.5548 35.4493H41.6737C42.5438 35.4493 43.2221 36.2033 43.1303 37.0686L41.8372 49.2676Z" fill="#EFEDEF"/>
<path d="M41.6729 35.4492H38.7432C39.6133 35.4492 40.2916 36.2032 40.1999 37.0685L38.9067 49.2676H41.8364L43.1296 37.0686C43.2213 36.2032 42.543 35.4492 41.6729 35.4492Z" fill="#E5E1E5"/>
<path d="M49.2676 50H0.732422C0.327832 50 0 49.6721 0 49.2676C0 48.8631 0.327832 48.5352 0.732422 48.5352H49.2676C49.6722 48.5352 50 48.8631 50 49.2676C50 49.6721 49.6722 50 49.2676 50Z" fill="#C9BFC8"/>
<path d="M30.1143 44.4092C31.2469 44.4092 32.165 43.491 32.165 42.3584C32.165 41.2258 31.2469 40.3076 30.1143 40.3076C28.9816 40.3076 28.0635 41.2258 28.0635 42.3584C28.0635 43.491 28.9816 44.4092 30.1143 44.4092Z" fill="#C9BFC8"/>
<path d="M11.4231 9.2257C11.8276 9.2257 12.1556 8.89777 12.1556 8.49328C12.1556 8.08879 11.8276 7.76086 11.4231 7.76086C11.0187 7.76086 10.6907 8.08879 10.6907 8.49328C10.6907 8.89777 11.0187 9.2257 11.4231 9.2257ZM5.56377 9.2257C5.96826 9.2257 6.29619 8.89777 6.29619 8.49328C6.29619 8.08879 5.96826 7.76086 5.56377 7.76086C5.15928 7.76086 4.83135 8.08879 4.83135 8.49328C4.83135 8.89777 5.15928 9.2257 5.56377 9.2257ZM8.49346 9.2257C8.89795 9.2257 9.22588 8.89777 9.22588 8.49328C9.22588 8.08879 8.89795 7.76086 8.49346 7.76086C8.08896 7.76086 7.76103 8.08879 7.76103 8.49328C7.76103 8.89777 8.08896 9.2257 8.49346 9.2257ZM8.33281 16.9848C8.33731 16.9849 8.3418 16.9849 8.34629 16.9849L14.9683 16.9865H14.9687C15.4262 16.9865 15.8146 16.6902 15.9354 16.2489C16.0562 15.8075 15.8728 15.3545 15.479 15.1216L14.4719 14.5257C16.0906 12.9213 17.0011 10.7322 16.9866 8.43869C16.9576 3.85197 13.2035 0.0669111 8.61816 0.000895433C3.8667 -0.0673663 0 3.77609 0 8.49347C0 13.0172 3.72734 16.8868 8.33281 16.9848ZM3.55957 3.48761C4.91016 2.15636 6.69531 1.43908 8.59717 1.46554C12.3914 1.52013 15.4978 4.65236 15.5218 8.44787C15.5348 10.4956 14.6566 12.443 13.1125 13.7904C12.8543 14.0156 12.719 14.3536 12.7503 14.6945C12.7815 15.0353 12.9762 15.3427 13.2706 15.5168L13.2779 15.5211L8.35352 15.5199C4.54678 15.4469 1.46484 12.3108 1.46484 8.49347C1.46484 6.59689 2.20879 4.81916 3.55957 3.48761ZM49.2676 48.5352H48.5352V37.6279C48.5352 34.7703 46.8466 32.1754 44.2251 31.0134L40.3651 29.359C41.3044 29.0626 42.1529 28.5341 42.8434 27.801C43.8851 26.695 44.4824 25.1944 44.4824 23.6837C44.4824 22.2956 43.9975 20.9855 43.0798 19.8945C41.9319 18.5316 41.2998 16.7993 41.2998 15.0167V11.507C41.2998 8.43293 40.1026 5.54347 37.929 3.37091C35.7554 1.19709 32.8656 1.65264e-05 29.7921 1.65264e-05C23.4472 1.65264e-05 18.2853 5.16193 18.2853 11.5069V14.9024C18.2856 16.7469 17.5607 18.5075 16.3828 19.9268C14.9003 21.7129 14.5923 24.1278 15.5791 26.2291C16.3115 27.7889 17.6326 28.9095 19.2142 29.3838L15.3812 31.0506C12.692 32.1822 10.9543 34.7986 10.9543 37.7159V46.338C10.9543 46.7425 11.2821 47.0704 11.6867 47.0704C12.0913 47.0704 12.4191 46.7425 12.4191 46.338V37.7159C12.4191 35.3896 13.8048 33.3031 15.9573 32.3974L20.7618 30.3081V31.9716V31.9769V34.7168H18.5545C17.9324 34.7168 17.337 34.982 16.9209 35.4445C16.5049 35.907 16.3039 36.5271 16.3695 37.1456L17.5769 48.5352H0.732422C0.327832 48.5352 0 48.8631 0 49.2676C0 49.6721 0.327832 50 0.732422 50H18.3893H18.3964H41.8366H41.8375H41.8385H49.2676C49.6722 50 50 49.6721 50 49.2676C50 48.8631 49.6722 48.5352 49.2676 48.5352ZM41.9591 20.8377C42.6516 21.661 43.0176 22.645 43.0176 23.6836C43.0176 24.8249 42.5654 25.9595 41.7771 26.7966C40.9423 27.6828 39.7955 28.1709 38.5479 28.1709H37.5935L36.3396 27.6335C35.2444 27.1638 34.4952 26.1569 34.3421 24.9978C36.602 23.781 38.1417 21.3929 38.1417 18.6514V13.1452C38.3561 13.1598 38.5702 13.1677 38.7838 13.1677C39.136 13.1677 39.4869 13.1477 39.8351 13.1082V15.0166C39.835 17.144 40.5895 19.2113 41.9591 20.8377ZM29.97 32.4003C27.3498 32.4467 24.7493 32.1147 22.2266 31.415V29.6711L22.4384 29.579C22.44 29.5783 22.4417 29.5776 22.4435 29.5769L23.7501 29.0087C25.2046 28.3764 26.2324 27.0813 26.544 25.5678C27.1818 25.7532 27.855 25.8546 28.5519 25.8546H30.9385C31.638 25.8546 32.3137 25.7525 32.9536 25.5656C33.2755 27.0722 34.3072 28.3557 35.7624 28.9799L37.1569 29.5776C37.1578 29.5779 37.1587 29.5783 37.1596 29.5786L37.2629 29.6229V31.271C34.8926 31.9773 32.4419 32.3571 29.97 32.4003ZM37.2628 32.796V34.7169H22.2266V32.9318C24.601 33.5543 27.0389 33.8694 29.4933 33.8694C29.6606 33.8694 29.8281 33.8679 29.9956 33.865C32.4556 33.822 34.8954 33.4625 37.2628 32.796ZM39.835 11.6313C37.8175 11.9038 35.5434 11.3634 33.9766 10.1494C33.6569 9.90177 33.1969 9.95998 32.949 10.2798C32.7013 10.5995 32.7597 11.0596 33.0794 11.3073C34.1037 12.1009 35.3392 12.6599 36.6769 12.9417V16.9291C36.3249 17.7313 35.9331 18.3984 35.0498 19.1271C34.6779 19.4339 34.2709 19.6887 33.835 19.8908C33.479 19.1962 32.7561 18.7194 31.9234 18.7194H30.207C29.0231 18.7194 28.0601 19.6826 28.0601 20.8664C28.0601 22.0502 29.0231 23.0134 30.207 23.0134H31.9234C32.9197 23.0134 33.7596 22.3312 34.0007 21.4095C34.9805 21.0361 36.578 19.7043 36.5784 19.7038C36.0824 22.3666 33.743 24.3894 30.9386 24.3894H28.5518C25.3877 24.3894 22.8135 21.8153 22.8135 18.6511V12.9896C25.3011 12.5996 27.6512 11.7578 29.8064 10.483C33.0881 8.54191 35.1931 6.00539 36.4634 4.00138C38.6369 5.93722 39.8733 8.71252 39.835 11.6313ZM32.6054 20.8685C32.6043 21.2438 32.2988 21.5487 31.9233 21.5487H30.2069C29.8308 21.5487 29.5248 21.2427 29.5248 20.8666C29.5248 20.4905 29.8309 20.1845 30.2069 20.1845H31.9233C32.2987 20.1845 32.6041 20.4893 32.6054 20.8644V20.8685ZM19.75 11.5069C19.75 5.96965 24.2548 1.46486 29.7921 1.46486C31.7779 1.46486 33.6756 2.0381 35.2972 3.10529C34.1281 4.97922 32.1604 7.38898 29.0607 9.22258C26.9343 10.4804 24.6018 11.2834 22.1277 11.6094H22.082C22.0817 11.6094 22.0814 11.6094 22.0811 11.6094C22.0807 11.6094 22.0805 11.6094 22.0801 11.6094H19.75V11.5069ZM16.9049 25.6065C16.1622 24.0246 16.394 22.2068 17.5091 20.8634C18.9082 19.1778 19.7517 17.0949 19.7501 14.9024V13.0742H21.3487V18.6514C21.3487 21.3945 22.8904 23.7837 25.1523 24.9998C25.0108 26.1677 24.2639 27.1879 23.166 27.6653L22.0031 28.1709H20.9415C19.1943 28.1709 17.6477 27.1883 16.9049 25.6065ZM42.4017 36.9913L41.1779 48.5352H19.0498L17.8261 36.9913C17.8039 36.782 17.8691 36.5807 18.0099 36.4243C18.1506 36.2679 18.344 36.1818 18.5544 36.1818H41.6732C41.8836 36.1818 42.077 36.2679 42.2178 36.4243C42.3585 36.5807 42.4237 36.782 42.4017 36.9913ZM47.0703 48.5352H42.6509L43.8582 37.1458C43.9238 36.5272 43.7228 35.9071 43.3068 35.4446C42.8907 34.9821 42.2954 34.7169 41.6732 34.7169H38.7275V31.8218C38.7276 31.8129 38.7277 31.8041 38.7275 31.7952V30.2508L43.6397 32.3562C45.7237 33.28 47.0703 35.3492 47.0703 37.6279V48.5352ZM30.1138 39.5752C28.5791 39.5752 27.3306 40.8237 27.3306 42.3584C27.3306 43.8931 28.5791 45.1416 30.1138 45.1416C31.6484 45.1416 32.897 43.8931 32.897 42.3584C32.897 40.8237 31.6484 39.5752 30.1138 39.5752ZM30.1138 43.6768C29.3868 43.6768 28.7954 43.0854 28.7954 42.3584C28.7954 41.6315 29.3868 41.0401 30.1138 41.0401C30.8407 41.0401 31.4321 41.6315 31.4321 42.3584C31.4321 43.0854 30.8408 43.6768 30.1138 43.6768Z" fill="black"/>
</g>
<defs>
<clipPath id="clip0_311_3277">
<rect width="50" height="50" fill="white"/>
</clipPath>
</defs>
</svg>
