<svg width="50" height="50" viewBox="0 0 50 50" fill="none" xmlns="http://www.w3.org/2000/svg">
<g clip-path="url(#clip0_311_3785)">
<path fill-rule="evenodd" clip-rule="evenodd" d="M0.730668 18.6681L14.2233 3.06522C14.258 3.02657 14.3063 3.00292 14.358 2.99927C14.4098 2.99563 14.4609 3.01227 14.5006 3.04569L34.4846 20.329C34.5043 20.3458 34.5204 20.3663 34.5321 20.3894C34.5438 20.4125 34.5507 20.4377 34.5526 20.4636C34.5544 20.4894 34.551 20.5153 34.5427 20.5398C34.5344 20.5643 34.5213 20.587 34.5041 20.6063L21.0112 36.2092C20.9772 36.2478 20.9293 36.2714 20.878 36.2751C20.8266 36.2787 20.7759 36.2621 20.7367 36.2287L0.750004 18.9453C0.711372 18.9107 0.687733 18.8623 0.684088 18.8106C0.680443 18.7588 0.697077 18.7077 0.730472 18.668L0.730668 18.6681Z" fill="#006694"/>
<path fill-rule="evenodd" clip-rule="evenodd" d="M9.68383 11.3229L19.1032 7.02765L34.484 20.329C34.5037 20.3458 34.5199 20.3663 34.5316 20.3895C34.5433 20.4126 34.5502 20.4378 34.552 20.4636C34.5538 20.4894 34.5505 20.5153 34.5422 20.5399C34.5338 20.5644 34.5207 20.587 34.5036 20.6064L21.0109 36.2092C20.9768 36.2478 20.929 36.2715 20.8776 36.2751C20.8263 36.2788 20.7756 36.2621 20.7364 36.2287L19.777 35.3997L9.28686 12.3903C9.19807 12.1962 9.18996 11.9747 9.26431 11.7746C9.33867 11.5744 9.48941 11.412 9.68344 11.3229H9.68383Z" fill="#005C85"/>
<path fill-rule="evenodd" clip-rule="evenodd" d="M9.93932 11.8773L28.706 3.3203C28.7535 3.29903 28.8074 3.29728 28.8562 3.31542C28.905 3.33356 28.9446 3.37015 28.9667 3.41728L39.9277 27.458C39.9485 27.5056 39.95 27.5593 39.9319 27.6079C39.9137 27.6566 39.8775 27.6963 39.8306 27.7186L21.0611 36.2757C21.014 36.2967 20.9605 36.2983 20.9122 36.2801C20.864 36.2619 20.8248 36.2255 20.8033 36.1786L9.84225 12.138C9.83142 12.1145 9.82534 12.0891 9.82436 12.0633C9.82338 12.0375 9.82752 12.0117 9.83654 11.9875C9.84557 11.9632 9.85929 11.941 9.87693 11.9221C9.89457 11.9032 9.91578 11.888 9.93932 11.8773Z" fill="#60B7FF"/>
<path fill-rule="evenodd" clip-rule="evenodd" d="M21.0805 8.93262H31.4814L39.9275 27.458C39.9483 27.5056 39.9498 27.5593 39.9317 27.608C39.9136 27.6566 39.8773 27.6963 39.8305 27.7187L21.0609 36.2757C21.0138 36.2967 20.9604 36.2983 20.9121 36.2801C20.8638 36.2619 20.8247 36.2255 20.8031 36.1786L20.2734 35.0195V9.73955C20.2733 9.63355 20.2941 9.52856 20.3346 9.4306C20.3751 9.33264 20.4345 9.24363 20.5095 9.16868C20.5845 9.09372 20.6735 9.03429 20.7714 8.99378C20.8694 8.95327 20.9745 8.93249 21.0805 8.93262Z" fill="#56A5E6"/>
<path fill-rule="evenodd" clip-rule="evenodd" d="M21.0807 9.54266H36.4395L41.902 15.0052V36.1593C41.9021 36.1849 41.8973 36.2104 41.8876 36.2342C41.878 36.2579 41.8637 36.2796 41.8457 36.2979C41.8277 36.3161 41.8062 36.3307 41.7826 36.3407C41.759 36.3507 41.7336 36.3559 41.7079 36.356H21.0807C21.0285 36.3559 20.9786 36.3351 20.9417 36.2982C20.9048 36.2614 20.884 36.2114 20.8838 36.1593V9.73954C20.884 9.68739 20.9048 9.63743 20.9417 9.60055C20.9786 9.56368 21.0285 9.54287 21.0807 9.54266Z" fill="#EAF6FF"/>
<path fill-rule="evenodd" clip-rule="evenodd" d="M36.4395 9.54266V13.7793C36.4405 14.104 36.57 14.4151 36.7996 14.6447C37.0293 14.8744 37.3404 15.0038 37.6651 15.0049H41.902L36.4395 9.54266Z" fill="#BEC7CF"/>
<path fill-rule="evenodd" clip-rule="evenodd" d="M25.8026 28.1706H41.9238C42.7407 28.1736 43.5233 28.4994 44.1009 29.077C44.6785 29.6547 45.0043 30.4372 45.0072 31.2541V43.9177C45.0047 44.7347 44.6791 45.5175 44.1014 46.0952C43.5237 46.6729 42.7408 46.9986 41.9238 47.0011H13.347C12.5298 46.999 11.7468 46.6735 11.169 46.0957C10.5912 45.5179 10.2657 44.7348 10.2637 43.9177V25.0872C10.2649 24.4161 10.532 23.7729 11.0065 23.2984C11.481 22.8239 12.1243 22.5568 12.7953 22.5557H18.1802C19.0702 22.5557 19.6775 23.1047 20.3152 23.7258L23.6677 27.0005C24.3054 27.6216 24.9127 28.1706 25.8027 28.1706H25.8026Z" fill="#FFBA57"/>
<path fill-rule="evenodd" clip-rule="evenodd" d="M41.9018 28.6892C42.3256 28.9697 42.6735 29.3506 42.9145 29.7981C43.1554 30.2457 43.2819 30.7458 43.2827 31.2541V43.9177C43.2802 44.7347 42.9546 45.5175 42.3768 46.0952C41.7991 46.6729 41.0163 46.9986 40.1993 47.0011H41.9238C42.7408 46.9986 43.5237 46.6729 44.1014 46.0952C44.6791 45.5175 45.0047 44.7347 45.0072 43.9177V31.2541C45.0059 30.4367 44.6806 29.6532 44.1027 29.0752C43.5247 28.4972 42.7412 28.1719 41.9238 28.1706H40.1993C40.8058 28.1702 41.3985 28.3507 41.9018 28.6892ZM23.6676 27.0005L20.8836 24.2831L20.3151 23.7258C19.6774 23.1047 19.0701 22.5557 18.1801 22.5557H16.4551C17.3451 22.5557 17.9524 23.1047 18.5901 23.7258L20.8833 25.9662L21.9434 27.0005C22.5811 27.6216 23.1883 28.1706 24.0784 28.1706H25.8031C24.9131 28.1706 24.3058 27.6216 23.6681 27.0005H23.6676Z" fill="#E6A74E"/>
<path fill-rule="evenodd" clip-rule="evenodd" d="M43.4795 37.2739C44.6339 37.2739 45.7624 36.9316 46.7223 36.2902C47.6822 35.6489 48.4303 34.7372 48.8721 33.6707C49.3139 32.6041 49.4295 31.4305 49.2042 30.2983C48.979 29.166 48.4231 28.126 47.6068 27.3097C46.7905 26.4934 45.7504 25.9375 44.6182 25.7122C43.4859 25.487 42.3123 25.6026 41.2457 26.0444C40.1792 26.4862 39.2676 27.2344 38.6262 28.1943C37.9849 29.1542 37.6426 30.2827 37.6426 31.4371C37.6455 32.9843 38.2614 34.4672 39.3554 35.5612C40.4494 36.6552 41.9323 37.2711 43.4795 37.2739Z" fill="#FFA500"/>
<path fill-rule="evenodd" clip-rule="evenodd" d="M42.9863 25.6197C44.4184 25.7411 45.7553 26.3866 46.7411 27.4324C47.7269 28.4782 48.2923 29.8509 48.329 31.2876C48.3658 32.7243 47.8713 34.1241 46.9402 35.2189C46.0092 36.3138 44.707 37.0267 43.283 37.2212C43.1832 37.2351 43.0861 37.2462 42.9863 37.2545C43.0833 37.2628 43.1832 37.2684 43.283 37.2711C43.3468 37.274 43.4133 37.274 43.4799 37.274C45.0238 37.2676 46.5023 36.6499 47.5918 35.556C48.6812 34.462 49.2929 32.981 49.2929 31.4371C49.2929 29.8932 48.6812 28.4122 47.5918 27.3182C46.5023 26.2243 45.0238 25.6065 43.4799 25.6002C43.3139 25.6002 43.1471 25.6058 42.9863 25.6198V25.6197Z" fill="#21B335"/>
<path fill-rule="evenodd" clip-rule="evenodd" d="M40.6543 15.0052V26.3267C41.0489 26.1086 41.4677 25.9374 41.9021 25.8165V15.0052H40.6543Z" fill="#D3DDE6"/>
<path d="M23.6007 14.304C23.6007 14.1227 23.6727 13.9488 23.8009 13.8206C23.9291 13.6924 24.103 13.6204 24.2843 13.6204H33.3249C33.5062 13.6204 33.6801 13.6924 33.8083 13.8206C33.9365 13.9488 34.0085 14.1227 34.0085 14.304C34.0085 14.4853 33.9365 14.6592 33.8083 14.7874C33.6801 14.9156 33.5062 14.9876 33.3249 14.9876H24.2845C24.1947 14.9876 24.1058 14.97 24.0228 14.9356C23.9398 14.9013 23.8645 14.8509 23.801 14.7874C23.7375 14.724 23.6871 14.6486 23.6527 14.5656C23.6184 14.4827 23.6007 14.3938 23.6007 14.304ZM24.2843 18.315H38.5623C38.7436 18.315 38.9175 18.243 39.0457 18.1148C39.1739 17.9866 39.2459 17.8127 39.2459 17.6314C39.2459 17.4501 39.1739 17.2763 39.0457 17.1481C38.9175 17.0199 38.7436 16.9479 38.5623 16.9479H24.2845C24.1032 16.9479 23.9293 17.0199 23.8011 17.1481C23.6729 17.2763 23.6009 17.4501 23.6009 17.6314C23.6009 17.8127 23.6729 17.9866 23.8011 18.1148C23.9293 18.243 24.103 18.315 24.2843 18.315ZM38.5621 20.272H24.2845C24.1032 20.272 23.9293 20.344 23.8011 20.4722C23.6729 20.6004 23.6009 20.7743 23.6009 20.9556C23.6009 21.1369 23.6729 21.3107 23.8011 21.4389C23.9293 21.5671 24.1032 21.6392 24.2845 21.6392H38.5623C38.7436 21.6392 38.9175 21.5671 39.0457 21.4389C39.1739 21.3107 39.2459 21.1369 39.2459 20.9556C39.2459 20.7743 39.1739 20.6004 39.0457 20.4722C38.9175 20.344 38.7434 20.272 38.5621 20.272ZM38.5621 23.5964H24.2845C24.1032 23.5964 23.9293 23.6684 23.8011 23.7966C23.6729 23.9248 23.6009 24.0987 23.6009 24.28C23.6009 24.4613 23.6729 24.6352 23.8011 24.7634C23.9293 24.8916 24.1032 24.9636 24.2845 24.9636H38.5623C38.7436 24.9636 38.9175 24.8916 39.0457 24.7634C39.1739 24.6352 39.2459 24.4613 39.2459 24.28C39.2459 24.0987 39.1739 23.9248 39.0457 23.7966C38.9175 23.6684 38.7434 23.5964 38.5621 23.5964ZM45.6955 37.5912V43.9258C45.6942 44.923 45.2974 45.8791 44.5922 46.5842C43.887 47.2893 42.9309 47.6859 41.9337 47.6871H13.4059C12.4087 47.686 11.4526 47.2893 10.7473 46.5842C10.0421 45.8791 9.64532 44.923 9.64403 43.9258V27.5215L0.236509 19.3857C0.168578 19.327 0.112885 19.2555 0.0726104 19.1752C0.0323357 19.095 0.00826875 19.0075 0.00178454 18.918C-0.00469967 18.8284 0.00652591 18.7385 0.03482 18.6532C0.063114 18.568 0.107922 18.4892 0.166684 18.4213L13.8936 2.54883C13.9524 2.4809 14.0239 2.4252 14.1042 2.38493C14.1844 2.34465 14.2718 2.32059 14.3614 2.3141C14.451 2.30762 14.5409 2.31884 14.6262 2.34714C14.7114 2.37543 14.7902 2.42024 14.8581 2.479L19.7761 6.7332L28.6347 2.69531C28.7163 2.65804 28.8046 2.63724 28.8943 2.63408C28.9841 2.63092 29.0735 2.64547 29.1577 2.67691C29.2418 2.70834 29.3189 2.75603 29.3845 2.81727C29.4502 2.8785 29.5032 2.95208 29.5404 3.03379L32.226 8.92558H36.4615C36.6428 8.92564 36.8167 8.99764 36.945 9.12578L42.3981 14.579C42.4616 14.6425 42.512 14.7179 42.5464 14.8008C42.5807 14.8838 42.5984 14.9727 42.5984 15.0625V25.0181C44.1926 24.7975 45.812 25.1754 47.144 26.0787C48.476 26.9819 49.4262 28.3466 49.8112 29.9093C50.1962 31.4719 49.9886 33.1218 49.2286 34.5405C48.4687 35.9591 47.2097 37.046 45.6955 37.5912ZM41.2306 25.3602V15.7462H37.6847C37.179 15.7456 36.6942 15.5445 36.3367 15.1869C35.9791 14.8294 35.778 14.3446 35.7774 13.839V10.293H21.6161V24.0352L24.1867 26.5481C24.7693 27.1182 25.2289 27.5215 25.8401 27.5215H38.3146C39.0632 26.5403 40.0741 25.791 41.2306 25.3602ZM37.145 13.839C37.1452 13.9821 37.2021 14.1193 37.3033 14.2204C37.4045 14.3216 37.5416 14.3786 37.6847 14.3787H40.2638L37.145 11.2598V13.839ZM28.5797 4.22324L19.981 8.14297C19.9552 8.15676 19.9285 8.16889 19.9012 8.17929L10.7325 12.359L15.088 21.9163H18.2303C19.0804 21.9163 19.7313 22.3033 20.2481 22.7327V9.60937C20.2481 9.42807 20.3202 9.2542 20.4484 9.126C20.5765 8.9978 20.7504 8.92578 20.9317 8.92578H30.7227L28.5797 4.22324ZM9.64403 25.7136V25.1276C9.64537 24.2759 9.9845 23.4596 10.587 22.8576C11.1895 22.2556 12.0062 21.9173 12.8579 21.9167H13.5857L9.20467 12.3044C9.16742 12.2227 9.14663 12.1345 9.14349 12.0447C9.14035 11.955 9.15491 11.8655 9.18635 11.7814C9.21779 11.6973 9.2655 11.6202 9.32673 11.5546C9.38797 11.4889 9.46154 11.436 9.54325 11.3987L18.4072 7.35801L14.4806 3.96074L1.64823 18.7988L9.64403 25.7136ZM44.3282 37.9206C43.4099 38.0417 42.4763 37.9651 41.5901 37.696C40.7038 37.4268 39.8852 36.9714 39.1893 36.3601C38.4934 35.7489 37.9361 34.996 37.5549 34.1518C37.1737 33.3077 36.9773 32.3918 36.9789 31.4655C36.9782 30.5791 37.1596 29.7019 37.5119 28.8885H25.8399C24.6237 28.8885 23.8184 28.1006 23.2305 27.5254L20.4721 24.8291C20.4596 24.8177 20.4474 24.806 20.4358 24.7936L19.8869 24.2565C19.2836 23.6688 18.842 23.2832 18.2307 23.2832H12.8579C12.3687 23.2834 11.8996 23.4776 11.5534 23.8233C11.2073 24.1689 11.0124 24.6378 11.0115 25.1269V43.9258C11.0122 44.5606 11.2647 45.1692 11.7136 45.6181C12.1625 46.0669 12.7711 46.3194 13.4059 46.3201H41.9337C42.5685 46.3194 43.1771 46.067 43.6261 45.6181C44.075 45.1692 44.3275 44.5606 44.3282 43.9258V37.9206ZM48.6329 31.4661C48.6329 30.4489 48.3313 29.4546 47.7661 28.6088C47.201 27.763 46.3978 27.1038 45.458 26.7145C44.5183 26.3253 43.4842 26.2234 42.4865 26.4219C41.4888 26.6203 40.5724 27.1101 39.8532 27.8294C39.1339 28.5486 38.6441 29.465 38.4456 30.4627C38.2471 31.4603 38.349 32.4944 38.7382 33.4342C39.1275 34.374 39.7867 35.1772 40.6324 35.7424C41.4782 36.3075 42.4725 36.6092 43.4897 36.6092C44.8533 36.6076 46.1606 36.0653 47.1247 35.1011C48.0889 34.1369 48.6313 32.8297 48.6329 31.4661ZM40.6688 42.0513H14.6709C14.4896 42.0513 14.3157 42.1233 14.1875 42.2515C14.0593 42.3797 13.9873 42.5536 13.9873 42.7349C13.9873 42.9162 14.0593 43.09 14.1875 43.2182C14.3157 43.3464 14.4896 43.4185 14.6709 43.4185H40.6688C40.8501 43.4185 41.024 43.3464 41.1522 43.2182C41.2804 43.09 41.3524 42.9162 41.3524 42.7349C41.3524 42.5536 41.2804 42.3797 41.1522 42.2515C41.024 42.1233 40.8501 42.0513 40.6688 42.0513ZM14.6709 38.749H21.3392C21.5205 38.749 21.6944 38.677 21.8226 38.5488C21.9508 38.4206 22.0228 38.2467 22.0228 38.0654C22.0228 37.8841 21.9508 37.7103 21.8226 37.5821C21.6944 37.4538 21.5205 37.3818 21.3392 37.3818H14.6709C14.4896 37.3818 14.3157 37.4538 14.1875 37.5821C14.0593 37.7103 13.9873 37.8841 13.9873 38.0654C13.9873 38.2467 14.0593 38.4206 14.1875 38.5488C14.3157 38.677 14.4896 38.749 14.6709 38.749Z" fill="black"/>
</g>
<defs>
<clipPath id="clip0_311_3785">
<rect width="50" height="50" fill="white"/>
</clipPath>
</defs>
</svg>
