<svg width="16" height="17" viewBox="0 0 16 17" fill="none" xmlns="http://www.w3.org/2000/svg">
<path d="M13.354 6.85375L8.35403 11.8538C8.30759 11.9002 8.25245 11.9371 8.19175 11.9623C8.13105 11.9874 8.06599 12.0004 8.00028 12.0004C7.93457 12.0004 7.86951 11.9874 7.80881 11.9623C7.74811 11.9371 7.69296 11.9002 7.64653 11.8538L2.64653 6.85375C2.55271 6.75993 2.5 6.63269 2.5 6.5C2.5 6.36732 2.55271 6.24007 2.64653 6.14625C2.74035 6.05243 2.8676 5.99973 3.00028 5.99973C3.13296 5.99973 3.26021 6.05243 3.35403 6.14625L8.00028 10.7931L12.6465 6.14625C12.693 6.0998 12.7481 6.06295 12.8088 6.03781C12.8695 6.01267 12.9346 5.99973 13.0003 5.99973C13.066 5.99973 13.131 6.01267 13.1917 6.03781C13.2524 6.06295 13.3076 6.0998 13.354 6.14625C13.4005 6.19271 13.4373 6.24786 13.4625 6.30856C13.4876 6.36925 13.5006 6.43431 13.5006 6.5C13.5006 6.5657 13.4876 6.63076 13.4625 6.69145C13.4373 6.75215 13.4005 6.8073 13.354 6.85375Z" fill="black"/>
</svg>
