<svg width="18" height="18" viewBox="0 0 18 18" fill="none" xmlns="http://www.w3.org/2000/svg">
<path d="M15.1875 2.81255H2.8125C2.51413 2.81255 2.22798 2.93107 2.017 3.14205C1.80603 3.35303 1.6875 3.63918 1.6875 3.93755V14.0625C1.6875 14.3609 1.80603 14.6471 2.017 14.858C2.22798 15.069 2.51413 15.1875 2.8125 15.1875H15.1875C15.4859 15.1875 15.772 15.069 15.983 14.858C16.194 14.6471 16.3125 14.3609 16.3125 14.0625V3.93755C16.3125 3.63918 16.194 3.35303 15.983 3.14205C15.772 2.93107 15.4859 2.81255 15.1875 2.81255ZM6.75 8.43755C6.75 7.99254 6.88196 7.55752 7.12919 7.18751C7.37643 6.8175 7.72783 6.52911 8.13896 6.35882C8.5501 6.18852 9.0025 6.14396 9.43895 6.23078C9.87541 6.3176 10.2763 6.53189 10.591 6.84656C10.9057 7.16122 11.12 7.56214 11.2068 7.99859C11.2936 8.43505 11.249 8.88745 11.0787 9.29858C10.9084 9.70972 10.62 10.0611 10.25 10.3084C9.88002 10.5556 9.44501 10.6875 9 10.6875C8.40326 10.6875 7.83097 10.4505 7.40901 10.0285C6.98705 9.60658 6.75 9.03428 6.75 8.43755ZM5.10258 14.0625C5.49749 13.3783 6.06558 12.8101 6.74973 12.4151C7.43388 12.02 8.20998 11.812 9 11.812C9.79002 11.812 10.5661 12.02 11.2503 12.4151C11.9344 12.8101 12.5025 13.3783 12.8974 14.0625H5.10258ZM15.1875 14.0625H14.156C13.5623 12.7066 12.4588 11.6387 11.0841 11.0897C11.6362 10.6563 12.0395 10.0614 12.2377 9.38794C12.4359 8.7145 12.4192 7.99602 12.1898 7.33254C11.9605 6.66906 11.53 6.09359 10.9583 5.68627C10.3865 5.27896 9.702 5.06006 9 5.06006C8.298 5.06006 7.61348 5.27896 7.04173 5.68627C6.46999 6.09359 6.03948 6.66906 5.81016 7.33254C5.58084 7.99602 5.56411 8.7145 5.76231 9.38794C5.96051 10.0614 6.36377 10.6563 6.91594 11.0897C5.54122 11.6387 4.43774 12.7066 3.84398 14.0625H2.8125V3.93755H15.1875V14.0625Z" fill="black"/>
</svg>
