<svg width="50" height="50" viewBox="0 0 50 50" fill="none" xmlns="http://www.w3.org/2000/svg">
<path fill-rule="evenodd" clip-rule="evenodd" d="M10.3731 4.38715H35.852C36.0809 4.38715 36.2778 4.46879 36.4396 4.6306L41.1063 9.2972C41.2681 9.45902 41.3497 9.65599 41.3497 9.8849V44.7816C41.3497 45.2394 40.9764 45.6127 40.5186 45.6127H10.3731C9.91533 45.6127 9.54199 45.2394 9.54199 44.7816V5.2183C9.54209 4.76058 9.91543 4.38715 10.3731 4.38715Z" fill="#ECEFF1"/>
<path fill-rule="evenodd" clip-rule="evenodd" d="M10.3731 4.38715H11.8937V45.6127H10.3731C9.91533 45.6127 9.54199 45.2394 9.54199 44.7816V5.2183C9.54209 4.76058 9.91543 4.38715 10.3731 4.38715Z" fill="#D1D1D6"/>
<path fill-rule="evenodd" clip-rule="evenodd" d="M36.1963 4.45923C36.2846 4.49956 36.3658 4.55669 36.4397 4.63062L41.1063 9.29722C41.1803 9.37114 41.2374 9.45239 41.2777 9.54067H36.6119C36.383 9.54067 36.1964 9.35405 36.1964 9.12515V4.45923H36.1963Z" fill="#A79BA7"/>
<path fill-rule="evenodd" clip-rule="evenodd" d="M46.7277 40.9351C47.6687 40.9351 48.4386 41.705 48.4386 42.646V43.902C48.4386 44.8429 47.6687 45.6128 46.7277 45.6128H35.9745C35.0336 45.6128 34.2637 44.8429 34.2637 43.902V42.646C34.2637 41.705 35.0336 40.9351 35.9745 40.9351C35.0336 40.9351 34.2637 40.1653 34.2637 39.2243V37.9682C34.2637 37.0272 35.0336 36.2574 35.9745 36.2574C35.0336 36.2574 34.2637 35.4876 34.2637 34.5465V33.2905C34.2637 32.3495 35.0336 31.5797 35.9745 31.5797C35.0336 31.5797 34.2637 30.8098 34.2637 29.8688V28.6128C34.2637 27.6718 35.0336 26.9019 35.9745 26.9019H46.7276C47.6686 26.9019 48.4385 27.6717 48.4385 28.6128V29.8688C48.4385 30.8098 47.6686 31.5797 46.7276 31.5797C47.6686 31.5797 48.4385 32.3495 48.4385 33.2905V34.5465C48.4385 35.4875 47.6686 36.2574 46.7276 36.2574C47.6686 36.2574 48.4385 37.0272 48.4385 37.9682V39.2243C48.4386 40.1652 47.6687 40.9351 46.7277 40.9351Z" fill="#FFE177"/>
<path fill-rule="evenodd" clip-rule="evenodd" d="M46.7275 40.9351C47.6685 40.9351 48.4384 41.705 48.4384 42.646V43.902C48.4384 44.8429 47.6685 45.6128 46.7275 45.6128H45.3447C46.2856 45.6128 47.0556 44.8429 47.0556 43.902V42.646C47.0556 41.705 46.2857 40.9351 45.3447 40.9351C46.2856 40.9351 47.0556 40.1653 47.0556 39.2243V37.9682C47.0556 37.0272 46.2857 36.2574 45.3447 36.2574C46.2856 36.2574 47.0556 35.4876 47.0556 34.5465V33.2905C47.0556 32.3495 46.2857 31.5797 45.3447 31.5797C46.2856 31.5797 47.0556 30.8098 47.0556 29.8688V28.6128C47.0556 27.6718 46.2857 26.9019 45.3447 26.9019H46.7275C47.6685 26.9019 48.4384 27.6717 48.4384 28.6128V29.8688C48.4384 30.8098 47.6685 31.5797 46.7275 31.5797C47.6685 31.5797 48.4384 32.3495 48.4384 33.2905V34.5465C48.4384 35.4875 47.6685 36.2574 46.7275 36.2574C47.6685 36.2574 48.4384 37.0272 48.4384 37.9682V39.2243C48.4384 40.1652 47.6685 40.9351 46.7275 40.9351Z" fill="#FFD064"/>
<path fill-rule="evenodd" clip-rule="evenodd" d="M46.7277 31.5798H35.9745C35.0336 31.5798 34.2637 30.8099 34.2637 29.8689V28.6129C34.2637 27.672 35.0336 26.902 35.9745 26.902H46.7276C47.6686 26.902 48.4385 27.6719 48.4385 28.6129V29.8689C48.4386 30.8099 47.6687 31.5798 46.7277 31.5798ZM46.7277 40.9351H35.9745C35.0336 40.9351 34.2637 40.1653 34.2637 39.2243V37.9683C34.2637 37.0272 35.0336 36.2574 35.9745 36.2574H46.7276C47.6686 36.2574 48.4385 37.0272 48.4385 37.9683V39.2243C48.4386 40.1652 47.6687 40.9351 46.7277 40.9351Z" fill="#FFD064"/>
<path fill-rule="evenodd" clip-rule="evenodd" d="M46.7275 31.5798H45.3447C46.2856 31.5798 47.0556 30.8099 47.0556 29.8689V28.6129C47.0556 27.672 46.2857 26.902 45.3447 26.902H46.7275C47.6685 26.902 48.4384 27.6719 48.4384 28.6129V29.8689C48.4384 30.8099 47.6685 31.5798 46.7275 31.5798ZM46.7275 40.9351H45.3467C46.2867 40.9341 47.0556 40.1646 47.0556 39.2243V37.9683C47.0556 37.0272 46.2857 36.2574 45.3447 36.2574H46.7275C47.6685 36.2574 48.4384 37.0272 48.4384 37.9683V39.2243C48.4384 40.1652 47.6685 40.9351 46.7275 40.9351Z" fill="#FFC338"/>
<path fill-rule="evenodd" clip-rule="evenodd" d="M23.8371 22.0394H4.15166C2.72773 22.0394 1.5625 23.2046 1.5625 24.6285V31.7237H24.6257V22.8278C24.6256 22.3936 24.2714 22.0394 23.8371 22.0394Z" fill="#C48958"/>
<path fill-rule="evenodd" clip-rule="evenodd" d="M26.2964 27.2177H22.5241H4.15166C2.72764 27.2177 1.5625 26.0526 1.5625 24.6285V43.0237C1.5625 44.4478 2.72764 45.6129 4.15176 45.6129H26.2965C26.7309 45.6129 27.085 45.2587 27.085 44.8244V28.0062C27.085 27.5719 26.7308 27.2177 26.2964 27.2177Z" fill="#E3A76F"/>
<path fill-rule="evenodd" clip-rule="evenodd" d="M26.2969 27.2177H25.4858V43.2612C25.4858 43.6955 25.1316 44.0497 24.6974 44.0497H2.55254C2.26191 44.0497 1.98203 44.0011 1.7207 43.9118C2.08516 44.9018 3.03955 45.6129 4.15205 45.6129H26.2968C26.7311 45.6129 27.0853 45.2587 27.0853 44.8244V28.0061C27.0854 27.5718 26.7312 27.2177 26.2969 27.2177Z" fill="#C48958"/>
<path fill-rule="evenodd" clip-rule="evenodd" d="M27.0846 32.8275H20.2566C18.2834 32.8275 16.6689 34.442 16.6689 36.4152V36.4153C16.6689 38.3886 18.2834 40.003 20.2566 40.003H27.0846V32.8275Z" fill="#C48958"/>
<path fill-rule="evenodd" clip-rule="evenodd" d="M25.4854 32.8275H27.0849V40.003H25.4854V32.8275Z" fill="#B5733E"/>
<path d="M21.5767 36.9159C21.8481 36.2611 21.5373 35.5102 20.8825 35.2388C20.2276 34.9673 19.4768 35.2781 19.2053 35.933C18.9339 36.5878 19.2447 37.3387 19.8995 37.6101C20.5544 37.8815 21.3053 37.5707 21.5767 36.9159Z" fill="#ECEFF1"/>
<path fill-rule="evenodd" clip-rule="evenodd" d="M20.3809 35.132C20.4855 35.132 20.5872 35.1446 20.6846 35.1682C20.1225 35.3047 19.705 35.8111 19.705 36.4152C19.705 37.0192 20.1225 37.5258 20.6846 37.6622C20.5872 37.6858 20.4855 37.6984 20.3809 37.6984C19.6722 37.6984 19.0977 37.1239 19.0977 36.4152C19.0977 35.7065 19.6722 35.132 20.3809 35.132Z" fill="#D1D1D6"/>
<path fill-rule="evenodd" clip-rule="evenodd" d="M18.6736 17.4984L19.628 19.1515L22.1383 13.4423L15.6791 12.3117L16.5966 13.9009C10.5185 17.41 11.1049 23.0295 14.7054 25.1878C13.4861 20.8201 16.5342 18.7337 18.6736 17.4984Z" fill="#FFE177"/>
<path fill-rule="evenodd" clip-rule="evenodd" d="M19.1912 18.3955L19.6277 19.1516L22.138 13.4424L21.424 13.3174L19.1912 18.3955ZM12.5254 22.803C12.9867 23.7761 13.7366 24.6073 14.7052 25.1879C13.4859 20.8201 16.534 18.7337 18.6733 17.4985L18.2368 16.7425C16.0974 17.9776 13.0493 20.0641 14.2687 24.4318C13.562 24.0083 12.9722 23.451 12.5254 22.803Z" fill="#FFD064"/>
<path fill-rule="evenodd" clip-rule="evenodd" d="M47.6562 28.6129C47.6562 28.1002 47.2392 27.6831 46.7267 27.6831H35.9733C35.4609 27.6831 35.0438 28.1002 35.0438 28.6129V29.8687C35.0438 30.3814 35.4609 30.7985 35.9733 30.7985H46.7267C47.2392 30.7985 47.6562 30.3814 47.6562 29.8687V28.6129ZM47.6562 33.2905C47.6562 32.7782 47.2392 32.3611 46.7267 32.3611H35.9733C35.4609 32.3611 35.0438 32.7782 35.0438 33.2905V34.5464C35.0438 35.0591 35.4609 35.4761 35.9733 35.4761H46.7267C47.2392 35.4761 47.6562 35.0591 47.6562 34.5464V33.2905ZM47.6562 37.9686C47.6562 37.4558 47.2392 37.0387 46.7267 37.0387H35.9733C35.4609 37.0387 35.0438 37.4558 35.0438 37.9686V39.2245C35.0438 39.7368 35.4609 40.1539 35.9733 40.1539H46.7267C47.2392 40.1539 47.6562 39.7368 47.6562 39.2245V37.9686ZM47.6562 42.6463C47.6562 42.1336 47.2392 41.7165 46.7267 41.7165H35.9733C35.4609 41.7165 35.0438 42.1336 35.0438 42.6463V43.9021C35.0438 44.4148 35.4604 44.8305 35.9725 44.8315H46.7267C47.2392 44.8315 47.6562 44.4149 47.6562 43.9021V42.6463ZM4.15166 44.8315H24.1989H26.3035V40.7839H20.2568C17.8478 40.7839 15.888 38.8239 15.888 36.4157C15.888 34.0065 17.8478 32.0466 20.2568 32.0466H26.3034V27.9989H4.15166C3.48672 27.9989 2.8666 27.8044 2.34365 27.471V43.0228C2.34365 44.0203 3.15488 44.8315 4.15166 44.8315ZM2.34365 24.6286C2.34365 25.6256 3.15469 26.4363 4.15166 26.4363H23.8442V22.8205H15.2297C15.1688 23.461 15.234 24.1748 15.4582 24.9777C15.5442 25.2858 15.4338 25.6151 15.1794 25.8092C15.0401 25.9154 14.873 25.9692 14.7057 25.9692C14.5672 25.9692 14.4281 25.9324 14.304 25.8579C13.0874 25.1286 12.1813 24.0627 11.6774 22.8206H4.15166C3.15469 22.8205 2.34365 23.6316 2.34365 24.6286ZM16.9876 14.5775C17.3612 14.3619 17.4893 13.8841 17.2735 13.5101L17.1923 13.3694L21.0222 14.0398L19.5338 17.4253L19.3504 17.1075C19.2469 16.9282 19.0763 16.7971 18.8762 16.7437C18.6761 16.6899 18.4627 16.7179 18.2832 16.8219C17.0902 17.5102 15.7432 18.3923 14.7957 19.7126C14.051 20.75 13.6675 21.9097 13.647 23.1766C13.0854 22.3889 12.7785 21.4421 12.7865 20.4419C12.8047 18.2458 14.3358 16.1084 16.9876 14.5775ZM26.3034 33.6092V39.2213H20.2568C18.7095 39.2213 17.4504 37.9627 17.4504 36.4157C17.4504 34.8678 18.7095 33.6092 20.2568 33.6092H26.3034ZM10.3234 21.2579V5.21804C10.3234 5.19187 10.3472 5.16843 10.3733 5.16843H35.4151V9.12498C35.4151 9.78484 35.952 10.3216 36.6121 10.3216H40.5687V26.1209H35.9732C34.5992 26.1209 33.4811 27.2384 33.4811 28.6128V29.8686C33.4811 30.5308 33.7404 31.1332 34.163 31.5798C33.7404 32.0259 33.4811 32.6287 33.4811 33.2904V34.5463C33.4811 35.2085 33.7404 35.8099 34.163 36.2574C33.7404 36.7035 33.4811 37.3063 33.4811 37.9685V39.2244C33.4811 39.8861 33.7404 40.4881 34.163 40.935C33.7404 41.3815 33.4811 41.984 33.4811 42.6462V43.902C33.4811 44.2299 33.5457 44.5435 33.6618 44.8314H27.8659V27.2177C27.8659 26.7863 27.516 26.4364 27.0846 26.4364H25.4066V22.0397C25.4066 21.6079 25.0568 21.258 24.6254 21.258H15.6787C16.241 20.1442 17.2508 19.3017 18.3953 18.5784L18.9517 19.5423C19.0989 19.797 19.3767 19.9474 19.6709 19.9318C19.9649 19.9157 20.2249 19.7354 20.3435 19.466L22.8536 13.7568C22.9503 13.537 22.9405 13.285 22.8272 13.0735C22.7139 12.862 22.5097 12.7143 22.2732 12.6729L15.8143 11.5422C15.5149 11.4897 15.213 11.6158 15.0394 11.864C14.8653 12.1128 14.8513 12.4393 15.0028 12.7024L15.5405 13.6336C12.8078 15.4229 11.2452 17.8671 11.2241 20.4294C11.2218 20.7094 11.238 20.9862 11.2717 21.2581H10.3234V21.2579ZM36.9776 6.27302V8.75945H39.4639L36.9776 6.27302ZM49.2188 29.8687C49.2188 30.5309 48.9595 31.1333 48.5369 31.5799C48.9596 32.0259 49.2188 32.6288 49.2188 33.2905V34.5464C49.2188 35.2086 48.9595 35.81 48.5369 36.2575C48.9596 36.7036 49.2188 37.3064 49.2188 37.9686V39.2245C49.2188 39.8862 48.9595 40.4882 48.5369 40.9351C48.9596 41.3816 49.2188 41.9841 49.2188 42.6463V43.9021C49.2188 45.2761 48.101 46.3941 46.7267 46.3941H4.15166C2.29316 46.3941 0.78125 44.8826 0.78125 43.0229V24.6286C0.78125 22.7698 2.29316 21.2579 4.15166 21.2579H8.76103V5.21804C8.76103 4.32917 9.48418 3.60583 10.3734 3.60583H35.8523C36.2891 3.60583 36.6834 3.76912 36.9923 4.0781L41.6592 8.7447C41.9682 9.05378 42.1314 9.44783 42.1314 9.88474V26.1209H46.7268C48.1011 26.1209 49.2189 27.2384 49.2189 28.6128V29.8687H49.2188ZM19.8785 36.4157C19.8785 36.1384 20.1036 35.9135 20.3804 35.9135C20.6572 35.9135 20.8822 36.1385 20.8822 36.4157C20.8822 36.6921 20.6571 36.9178 20.3804 36.9178C20.1036 36.9178 19.8785 36.6921 19.8785 36.4157ZM20.3804 34.3513C21.5188 34.3513 22.4449 35.277 22.4449 36.4157C22.4449 37.5534 21.5188 38.48 20.3804 38.48C19.2421 38.48 18.3159 37.5534 18.3159 36.4157C18.3159 35.277 19.2421 34.3513 20.3804 34.3513ZM14.4057 10.9768H28.9736C29.4051 10.9768 29.7549 10.6268 29.7549 10.1955C29.7549 9.76414 29.4052 9.41423 28.9736 9.41423H14.4057C13.974 9.41423 13.6242 9.76423 13.6242 10.1955C13.6242 10.6267 13.9741 10.9768 14.4057 10.9768ZM23.1108 16.1172C23.1108 16.549 23.4606 16.8984 23.8922 16.8984H36.4865C36.9182 16.8984 37.2678 16.5489 37.2678 16.1172C37.2678 15.6858 36.9182 15.3363 36.4865 15.3363H23.8922C23.4605 15.3363 23.1108 15.6858 23.1108 16.1172ZM32.411 39.023H29.0378C28.6065 39.023 28.2566 39.3725 28.2566 39.8044C28.2566 40.2362 28.6065 40.5856 29.0378 40.5856H32.411C32.8425 40.5856 33.1923 40.2361 33.1923 39.8044C33.1923 39.3725 32.8425 39.023 32.411 39.023ZM29.0378 34.6636H32.3093C32.7407 34.6636 33.0905 34.3141 33.0905 33.8824C33.0905 33.451 32.7407 33.101 32.3093 33.101H29.0378C28.6065 33.101 28.2566 33.451 28.2566 33.8824C28.2565 34.3141 28.6064 34.6636 29.0378 34.6636ZM32.4391 27.1795H29.0377C28.6064 27.1795 28.2565 27.5294 28.2565 27.9607C28.2565 28.3921 28.6064 28.7421 29.0377 28.7421H32.4391C32.8707 28.7421 33.2203 28.3922 33.2203 27.9607C33.2203 27.5294 32.8707 27.1795 32.4391 27.1795ZM37.2678 22.0387C37.2678 21.6079 36.9182 21.2579 36.4865 21.2579H27.5553C27.1238 21.2579 26.774 21.6079 26.774 22.0387C26.774 22.4706 27.1238 22.8205 27.5553 22.8205H36.4865C36.9182 22.8205 37.2678 22.4705 37.2678 22.0387Z" fill="black"/>
</svg>
