<svg width="22" height="22" viewBox="0 0 22 22" fill="none" xmlns="http://www.w3.org/2000/svg">
<g clip-path="url(#clip0_462_1195)">
<path d="M20.955 10.2781C20.9262 10.213 20.2284 8.66506 18.6771 7.11379C16.6101 5.0468 13.9994 3.95441 11.1259 3.95441C8.25241 3.95441 5.6417 5.0468 3.57471 7.11379C2.02344 8.66506 1.32237 10.2155 1.29683 10.2781C1.25935 10.3624 1.23999 10.4536 1.23999 10.5459C1.23999 10.6381 1.25935 10.7293 1.29683 10.8136C1.32566 10.8787 2.02344 12.4258 3.57471 13.9771C5.6417 16.0433 8.25241 17.1357 11.1259 17.1357C13.9994 17.1357 16.6101 16.0433 18.6771 13.9771C20.2284 12.4258 20.9262 10.8787 20.955 10.8136C20.9925 10.7293 21.0119 10.6381 21.0119 10.5459C21.0119 10.4536 20.9925 10.3624 20.955 10.2781ZM11.1259 13.8403C10.4742 13.8403 9.83705 13.6471 9.29514 13.285C8.75323 12.9229 8.33086 12.4082 8.08145 11.8061C7.83203 11.204 7.76678 10.5414 7.89393 9.90215C8.02108 9.26292 8.33492 8.67575 8.79578 8.21489C9.25664 7.75404 9.84381 7.44019 10.483 7.31304C11.1223 7.18589 11.7848 7.25115 12.387 7.50056C12.9891 7.74997 13.5038 8.17234 13.8659 8.71425C14.228 9.25617 14.4212 9.89328 14.4212 10.545C14.4212 11.419 14.074 12.2572 13.4561 12.8752C12.8381 13.4932 11.9999 13.8403 11.1259 13.8403Z" fill="black"/>
</g>
<defs>
<clipPath id="clip0_462_1195">
<rect width="21.09" height="21.09" fill="white" transform="translate(0.581055)"/>
</clipPath>
</defs>
</svg>
