<svg width="22" height="22" viewBox="0 0 22 22" fill="none" xmlns="http://www.w3.org/2000/svg">
<path d="M10.465 12.8546C11.0769 12.8546 11.6638 12.6115 12.0965 12.1789C12.5291 11.7462 12.7722 11.1593 12.7722 10.5474C12.7722 10.4798 12.7691 10.4129 12.7634 10.3467L10.2643 12.8458C10.3305 12.8515 10.3972 12.8546 10.465 12.8546ZM18.102 3.41061L17.2219 2.53139C17.191 2.5005 17.1491 2.48315 17.1054 2.48315C17.0617 2.48315 17.0198 2.5005 16.9889 2.53139L14.7369 4.78403C13.4945 4.14913 12.098 3.83168 10.5474 3.83168C6.588 3.83168 3.63391 5.89377 1.68512 10.018C1.60679 10.1838 1.56616 10.365 1.56616 10.5484C1.56616 10.7319 1.60679 10.913 1.68512 11.0789C2.46381 12.7191 3.40147 14.0337 4.4981 15.0228L2.31879 17.2013C2.2879 17.2322 2.27055 17.2741 2.27055 17.3178C2.27055 17.3615 2.2879 17.4034 2.31879 17.4343L3.19822 18.3137C3.22912 18.3446 3.27102 18.362 3.31471 18.362C3.3584 18.362 3.4003 18.3446 3.43121 18.3137L18.102 3.6438C18.1173 3.6285 18.1294 3.61032 18.1377 3.59032C18.146 3.57031 18.1503 3.54886 18.1503 3.52721C18.1503 3.50555 18.146 3.4841 18.1377 3.4641C18.1294 3.44409 18.1173 3.42591 18.102 3.41061ZM6.83933 10.5474C6.83927 9.92115 7.00142 9.30558 7.30998 8.76063C7.61854 8.21569 8.06299 7.75995 8.60003 7.43783C9.13706 7.11571 9.74838 6.93818 10.3744 6.92253C11.0005 6.90689 11.6199 7.05367 12.1723 7.34857L11.1708 8.35016C10.7668 8.22082 10.3351 8.20524 9.92287 8.30514C9.51067 8.40503 9.13395 8.61654 8.83404 8.91644C8.53413 9.21635 8.32263 9.59307 8.22273 10.0053C8.12284 10.4175 8.13842 10.8492 8.26776 11.2532L7.26617 12.2547C6.9851 11.7296 6.83845 11.143 6.83933 10.5474Z" fill="black"/>
<path d="M19.4095 10.0159C18.6844 8.48873 17.8213 7.24344 16.8203 6.28003L13.8509 9.24957C14.1012 9.90387 14.1567 10.6167 14.0107 11.3018C13.8646 11.9869 13.5233 12.6151 13.028 13.1105C12.5326 13.6059 11.9044 13.9472 11.2193 14.0932C10.5341 14.2393 9.82133 14.1838 9.16703 13.9335L6.64844 16.4521C7.81689 16.9928 9.11649 17.2631 10.5473 17.2631C14.5066 17.2631 17.4607 15.201 19.4095 11.0768C19.4879 10.911 19.5285 10.7298 19.5285 10.5464C19.5285 10.3629 19.4879 10.1818 19.4095 10.0159Z" fill="black"/>
</svg>
