<svg width="22" height="22" viewBox="0 0 22 22" fill="none" xmlns="http://www.w3.org/2000/svg">
<mask id="mask0_316_567" style="mask-type:alpha" maskUnits="userSpaceOnUse" x="3" y="5" width="16" height="12">
<path fill-rule="evenodd" clip-rule="evenodd" d="M3.11523 6.61918C3.11523 7.10107 3.50951 7.49535 3.9914 7.49535H18.0101C18.492 7.49535 18.8863 7.10107 18.8863 6.61918C18.8863 6.13729 18.492 5.74301 18.0101 5.74301H3.9914C3.50951 5.74301 3.11523 6.13729 3.11523 6.61918ZM10.1247 16.257H11.877C12.3589 16.257 12.7532 15.8627 12.7532 15.3809C12.7532 14.899 12.3589 14.5047 11.877 14.5047H10.1247C9.64277 14.5047 9.2485 14.899 9.2485 15.3809C9.2485 15.8627 9.64277 16.257 10.1247 16.257ZM15.3817 11.8762H6.61999C6.1381 11.8762 5.74383 11.4819 5.74383 11C5.74383 10.5181 6.1381 10.1238 6.61999 10.1238H15.3817C15.8636 10.1238 16.2578 10.5181 16.2578 11C16.2578 11.4819 15.8636 11.8762 15.3817 11.8762Z" fill="black"/>
</mask>
<g mask="url(#mask0_316_567)">
<rect x="0.486328" y="0.485992" width="21.028" height="21.028" rx="10.514" fill="url(#paint0_linear_316_567)"/>
</g>
<defs>
<linearGradient id="paint0_linear_316_567" x1="0.486328" y1="11" x2="21.5144" y2="11" gradientUnits="userSpaceOnUse">
<stop stop-color="#F90280"/>
<stop offset="1" stop-color="#FA6C07"/>
</linearGradient>
</defs>
</svg>
