<svg width="24" height="24" viewBox="0 0 24 24" fill="none" xmlns="http://www.w3.org/2000/svg">
<path d="M13.5984 19.6816C13.9312 19.6832 14.2016 19.4144 14.2016 19.0816V14.816L15.42 15.788C16.0344 16.2736 16.7808 15.3424 16.168 14.8496L13.976 13.1008C13.7576 12.9328 13.444 12.936 13.2256 13.1016L11.0336 14.8504C10.4232 15.3408 11.1648 16.276 11.7816 15.7888L13 14.8168V19.08C12.9992 19.4112 13.2672 19.6808 13.5984 19.6816Z" fill="black"/>
<path d="M20.0017 5.35279H13.8793C12.9953 5.35519 12.1705 4.90559 11.6929 4.16159L10.8769 2.89279C10.1801 1.80319 8.97526 1.14479 7.68166 1.14719H4.00166C1.90406 1.14959 0.20406 2.84959 0.20166 4.94719V16.656C0.20966 17.4384 1.39526 17.4432 1.40166 16.656V4.94719C1.40326 3.51199 2.56646 2.34879 4.00166 2.34719H7.68166C8.56646 2.34559 9.39046 2.79519 9.86806 3.53999L10.6841 4.80959C11.3817 5.89839 12.5865 6.55519 13.8793 6.55279H20.0017C21.4369 6.55439 22.6001 7.71759 22.6017 9.15279V18.256C22.5993 20.1328 21.0785 21.6536 19.2017 21.656H4.80166H4.29446C3.65206 21.66 3.16486 21.0216 3.33446 20.4032L5.28406 12.9392C5.58246 11.7936 6.61766 10.9936 7.80166 10.9936H20.8017C21.5801 10.9928 21.5913 9.79599 20.8017 9.79359H7.80166C6.07206 9.79199 4.55926 10.9592 4.12166 12.6328L2.17206 20.0968C1.79526 21.46 2.87526 22.8624 4.28726 22.8528H19.1985C21.7377 22.8496 23.7953 20.792 23.7985 18.2528V9.15279C23.7961 7.05679 22.0977 5.35679 20.0017 5.35279Z" fill="black"/>
</svg>
