<svg width="24" height="24" viewBox="0 0 24 24" fill="none" xmlns="http://www.w3.org/2000/svg">
<path d="M2.50098 4.48462V17.9158C2.50206 18.9059 2.89588 19.8552 3.59603 20.5554C4.29618 21.2555 5.24547 21.6493 6.23562 21.6504H10.7891C10.988 21.6504 11.1788 21.5714 11.3194 21.4307C11.4601 21.2901 11.5391 21.0993 11.5391 20.9004C11.5391 20.7015 11.4601 20.5107 11.3194 20.3701C11.1788 20.2294 10.988 20.1504 10.7891 20.1504H6.23562C5.64318 20.1497 5.07519 19.9141 4.65626 19.4951C4.23733 19.0762 4.00167 18.5082 4.00098 17.9158V4.48462C4.0016 3.89215 4.23724 3.32412 4.65618 2.90519C5.07513 2.48625 5.64315 2.25062 6.23562 2.25H15.7424C16.3349 2.25063 16.9029 2.48626 17.3219 2.9052C17.7408 3.32413 17.9764 3.89215 17.9771 4.48462V10.3341C17.9771 10.533 18.0561 10.7238 18.1967 10.8644C18.3374 11.0051 18.5281 11.0841 18.7271 11.0841C18.926 11.0841 19.1167 11.0051 19.2574 10.8644C19.398 10.7238 19.4771 10.533 19.4771 10.3341V4.48462C19.4759 3.49449 19.0821 2.54524 18.3819 1.84511C17.6818 1.14498 16.7326 0.751145 15.7424 0.75H6.23562C5.24549 0.751137 4.29623 1.14497 3.5961 1.8451C2.89596 2.54523 2.50212 3.49448 2.50098 4.48462Z" fill="black"/>
<path d="M7.02979 5.97217H14.948C15.1469 5.97217 15.3377 5.89315 15.4784 5.7525C15.619 5.61185 15.698 5.42108 15.698 5.22217C15.698 5.02326 15.619 4.83249 15.4784 4.69184C15.3377 4.55119 15.1469 4.47217 14.948 4.47217H7.02979C6.83087 4.47217 6.64011 4.55119 6.49946 4.69184C6.3588 4.83249 6.27979 5.02326 6.27979 5.22217C6.27979 5.42108 6.3588 5.61185 6.49946 5.7525C6.64011 5.89315 6.83087 5.97217 7.02979 5.97217Z" fill="black"/>
<path d="M15.698 9.20728C15.698 9.00836 15.619 8.8176 15.4784 8.67695C15.3377 8.53629 15.1469 8.45728 14.948 8.45728H7.02979C6.83087 8.45728 6.64011 8.53629 6.49946 8.67695C6.3588 8.8176 6.27979 9.00836 6.27979 9.20728C6.27979 9.40619 6.3588 9.59695 6.49946 9.73761C6.64011 9.87826 6.83087 9.95728 7.02979 9.95728H14.948C15.1469 9.95727 15.3377 9.87824 15.4783 9.73759C15.619 9.59694 15.698 9.40618 15.698 9.20728Z" fill="black"/>
<path d="M7.02979 12.4431C6.83087 12.4431 6.64011 12.5221 6.49946 12.6628C6.3588 12.8034 6.27979 12.9942 6.27979 13.1931C6.27979 13.392 6.3588 13.5828 6.49946 13.7234C6.64011 13.8641 6.83087 13.9431 7.02979 13.9431H10.6293C10.8282 13.9431 11.0189 13.8641 11.1596 13.7234C11.3003 13.5828 11.3793 13.392 11.3793 13.1931C11.3793 12.9942 11.3003 12.8034 11.1596 12.6628C11.0189 12.5221 10.8282 12.4431 10.6293 12.4431H7.02979Z" fill="black"/>
<path d="M16.9211 11.5968C16.4093 11.5968 15.909 11.7486 15.4835 12.033C15.058 12.3174 14.7263 12.7215 14.5304 13.1944C14.3346 13.6673 14.2834 14.1876 14.3832 14.6895C14.4831 15.1915 14.7296 15.6526 15.0915 16.0145C15.4534 16.3764 15.9144 16.6229 16.4164 16.7227C16.9184 16.8226 17.4387 16.7714 17.9116 16.5755C18.3844 16.3797 18.7886 16.048 19.073 15.6225C19.3573 15.1969 19.5091 14.6966 19.5092 14.1848C19.5084 13.4987 19.2354 12.8409 18.7503 12.3557C18.2651 11.8705 17.6073 11.5976 16.9211 11.5968ZM16.9211 15.2725C16.706 15.2724 16.4958 15.2085 16.317 15.089C16.1382 14.9694 15.9988 14.7995 15.9165 14.6008C15.8343 14.402 15.8128 14.1834 15.8548 13.9724C15.8968 13.7614 16.0004 13.5677 16.1526 13.4156C16.3047 13.2635 16.4985 13.16 16.7095 13.118C16.9204 13.0761 17.1391 13.0977 17.3378 13.18C17.5365 13.2623 17.7064 13.4017 17.8259 13.5806C17.9454 13.7594 18.0092 13.9697 18.0092 14.1848C18.0088 14.4732 17.894 14.7497 17.6901 14.9536C17.4861 15.1575 17.2096 15.2722 16.9211 15.2725Z" fill="black"/>
<path d="M13.0938 23.25C13.1922 23.25 13.2898 23.2306 13.3808 23.193C13.4718 23.1553 13.5545 23.1 13.6241 23.0304C13.6938 22.9607 13.749 22.878 13.7867 22.787C13.8244 22.696 13.8438 22.5985 13.8438 22.5C13.8438 21.6837 14.168 20.9009 14.7452 20.3237C15.3224 19.7464 16.1053 19.4222 16.9216 19.4222C17.7379 19.4222 18.5207 19.7464 19.0979 20.3237C19.6751 20.9009 19.9994 21.6837 19.9994 22.5C19.9994 22.6989 20.0784 22.8897 20.2191 23.0303C20.3597 23.171 20.5505 23.25 20.7494 23.25C20.9483 23.25 21.1391 23.171 21.2797 23.0303C21.4204 22.8897 21.4994 22.6989 21.4994 22.5C21.4994 21.2859 21.0171 20.1215 20.1586 19.263C19.3001 18.4045 18.1357 17.9222 16.9216 17.9222C15.7075 17.9222 14.5431 18.4045 13.6846 19.263C12.8261 20.1215 12.3438 21.2859 12.3438 22.5C12.3437 22.5985 12.3631 22.696 12.4008 22.787C12.4385 22.878 12.4937 22.9607 12.5634 23.0304C12.633 23.1 12.7157 23.1553 12.8067 23.193C12.8977 23.2306 12.9953 23.25 13.0938 23.25Z" fill="black"/>
</svg>
