<svg width="24" height="25" viewBox="0 0 24 25" fill="none" xmlns="http://www.w3.org/2000/svg">
<g clip-path="url(#clip0_311_2165)">
<path d="M9.75 5H5.25C4.83579 5 4.5 5.33579 4.5 5.75V10.25C4.5 10.6642 4.83579 11 5.25 11H9.75C10.1642 11 10.5 10.6642 10.5 10.25V5.75C10.5 5.33579 10.1642 5 9.75 5Z" stroke="url(#paint0_linear_311_2165)" stroke-width="1.5" stroke-linecap="round" stroke-linejoin="round"/>
<path d="M18.75 5H14.25C13.8358 5 13.5 5.33579 13.5 5.75V10.25C13.5 10.6642 13.8358 11 14.25 11H18.75C19.1642 11 19.5 10.6642 19.5 10.25V5.75C19.5 5.33579 19.1642 5 18.75 5Z" stroke="url(#paint1_linear_311_2165)" stroke-width="1.5" stroke-linecap="round" stroke-linejoin="round"/>
<path d="M9.75 14H5.25C4.83579 14 4.5 14.3358 4.5 14.75V19.25C4.5 19.6642 4.83579 20 5.25 20H9.75C10.1642 20 10.5 19.6642 10.5 19.25V14.75C10.5 14.3358 10.1642 14 9.75 14Z" stroke="url(#paint2_linear_311_2165)" stroke-width="1.5" stroke-linecap="round" stroke-linejoin="round"/>
<path d="M18.75 14H14.25C13.8358 14 13.5 14.3358 13.5 14.75V19.25C13.5 19.6642 13.8358 20 14.25 20H18.75C19.1642 20 19.5 19.6642 19.5 19.25V14.75C19.5 14.3358 19.1642 14 18.75 14Z" stroke="url(#paint3_linear_311_2165)" stroke-width="1.5" stroke-linecap="round" stroke-linejoin="round"/>
</g>
<defs>
<linearGradient id="paint0_linear_311_2165" x1="4.5" y1="8" x2="10.5" y2="8" gradientUnits="userSpaceOnUse">
<stop stop-color="#F90280"/>
<stop offset="1" stop-color="#FA6C07"/>
</linearGradient>
<linearGradient id="paint1_linear_311_2165" x1="13.5" y1="8" x2="19.5" y2="8" gradientUnits="userSpaceOnUse">
<stop stop-color="#F90280"/>
<stop offset="1" stop-color="#FA6C07"/>
</linearGradient>
<linearGradient id="paint2_linear_311_2165" x1="4.5" y1="17" x2="10.5" y2="17" gradientUnits="userSpaceOnUse">
<stop stop-color="#F90280"/>
<stop offset="1" stop-color="#FA6C07"/>
</linearGradient>
<linearGradient id="paint3_linear_311_2165" x1="13.5" y1="17" x2="19.5" y2="17" gradientUnits="userSpaceOnUse">
<stop stop-color="#F90280"/>
<stop offset="1" stop-color="#FA6C07"/>
</linearGradient>
<clipPath id="clip0_311_2165">
<rect width="24" height="24" fill="white" transform="translate(0 0.5)"/>
</clipPath>
</defs>
</svg>
