<svg width="18" height="18" viewBox="0 0 18 18" fill="none" xmlns="http://www.w3.org/2000/svg">
<path d="M9.90127 1.91049L9.90131 1.91053L15.5259 7.53513C15.526 7.5352 15.526 7.53526 15.5261 7.53533C15.6451 7.65349 15.7394 7.79411 15.8036 7.94904C15.8678 8.10396 15.9006 8.2701 15.9 8.43779V8.43753H15.75L15.9 8.43806L15.9 15.1875C15.9 15.3765 15.8249 15.5577 15.6913 15.6913C15.5577 15.825 15.3765 15.9 15.1875 15.9H10.6875C10.4985 15.9 10.3173 15.825 10.1837 15.6913C10.0501 15.5577 9.97501 15.3765 9.97501 15.1875V11.4H8.02501V15.1875C8.02501 15.3765 7.94994 15.5577 7.81632 15.6913C7.6827 15.825 7.50147 15.9 7.31251 15.9H2.81251C2.62354 15.9 2.44231 15.825 2.30869 15.6913L2.41435 15.5857L2.30869 15.6913C2.17507 15.5577 2.10001 15.3765 2.10001 15.1875V8.43779V8.43753H2.25001C2.24948 8.28963 2.27836 8.14309 2.33498 8.00645C2.39159 7.86981 2.4748 7.74579 2.57977 7.64159L9.90127 1.91049ZM9.90127 1.91049C9.66219 1.67156 9.33801 1.53735 9.00001 1.53735C8.662 1.53735 8.33783 1.67156 8.09874 1.91049L8.09871 1.91053L2.4741 7.53513C2.47403 7.5352 2.47396 7.53527 2.47389 7.53534L9.90127 1.91049ZM14.475 14.475H11.4V10.6875C11.4 10.4986 11.3249 10.3173 11.1913 10.1837C11.0577 10.0501 10.8765 9.97503 10.6875 9.97503H7.31251C7.12354 9.97503 6.94231 10.0501 6.80869 10.1837C6.67507 10.3173 6.60001 10.4986 6.60001 10.6875V14.475H3.52501V8.49966L9.00001 3.02466L14.475 8.49966V14.475Z" fill="black" stroke="black" stroke-width="0.3"/>
</svg>
