<svg width="16" height="4" viewBox="0 0 16 4" fill="none" xmlns="http://www.w3.org/2000/svg">
<path fill-rule="evenodd" clip-rule="evenodd" d="M9.73588 1.75234C9.73588 2.72013 8.86416 3.50467 7.78884 3.50467C6.71352 3.50467 5.8418 2.72013 5.8418 1.75234C5.8418 0.784548 6.71352 0 7.78884 0C8.86416 0 9.73588 0.784548 9.73588 1.75234ZM3.89408 1.75235C3.89408 2.72014 3.02236 3.50469 1.94704 3.50469C0.87172 3.50469 0 2.72014 0 1.75235C0 0.784563 0.87172 1.52588e-05 1.94704 1.52588e-05C3.02236 1.52588e-05 3.89408 0.784563 3.89408 1.75235ZM13.6287 3.50467C14.704 3.50467 15.5757 2.72013 15.5757 1.75234C15.5757 0.784548 14.704 0 13.6287 0C12.5534 0 11.6816 0.784548 11.6816 1.75234C11.6816 2.72013 12.5534 3.50467 13.6287 3.50467Z" fill="white"/>
</svg>
