<svg width="18" height="18" viewBox="0 0 18 18" fill="none" xmlns="http://www.w3.org/2000/svg">
<path d="M9 1.68756C7.55373 1.68756 6.13993 2.11643 4.9374 2.91994C3.73486 3.72345 2.7976 4.8655 2.24413 6.20169C1.69067 7.53787 1.54586 9.00817 1.82801 10.4267C2.11017 11.8451 2.80661 13.1481 3.82928 14.1708C4.85196 15.1935 6.15492 15.8899 7.57341 16.1721C8.99189 16.4542 10.4622 16.3094 11.7984 15.7559C13.1346 15.2025 14.2766 14.2652 15.0801 13.0627C15.8836 11.8601 16.3125 10.4463 16.3125 9.00006C16.3105 7.06129 15.5394 5.20252 14.1685 3.8316C12.7975 2.46069 10.9388 1.68961 9 1.68756ZM9 15.1876C7.77623 15.1876 6.57994 14.8247 5.56241 14.1448C4.54488 13.4649 3.75182 12.4985 3.2835 11.3679C2.81518 10.2373 2.69265 8.9932 2.93139 7.79294C3.17014 6.59268 3.75944 5.49018 4.62478 4.62484C5.49012 3.7595 6.59262 3.1702 7.79288 2.93145C8.99314 2.69271 10.2372 2.81524 11.3679 3.28356C12.4985 3.75187 13.4648 4.54494 14.1447 5.56247C14.8246 6.58 15.1875 7.77629 15.1875 9.00006C15.1856 10.6405 14.5331 12.2133 13.3732 13.3732C12.2132 14.5332 10.6405 15.1857 9 15.1876ZM10.125 12.3751C10.125 12.5242 10.0657 12.6673 9.96025 12.7728C9.85476 12.8783 9.71169 12.9376 9.5625 12.9376C9.26413 12.9376 8.97799 12.819 8.76701 12.6081C8.55603 12.3971 8.4375 12.1109 8.4375 11.8126V9.00006C8.28832 9.00006 8.14525 8.9408 8.03976 8.83531C7.93427 8.72982 7.875 8.58675 7.875 8.43756C7.875 8.28838 7.93427 8.1453 8.03976 8.03981C8.14525 7.93432 8.28832 7.87506 8.4375 7.87506C8.73587 7.87506 9.02202 7.99359 9.233 8.20457C9.44398 8.41554 9.5625 8.70169 9.5625 9.00006V11.8126C9.71169 11.8126 9.85476 11.8718 9.96025 11.9773C10.0657 12.0828 10.125 12.2259 10.125 12.3751ZM7.875 5.90631C7.875 5.73943 7.92449 5.5763 8.0172 5.43755C8.10991 5.29879 8.24169 5.19065 8.39586 5.12679C8.55004 5.06293 8.71969 5.04622 8.88336 5.07877C9.04703 5.11133 9.19737 5.19169 9.31537 5.30969C9.43337 5.42769 9.51373 5.57803 9.54629 5.7417C9.57885 5.90538 9.56214 6.07503 9.49828 6.2292C9.43441 6.38338 9.32627 6.51515 9.18752 6.60786C9.04876 6.70058 8.88563 6.75006 8.71875 6.75006C8.49498 6.75006 8.28037 6.66117 8.12213 6.50293C7.9639 6.3447 7.875 6.13009 7.875 5.90631Z" fill="black"/>
</svg>
