<svg width="80" height="80" viewBox="0 0 80 80" fill="none" xmlns="http://www.w3.org/2000/svg">
<path d="M6.18203 11.1919H31.2325C33.9995 11.1919 36.2427 13.4351 36.2427 16.2021V63.7979C36.2427 66.5649 33.9995 68.808 31.2325 68.808H6.18203C3.415 68.808 1.17188 66.5649 1.17188 63.7979V16.2021C1.17188 13.4351 3.415 11.1919 6.18203 11.1919Z" fill="#95D6A4"/>
<path d="M32.4847 41.2523H4.9292V19.9595C4.9292 17.1924 7.17232 14.9493 9.93936 14.9493H27.4747C30.2417 14.9493 32.4848 17.1924 32.4848 19.9595V41.2523H32.4847Z" fill="#B3E59F"/>
<path d="M19.9596 29.9796H17.4546C13.9958 29.9796 11.1919 32.7836 11.1919 36.2423V43.6717H26.2222V36.2423C26.2222 32.7836 23.4183 29.9796 19.9596 29.9796Z" fill="#6F6571"/>
<path d="M31.2323 68.8078H6.18203C3.415 68.8078 1.17188 66.5646 1.17188 63.7976V41.2523H36.2425V63.7976C36.2425 66.5646 33.9994 68.8078 31.2323 68.8078Z" fill="#FFF5D7"/>
<path d="M4.9292 41.2523H32.4847V60.0401C32.4847 62.8071 30.2415 65.0503 27.4745 65.0503H9.93936C7.17232 65.0503 4.9292 62.8071 4.9292 60.0401V41.2523Z" fill="white"/>
<path d="M18.7072 26.2221C16.6319 26.2221 14.9497 24.5398 14.9497 22.4646V19.9596C14.9497 19.2679 15.5105 18.7071 16.2022 18.7071H21.2124C21.9041 18.7071 22.4649 19.2679 22.4649 19.9596V22.4646C22.4647 24.5398 20.7824 26.2221 18.7072 26.2221Z" fill="#FFF5D7"/>
<path d="M17.4546 63.7976H75.0705C77.1458 63.7976 78.828 62.1153 78.828 60.0401V43.7573C78.828 41.682 77.1457 39.9998 75.0705 39.9998H26.2222C24.1469 39.9998 22.4647 41.6821 22.4647 43.7573V58.7874L17.4546 63.7976Z" fill="#F6D190"/>
<path d="M28.7272 60.0401C27.346 60.0401 26.2222 58.9164 26.2222 57.5351V39.9998C24.1469 39.9998 22.4647 41.6821 22.4647 43.7573V58.7874L17.4546 63.7976H75.0705C77.1458 63.7976 78.828 62.1153 78.828 60.0401H28.7272Z" fill="#ECBD83"/>
<path d="M51.8362 46.3929C51.8321 46.3821 51.8279 46.3713 51.8236 46.3607C51.6062 45.8326 51.0972 45.4915 50.5261 45.4915C50.5256 45.4915 50.5251 45.4915 50.5247 45.4915C49.9531 45.4919 49.4439 45.8343 49.2275 46.3633C49.2239 46.3722 49.2203 46.381 49.217 46.3899L45.3867 56.4466C45.1562 57.0515 45.4598 57.7285 46.0647 57.9588C46.6695 58.1891 47.3465 57.8855 47.5768 57.2808L48.2434 55.531H52.7796L53.4387 57.2775C53.6159 57.7468 54.0617 58.036 54.5354 58.036C54.6728 58.036 54.8128 58.0116 54.9489 57.9602C55.5543 57.7318 55.8601 57.0555 55.6315 56.4501L51.8362 46.3929ZM49.1361 53.1871L50.522 49.5482L51.8953 53.1871H49.1361Z" fill="black"/>
<path d="M33.552 55.6833C33.5498 55.6833 33.5475 55.6833 33.5453 55.6833C32.717 55.688 31.8276 55.6913 31.1519 55.6919V46.6635C31.1519 46.0163 30.6272 45.4916 29.98 45.4916C29.3328 45.4916 28.8081 46.0163 28.8081 46.6635V56.8554C28.8081 57.4261 29.2195 57.914 29.7822 58.0104C29.8659 58.0247 29.9339 58.0364 31.0598 58.0364C31.6045 58.0364 32.397 58.0336 33.5584 58.0272C34.2056 58.0236 34.7273 57.496 34.7237 56.8488C34.7201 56.2036 34.1961 55.6833 33.552 55.6833Z" fill="black"/>
<path d="M72.2172 47.8818C72.8644 47.8818 73.3891 47.3571 73.3891 46.7099C73.3891 46.0627 72.8644 45.538 72.2172 45.538H67.9585C67.3113 45.538 66.7866 46.0627 66.7866 46.7099V56.8173C66.7866 57.4644 67.3113 57.9891 67.9585 57.9891H72.2172C72.8644 57.9891 73.3891 57.4644 73.3891 56.8173C73.3891 56.1701 72.8644 55.6454 72.2172 55.6454H69.1304V52.9355H71.9033C72.5505 52.9355 73.0752 52.4108 73.0752 51.7637C73.0752 51.1165 72.5505 50.5918 71.9033 50.5918H69.1304V47.8819H72.2172V47.8818Z" fill="black"/>
<path d="M42.1977 47.8818C42.8449 47.8818 43.3696 47.3571 43.3696 46.7099C43.3696 46.0627 42.8449 45.538 42.1977 45.538H37.939C37.2918 45.538 36.7671 46.0627 36.7671 46.7099V56.8173C36.7671 57.4644 37.2918 57.9891 37.939 57.9891H42.1977C42.8449 57.9891 43.3696 57.4644 43.3696 56.8173C43.3696 56.1701 42.8449 55.6454 42.1977 55.6454H39.1108V52.9355H41.8838C42.531 52.9355 43.0557 52.4108 43.0557 51.7637C43.0557 51.1165 42.531 50.5918 41.8838 50.5918H39.1108V47.8819H42.1977V47.8818Z" fill="black"/>
<path d="M64.0075 45.5699C63.3933 45.3657 62.73 45.6983 62.526 46.3125L60.07 53.7054L57.4922 46.279C57.28 45.6674 56.6121 45.3443 56.0008 45.5561C55.3894 45.7683 55.0658 46.4361 55.278 47.0475L58.7683 57.1025C58.9667 57.6616 59.4969 58.0355 60.0896 58.0355H60.0991C60.6955 58.0316 61.2252 57.6494 61.4199 57.0769L64.7503 47.0515C64.9542 46.4374 64.6217 45.7741 64.0075 45.5699Z" fill="black"/>
<path d="M75.0706 38.8281H27.3942V36.2425C27.3942 32.1431 24.0591 28.808 19.9597 28.808H17.4547C13.3553 28.808 10.0202 32.1431 10.0202 36.2425V40.0806H2.34375V16.202C2.34375 14.0856 4.06562 12.3639 6.18187 12.3639H31.2323C33.3487 12.3639 35.0705 14.0858 35.0705 16.202V34.9898C35.0705 35.637 35.5952 36.1617 36.2423 36.1617C36.8895 36.1617 37.4142 35.637 37.4142 34.9898V16.202C37.4142 12.7933 34.6409 10.0202 31.2323 10.0202H6.18187C2.77328 10.0202 0 12.7933 0 16.202V63.7978C0 67.2066 2.77328 69.9797 6.18187 69.9797H31.2323C34.2403 69.9797 36.7522 67.8197 37.3014 64.9697H75.0705C77.7886 64.9697 79.9998 62.7584 79.9998 60.0403V43.7575C80 41.0394 77.7887 38.8281 75.0706 38.8281ZM31.2323 67.6361H6.18187C4.06562 67.6361 2.34375 65.9144 2.34375 63.798V42.4244H17.4545C18.1017 42.4244 18.6264 41.8997 18.6264 41.2525C18.6264 40.6053 18.1017 40.0806 17.4545 40.0806H12.3639V36.2425C12.3639 33.4355 14.6477 31.1517 17.4547 31.1517H19.9597C22.7667 31.1517 25.0505 33.4355 25.0505 36.2425V38.9702C22.8964 39.4975 21.293 41.4434 21.293 43.7577V58.3025L16.6261 62.9694C16.2909 63.3045 16.1906 63.8086 16.372 64.2464C16.5534 64.6844 16.9808 64.9698 17.4547 64.9698H34.887C34.3903 66.5147 32.9402 67.6361 31.2323 67.6361ZM77.6562 60.0403C77.6562 61.4661 76.4964 62.6259 75.0706 62.6259H20.2837L23.2934 59.6163C23.5133 59.3966 23.6367 59.0984 23.6367 58.7877V43.7575C23.6367 42.3317 24.7966 41.1719 26.2223 41.1719H75.0706C76.4964 41.1719 77.6562 42.3319 77.6562 43.7575V60.0403Z" fill="black"/>
<path d="M16.2022 17.5352C14.8653 17.5352 13.7778 18.6227 13.7778 19.9596V22.4647C13.7778 25.1829 15.9892 27.3941 18.7074 27.3941C21.4255 27.3941 23.6367 25.1829 23.6367 22.4647V19.9596C23.6367 18.6227 22.5492 17.5352 21.2124 17.5352H16.2022ZM21.293 19.9596V22.4647C21.293 23.8905 20.1331 25.0504 18.7074 25.0504C17.2816 25.0504 16.1217 23.8905 16.1217 22.4647V19.9596C16.1217 19.9151 16.1578 19.879 16.2024 19.879H21.2125C21.2569 19.879 21.293 19.9151 21.293 19.9596Z" fill="black"/>
<path d="M7.43457 51.1919H17.4547C18.1019 51.1919 18.6266 50.6672 18.6266 50.02C18.6266 49.3728 18.1019 48.8482 17.4547 48.8482H7.43457C6.78738 48.8482 6.2627 49.3728 6.2627 50.02C6.2627 50.6672 6.78723 51.1919 7.43457 51.1919Z" fill="black"/>
<path d="M7.43457 56.2019H17.4547C18.1019 56.2019 18.6266 55.6773 18.6266 55.0301C18.6266 54.3829 18.1019 53.8582 17.4547 53.8582H7.43457C6.78738 53.8582 6.2627 54.3829 6.2627 55.0301C6.2627 55.6773 6.78723 56.2019 7.43457 56.2019Z" fill="black"/>
<path d="M13.6971 58.8683H7.43457C6.78738 58.8683 6.2627 59.393 6.2627 60.0402C6.2627 60.6874 6.78738 61.2121 7.43457 61.2121H13.6972C14.3444 61.2121 14.8691 60.6874 14.8691 60.0402C14.8691 59.393 14.3443 58.8683 13.6971 58.8683Z" fill="black"/>
</svg>
