<svg width="50" height="50" viewBox="0 0 50 50" fill="none" xmlns="http://www.w3.org/2000/svg">
<path d="M3.86377 6.995H19.5203C21.2497 6.995 22.6517 8.39695 22.6517 10.1263V39.8737C22.6517 41.6031 21.2497 43.0051 19.5203 43.0051H3.86377C2.13437 43.0051 0.732422 41.6031 0.732422 39.8737V10.1263C0.732422 8.39695 2.13437 6.995 3.86377 6.995Z" fill="#95D6A4"/>
<path d="M20.3032 25.7828H3.08105V12.4748C3.08105 10.7454 4.48301 9.34344 6.2124 9.34344H17.172C18.9014 9.34344 20.3033 10.7454 20.3033 12.4748V25.7828H20.3032Z" fill="#B3E59F"/>
<path d="M12.4749 18.7374H10.9093C8.74756 18.7374 6.99512 20.4899 6.99512 22.6516V27.2949H16.3891V22.6516C16.3891 20.4899 14.6366 18.7374 12.4749 18.7374Z" fill="#6F6571"/>
<path d="M19.5202 43.005H3.86377C2.13437 43.005 0.732422 41.6031 0.732422 39.8737V25.7828H22.6516V39.8737C22.6516 41.6031 21.2496 43.005 19.5202 43.005Z" fill="#FFF5D7"/>
<path d="M3.08105 25.7828H20.3032V37.5252C20.3032 39.2546 18.9013 40.6566 17.1719 40.6566H6.2124C4.48301 40.6566 3.08105 39.2546 3.08105 37.5252V25.7828Z" fill="white"/>
<path d="M11.6922 16.389C10.3951 16.389 9.34375 15.3375 9.34375 14.0405V12.4749C9.34375 12.0426 9.69424 11.6921 10.1266 11.6921H13.2579C13.6902 11.6921 14.0407 12.0426 14.0407 12.4749V14.0405C14.0406 15.3375 12.9892 16.389 11.6922 16.389Z" fill="#FFF5D7"/>
<path d="M10.9092 39.8736H46.9191C48.2162 39.8736 49.2676 38.8222 49.2676 37.5252V27.3484C49.2676 26.0514 48.2161 25 46.9191 25H16.389C15.0919 25 14.0405 26.0515 14.0405 27.3484V36.7423L10.9092 39.8736Z" fill="#F6D190"/>
<path d="M17.9546 37.5252C17.0913 37.5252 16.389 36.8229 16.389 35.9596V25C15.0919 25 14.0405 26.0515 14.0405 27.3484V36.7423L10.9092 39.8736H46.9191C48.2162 39.8736 49.2676 38.8222 49.2676 37.5252H17.9546Z" fill="#ECBD83"/>
<path d="M32.3975 28.9956C32.395 28.9889 32.3923 28.9822 32.3896 28.9755C32.2538 28.6454 31.9356 28.4323 31.5787 28.4323C31.5784 28.4323 31.5781 28.4323 31.5778 28.4323C31.2206 28.4325 30.9023 28.6465 30.767 28.9772C30.7648 28.9827 30.7625 28.9882 30.7605 28.9938L28.3666 35.2792C28.2225 35.6573 28.4123 36.0804 28.7903 36.2243C29.1683 36.3683 29.5915 36.1785 29.7354 35.8006L30.152 34.707H32.9872L33.3991 35.7986C33.5098 36.0918 33.7884 36.2726 34.0845 36.2726C34.1704 36.2726 34.2579 36.2574 34.3429 36.2252C34.7213 36.0824 34.9125 35.6598 34.7696 35.2814L32.3975 28.9956ZM30.7099 33.242L31.5761 30.9677L32.4344 33.242H30.7099Z" fill="black"/>
<path d="M20.9698 34.8021C20.9685 34.8021 20.967 34.8021 20.9656 34.8021C20.4479 34.8051 19.8921 34.8071 19.4697 34.8075V29.1647C19.4697 28.7602 19.1418 28.4323 18.7373 28.4323C18.3328 28.4323 18.0049 28.7602 18.0049 29.1647V35.5347C18.0049 35.8914 18.262 36.1963 18.6137 36.2565C18.666 36.2655 18.7085 36.2728 19.4122 36.2728C19.7526 36.2728 20.2479 36.2711 20.9738 36.2671C21.3783 36.2648 21.7044 35.935 21.7021 35.5306C21.6999 35.1273 21.3724 34.8021 20.9698 34.8021Z" fill="black"/>
<path d="M45.1353 29.9261C45.5398 29.9261 45.8678 29.5982 45.8678 29.1937C45.8678 28.7892 45.5398 28.4613 45.1353 28.4613H42.4736C42.0691 28.4613 41.7412 28.7892 41.7412 29.1937V35.5108C41.7412 35.9153 42.0691 36.2432 42.4736 36.2432H45.1353C45.5398 36.2432 45.8678 35.9153 45.8678 35.5108C45.8678 35.1063 45.5398 34.7784 45.1353 34.7784H43.2061V33.0847H44.9392C45.3437 33.0847 45.6716 32.7568 45.6716 32.3523C45.6716 31.9478 45.3437 31.6199 44.9392 31.6199H43.2061V29.9262H45.1353V29.9261Z" fill="black"/>
<path d="M26.3736 29.9261C26.7781 29.9261 27.1061 29.5982 27.1061 29.1937C27.1061 28.7892 26.7781 28.4613 26.3736 28.4613H23.7119C23.3074 28.4613 22.9795 28.7892 22.9795 29.1937V35.5108C22.9795 35.9153 23.3074 36.2432 23.7119 36.2432H26.3736C26.7781 36.2432 27.1061 35.9153 27.1061 35.5108C27.1061 35.1063 26.7781 34.7784 26.3736 34.7784H24.4443V33.0847H26.1774C26.5819 33.0847 26.9099 32.7568 26.9099 32.3523C26.9099 31.9478 26.5819 31.6199 26.1774 31.6199H24.4443V29.9262H26.3736V29.9261Z" fill="black"/>
<path d="M40.0045 28.4812C39.6206 28.3536 39.206 28.5615 39.0785 28.9454L37.5435 33.5659L35.9324 28.9244C35.7998 28.5422 35.3823 28.3402 35.0003 28.4726C34.6181 28.6052 34.4159 29.0226 34.5485 29.4048L36.7299 35.6891C36.854 36.0385 37.1853 36.2722 37.5557 36.2722H37.5617C37.9344 36.2698 38.2655 36.0309 38.3872 35.6731L40.4687 29.4072C40.5962 29.0234 40.3883 28.6089 40.0045 28.4812Z" fill="black"/>
<path d="M46.9191 24.2676H17.1214V22.6515C17.1214 20.0894 15.0369 18.005 12.4748 18.005H10.9092C8.34707 18.005 6.2626 20.0894 6.2626 22.6515V25.0504H1.46484V10.1262C1.46484 8.80349 2.54102 7.72742 3.86367 7.72742H19.5202C20.843 7.72742 21.919 8.80359 21.919 10.1262V21.8686C21.919 22.2731 22.247 22.6011 22.6515 22.6011C23.056 22.6011 23.3839 22.2731 23.3839 21.8686V10.1262C23.3839 7.99578 21.6506 6.26257 19.5202 6.26257H3.86367C1.7333 6.26257 0 7.99578 0 10.1262V39.8736C0 42.0041 1.7333 43.7373 3.86367 43.7373H19.5202C21.4002 43.7373 22.9701 42.3873 23.3134 40.606H46.919C48.6179 40.606 49.9999 39.224 49.9999 37.5252V27.3484C50 25.6496 48.618 24.2676 46.9191 24.2676ZM19.5202 42.2725H3.86367C2.54102 42.2725 1.46484 41.1965 1.46484 39.8737V26.5152H10.9091C11.3136 26.5152 11.6415 26.1873 11.6415 25.7828C11.6415 25.3783 11.3136 25.0504 10.9091 25.0504H7.72744V22.6515C7.72744 20.8971 9.15479 19.4698 10.9092 19.4698H12.4748C14.2292 19.4698 15.6565 20.8971 15.6565 22.6515V24.3563C14.3103 24.6859 13.3081 25.9021 13.3081 27.3485V36.439L10.3913 39.3558C10.1818 39.5653 10.1191 39.8803 10.2325 40.154C10.3459 40.4277 10.613 40.6061 10.9092 40.6061H21.8044C21.4939 41.5717 20.5876 42.2725 19.5202 42.2725ZM48.5352 37.5252C48.5352 38.4163 47.8103 39.1412 46.9191 39.1412H12.6773L14.5584 37.2601C14.6958 37.1228 14.7729 36.9365 14.7729 36.7423V27.3484C14.7729 26.4573 15.4979 25.7324 16.389 25.7324H46.9191C47.8103 25.7324 48.5352 26.4574 48.5352 27.3484V37.5252Z" fill="black"/>
<path d="M10.1266 10.9596C9.29102 10.9596 8.61133 11.6393 8.61133 12.4748V14.0406C8.61133 15.7394 9.99346 17.1214 11.6923 17.1214C13.3911 17.1214 14.7731 15.7394 14.7731 14.0406V12.4748C14.7731 11.6393 14.0935 10.9596 13.2579 10.9596H10.1266ZM13.3083 12.4748V14.0406C13.3083 14.9317 12.5834 15.6566 11.6923 15.6566C10.8012 15.6566 10.0763 14.9317 10.0763 14.0406V12.4748C10.0763 12.447 10.0988 12.4244 10.1267 12.4244H13.258C13.2857 12.4244 13.3083 12.447 13.3083 12.4748Z" fill="black"/>
<path d="M4.64648 31.995H10.9091C11.3136 31.995 11.6415 31.6671 11.6415 31.2626C11.6415 30.8581 11.3136 30.5302 10.9091 30.5302H4.64648C4.24199 30.5302 3.91406 30.8581 3.91406 31.2626C3.91406 31.6671 4.24189 31.995 4.64648 31.995Z" fill="black"/>
<path d="M4.64648 35.1263H10.9091C11.3136 35.1263 11.6415 34.7984 11.6415 34.3939C11.6415 33.9894 11.3136 33.6614 10.9091 33.6614H4.64648C4.24199 33.6614 3.91406 33.9894 3.91406 34.3939C3.91406 34.7984 4.24189 35.1263 4.64648 35.1263Z" fill="black"/>
<path d="M8.56055 36.7928H4.64648C4.24199 36.7928 3.91406 37.1207 3.91406 37.5252C3.91406 37.9297 4.24199 38.2576 4.64648 38.2576H8.56064C8.96514 38.2576 9.29307 37.9297 9.29307 37.5252C9.29307 37.1207 8.96504 36.7928 8.56055 36.7928Z" fill="black"/>
</svg>
