<svg width="17" height="16" viewBox="0 0 17 16" fill="none" xmlns="http://www.w3.org/2000/svg">
<path d="M12.25 0.5C10.8047 0.5 9.39844 1.16406 8.5 2.25781C7.60156 1.16406 6.19531 0.5 4.75 0.5C2.17188 0.5 0.179688 2.53125 0.179688 5.07031C0.179688 8.23438 2.99219 10.8125 7.28906 14.7188L8.5 15.7734L9.71094 14.6797C14.0078 10.8125 16.8203 8.23438 16.8203 5.07031C16.8203 2.53125 14.8281 0.5 12.25 0.5ZM8.57812 13.4688L8.5 13.5469L8.42188 13.4688C4.4375 9.875 1.82031 7.49219 1.82031 5.07031C1.82031 3.42969 3.07031 2.17969 4.75 2.17969C6.03906 2.17969 7.28906 3 7.71875 4.13281H9.28125C9.71094 3 10.9609 2.17969 12.25 2.17969C13.9297 2.17969 15.1797 3.42969 15.1797 5.07031C15.1797 7.49219 12.5625 9.875 8.57812 13.4688Z" fill="black"/>
</svg>
