<svg width="24" height="24" viewBox="0 0 24 24" fill="none" xmlns="http://www.w3.org/2000/svg">
<g clip-path="url(#clip0_303_310)">
<path d="M12.5 12.5C14.1569 12.5 15.5 11.1569 15.5 9.5C15.5 7.84315 14.1569 6.5 12.5 6.5C10.8431 6.5 9.5 7.84315 9.5 9.5C9.5 11.1569 10.8431 12.5 12.5 12.5Z" stroke="black" stroke-width="1.5" stroke-linecap="round" stroke-linejoin="round"/>
<path d="M20 9.5C20 16.25 12.5 21.5 12.5 21.5C12.5 21.5 5 16.25 5 9.5C5 7.51088 5.79018 5.60322 7.1967 4.1967C8.60322 2.79018 10.5109 2 12.5 2C14.4891 2 16.3968 2.79018 17.8033 4.1967C19.2098 5.60322 20 7.51088 20 9.5Z" stroke="black" stroke-width="1.5" stroke-linecap="round" stroke-linejoin="round"/>
</g>
<defs>
<clipPath id="clip0_303_310">
<rect width="24" height="24" fill="white"/>
</clipPath>
</defs>
</svg>
