<svg width="80" height="80" viewBox="0 0 80 80" fill="none" xmlns="http://www.w3.org/2000/svg">
<g clip-path="url(#clip0_199_113)">
<path d="M65.7328 0H3.95469C1.77057 0 0 1.77057 0 3.95469V43.7973C0 45.9815 1.77057 47.752 3.95469 47.752H65.7328C67.9169 47.752 69.6875 45.9815 69.6875 43.7973V3.95469C69.6875 1.77057 67.9169 0 65.7328 0Z" fill="#E57E25"/>
<path d="M68.0844 46.9081C68.5834 46.5267 68.9876 46.0354 69.2657 45.4723C69.5437 44.9092 69.6882 44.2896 69.6877 43.6616V4.09047C69.6877 3.00561 69.2568 1.96518 68.4896 1.19807C67.7225 0.430959 66.6821 0 65.5972 0L26.0171 0L68.0002 46.8772L68.0844 46.9081Z" fill="#F29C1F"/>
<path d="M43.6706 0H4.09047C3.00561 0 1.96518 0.430959 1.19807 1.19807C0.43096 1.96518 1.03383e-06 3.00561 1.03383e-06 4.09047V43.6616C-0.000432454 44.2707 0.135461 44.8722 0.397718 45.4219C0.659975 45.9717 1.04195 46.4558 1.51563 46.8388L1.6875 46.8772L43.6706 0Z" fill="#F29C1F"/>
<path d="M65.597 0H4.09047C3.00561 0 1.96518 0.430959 1.19807 1.19807C0.430959 1.96518 0 3.00561 0 4.09047L0 5.66281L29.5181 26.003C31.0844 27.0823 32.9416 27.6602 34.8438 27.6602C36.7459 27.6602 38.6031 27.0823 40.1694 26.003L69.6875 5.66281V4.09047C69.6875 3.00561 69.2565 1.96518 68.4894 1.19807C67.7223 0.430959 66.6819 0 65.597 0Z" fill="#F0C419"/>
<path d="M18.1446 80C17.8882 80.0001 17.638 79.9214 17.4279 79.7745C17.2178 79.6276 17.0579 79.4197 16.9699 79.1789C16.882 78.938 16.8702 78.676 16.9362 78.4283C17.0022 78.1805 17.1427 77.9591 17.3388 77.7939L34.6182 63.432C34.7432 63.3226 34.8888 63.2392 35.0464 63.1867C35.2041 63.1342 35.3706 63.1137 35.5362 63.1263C35.7019 63.1389 35.8634 63.1844 36.0112 63.2601C36.1591 63.3359 36.2904 63.4403 36.3974 63.5674C36.5044 63.6945 36.5851 63.8416 36.6346 64.0002C36.6841 64.1588 36.7015 64.3256 36.6858 64.491C36.67 64.6564 36.6215 64.817 36.543 64.9634C36.4645 65.1098 36.3576 65.2391 36.2285 65.3438L18.9493 79.7061C18.7243 79.8961 18.4391 80.0003 18.1446 80Z" fill="#FF5364"/>
<path d="M32.8009 77.2794C32.5466 77.2795 32.2983 77.2021 32.0891 77.0574C31.88 76.9127 31.72 76.7076 31.6304 76.4696C31.5408 76.2316 31.526 75.9719 31.5879 75.7252C31.6497 75.4786 31.7854 75.2566 31.9767 75.0891L36.2301 71.2031C36.3535 71.0942 36.4971 71.0107 36.6528 70.9574C36.8086 70.9042 36.9732 70.8822 37.1375 70.8927C37.3017 70.9032 37.4622 70.9461 37.6099 71.0188C37.7575 71.0915 37.8893 71.1927 37.9977 71.3165C38.1062 71.4402 38.1891 71.5842 38.2418 71.7401C38.2944 71.896 38.3158 72.0608 38.3046 72.225C38.2934 72.3892 38.2499 72.5495 38.1767 72.6969C38.1034 72.8442 38.0017 72.9756 37.8775 73.0836L33.6248 76.9695C33.3971 77.1697 33.1041 77.2799 32.8009 77.2794Z" fill="#35ACEF"/>
<path d="M37.437 52.5544L45.3231 71.4442L59.7304 49.8314L79.9851 30.5322L37.437 52.5544Z" fill="#285680"/>
<path d="M79.9855 30.3931L38.4183 54.6395L26.1875 51.4666L79.9855 30.3931Z" fill="#7ED0FC"/>
<path d="M65.3465 46.4278L45.3232 71.4442L47.6862 57.1159L65.3465 46.4278Z" fill="#35ACEF"/>
<path d="M79.9851 30.5322C79.9965 30.4967 80.0115 30.4697 79.9851 30.4959L47.686 57.1159L67.6945 62.5625L79.9851 30.5322Z" fill="#7ED0FC"/>
</g>
<defs>
<clipPath id="clip0_199_113">
<rect width="80" height="80" fill="white"/>
</clipPath>
</defs>
</svg>
