<svg width="60" height="60" viewBox="0 0 60 60" fill="none" xmlns="http://www.w3.org/2000/svg">
<path d="M55.731 22.239C55.6241 22.1322 55.5155 22.0279 55.4059 21.9247V18.5473C55.4059 15.1888 52.6736 12.4565 49.3151 12.4565H38.6312V9.39552C38.6312 6.12763 35.9726 3.46912 32.7048 3.46912H22.7013C19.4334 3.46912 16.7749 6.12763 16.7749 9.39552V12.4565H6.09082C2.73234 12.4565 0 15.1888 0 18.5473V45.6587C0 49.0172 2.73234 51.7495 6.09082 51.7495H18.8075C19.2929 51.7495 19.6864 51.356 19.6864 50.8706C19.6864 50.3853 19.2929 49.9917 18.8075 49.9917H6.09082C3.70148 49.9917 1.7577 48.0479 1.7577 45.6586V27.9281C3.47871 30.481 6.30973 32.2262 9.55289 32.4666V35.6665C9.55289 37.494 11.0398 38.9809 12.8673 38.9809C14.695 38.9809 16.1818 37.494 16.1818 35.6665V32.4953H30.8688C30.8688 32.5094 30.8684 32.5233 30.8684 32.5374C30.8684 35.5302 31.7659 38.3848 33.4321 40.7952L31.5662 42.6611C30.9146 42.4767 30.1846 42.6395 29.6728 43.1515L22.5057 50.3186C21.0871 51.7372 21.0871 54.0456 22.5057 55.4643C23.9277 56.8862 26.2294 56.8865 27.6514 55.4643L34.8185 48.2972C35.3304 47.7853 35.4933 47.0554 35.3089 46.4038L37.1764 44.5363C42.1151 47.9377 48.6982 47.9485 53.6483 44.5638V45.6587C53.6483 48.0481 51.7045 49.9918 49.3152 49.9918H35.4327C34.9473 49.9918 34.5538 50.3854 34.5538 50.8708C34.5538 51.3561 34.9473 51.7497 35.4327 51.7497H49.3151C52.6736 51.7497 55.4059 49.0173 55.4059 45.6588V43.1502C55.5154 43.0473 55.624 42.943 55.731 42.836C61.4227 37.1444 61.4234 27.9314 55.731 22.239ZM18.5325 9.39552C18.5325 7.09689 20.4026 5.22681 22.7012 5.22681H32.7047C35.0033 5.22681 36.8734 7.09689 36.8734 9.39552V12.4565H34.9985V9.39552C34.9985 8.13072 33.9695 7.10169 32.7047 7.10169H22.7012C21.4364 7.10169 20.4074 8.13072 20.4074 9.39552V12.4565H18.5325V9.39552ZM22.1651 12.4565V9.39552C22.1651 9.09998 22.4055 8.85951 22.7012 8.85951H32.7047C33.0004 8.85951 33.2408 9.09998 33.2408 9.39552V12.4565H22.1651ZM14.4241 32.9651H11.3107V30.0063C11.3107 29.1479 12.009 28.4496 12.8674 28.4496C13.7258 28.4496 14.4241 29.1479 14.4241 30.0063V32.9651ZM12.8674 37.2233C12.009 37.2233 11.3107 36.525 11.3107 35.6666V34.7228H14.4241V35.6666C14.4241 36.525 13.7258 37.2233 12.8674 37.2233ZM16.1818 30.7377V30.0063C16.1818 28.1788 14.695 26.6919 12.8673 26.6919C11.0398 26.6919 9.55289 28.1788 9.55289 30.0063V30.7014C5.18965 30.3104 1.7577 26.6354 1.7577 22.1722V18.5473C1.7577 16.1579 3.70148 14.2142 6.09082 14.2142H49.3151C51.7044 14.2142 53.6482 16.1579 53.6482 18.5473V20.5079C48.0906 16.695 40.262 17.1109 35.1341 22.2389C32.812 24.5609 31.3707 27.5289 30.9778 30.7376H16.1818V30.7377ZM26.4084 54.2215C25.6734 54.9565 24.4836 54.9566 23.7485 54.2215C23.3932 53.8662 23.1976 53.3939 23.1976 52.8915C23.1976 52.3892 23.3932 51.9168 23.7485 51.5616L28.7136 46.5965L31.3736 49.2564L26.4084 54.2215ZM33.5755 47.0544L32.6164 48.0135L29.9565 45.3536L30.9156 44.3945C30.9493 44.3609 30.9935 44.344 31.0377 44.344C31.0819 44.344 31.1261 44.3609 31.1597 44.3944C31.1599 44.3945 31.16 44.3947 31.1603 44.3949L33.5755 46.8101C33.6428 46.8775 33.6428 46.987 33.5755 47.0544ZM34.239 44.9878L32.9821 43.7309L34.5251 42.1879C34.721 42.4088 34.9235 42.6253 35.1341 42.8358C35.3452 43.0469 35.5617 43.2491 35.7823 43.4445L34.239 44.9878ZM36.377 41.593C33.9581 39.1743 32.6261 35.9582 32.6261 32.5375C32.6261 29.1168 33.9581 25.9007 36.377 23.4819C41.3816 18.4772 49.4828 18.4765 54.4881 23.4819C59.4928 28.4865 59.4935 36.5877 54.4881 41.593C49.4832 46.5979 41.3823 46.5985 36.377 41.593Z" fill="#E99E23"/>
<path d="M55.0745 33.7443C54.6002 33.6412 54.132 33.9419 54.0289 34.4164C53.6713 36.061 52.85 37.5626 51.6538 38.7587C48.2154 42.197 42.65 42.1974 39.2113 38.7587C35.7809 35.3283 35.7809 29.7467 39.2113 26.3162C42.6497 22.8778 48.215 22.8775 51.6538 26.3162C52.8487 27.5112 53.6698 29.0112 54.028 30.654C54.1314 31.1283 54.5998 31.4294 55.0739 31.3255C55.5482 31.2222 55.8487 30.7539 55.7454 30.2796C55.3153 28.3071 54.3302 26.5069 52.8968 25.0733C48.7714 20.948 42.0943 20.9475 37.9685 25.0733C33.8528 29.1891 33.8528 35.8859 37.9685 40.0016C42.0841 44.1173 48.7808 44.1175 52.8968 40.0016C54.3318 38.5667 55.3172 36.7644 55.7466 34.7898C55.8496 34.3156 55.5487 33.8475 55.0745 33.7443Z" fill="#E99E23"/>
</svg>
