<svg width="20" height="20" viewBox="0 0 20 20" fill="none" xmlns="http://www.w3.org/2000/svg">
<path d="M7.96875 10C5.1203 10 2.8125 12.3078 2.8125 15.1562V17.0312C2.8125 17.8022 3.4478 18.4375 4.21875 18.4375H9.84375C9.90586 18.4384 9.96753 18.4269 10.0252 18.4037C10.0828 18.3806 10.1353 18.3462 10.1795 18.3026C10.2238 18.259 10.2589 18.207 10.2829 18.1497C10.3068 18.0924 10.3192 18.0309 10.3192 17.9688C10.3192 17.9066 10.3068 17.8451 10.2829 17.7878C10.2589 17.7305 10.2238 17.6785 10.1795 17.6349C10.1353 17.5913 10.0828 17.5569 10.0252 17.5338C9.96753 17.5106 9.90586 17.4991 9.84375 17.5H4.21875C3.95095 17.5 3.75 17.299 3.75 17.0312V15.1562C3.75 12.811 5.62345 10.9375 7.96875 10.9375H12.0312C12.4516 10.9375 12.8555 10.9982 13.2367 11.1108C13.2961 11.1296 13.3586 11.1363 13.4207 11.1306C13.4827 11.1249 13.543 11.1069 13.598 11.0776C13.653 11.0484 13.7016 11.0085 13.741 10.9602C13.7804 10.9119 13.8098 10.8563 13.8274 10.7966C13.845 10.7368 13.8506 10.6741 13.8437 10.6122C13.8369 10.5503 13.8178 10.4904 13.7875 10.4359C13.7572 10.3815 13.7164 10.3336 13.6674 10.2951C13.6184 10.2567 13.5623 10.2283 13.5022 10.2118C13.0358 10.074 12.5418 10 12.0312 10H7.96875Z" fill="#2C83EC"/>
<path d="M10 1.5625C7.93448 1.5625 6.25 3.24698 6.25 5.3125C6.25 7.37802 7.93448 9.0625 10 9.0625C12.0655 9.0625 13.75 7.37802 13.75 5.3125C13.75 3.24698 12.0655 1.5625 10 1.5625ZM10 2.5C11.5589 2.5 12.8125 3.75365 12.8125 5.3125C12.8125 6.87135 11.5589 8.125 10 8.125C8.44115 8.125 7.1875 6.87135 7.1875 5.3125C7.1875 3.75365 8.44115 2.5 10 2.5Z" fill="#2C83EC"/>
<path d="M14.0625 11.5625C11.997 11.5625 10.3125 13.247 10.3125 15.3125C10.3125 17.378 11.997 19.0625 14.0625 19.0625C14.7477 19.0625 15.4199 18.875 16.0059 18.5199C16.0585 18.488 16.1044 18.446 16.1409 18.3964C16.1773 18.3468 16.2036 18.2905 16.2183 18.2307C16.233 18.1709 16.2358 18.1088 16.2264 18.0479C16.2171 17.987 16.1959 17.9286 16.164 17.8759C16.1321 17.8233 16.0901 17.7774 16.0405 17.741C15.9909 17.7045 15.9345 17.6782 15.8747 17.6635C15.8149 17.6489 15.7528 17.6461 15.692 17.6554C15.6311 17.6648 15.5727 17.686 15.52 17.7179C15.0805 17.9842 14.5764 18.125 14.0625 18.125C12.5036 18.125 11.25 16.8714 11.25 15.3125C11.25 13.7536 12.5036 12.5 14.0625 12.5C15.6214 12.5 16.875 13.7536 16.875 15.3125C16.875 15.8264 16.7342 16.3305 16.4679 16.77C16.436 16.8227 16.4148 16.8811 16.4054 16.942C16.3961 17.0028 16.3989 17.0649 16.4135 17.1247C16.4282 17.1845 16.4545 17.2409 16.491 17.2905C16.5274 17.3401 16.5733 17.3821 16.6259 17.414C16.6786 17.4459 16.737 17.4671 16.7979 17.4764C16.8588 17.4858 16.9209 17.483 16.9807 17.4683C17.0405 17.4536 17.0968 17.4273 17.1464 17.3909C17.196 17.3544 17.238 17.3085 17.2699 17.2559C17.6249 16.6699 17.8125 15.9976 17.8125 15.3125C17.8125 13.247 16.128 11.5625 14.0625 11.5625Z" fill="#2C83EC"/>
<path d="M14.0625 13.75C13.8028 13.75 13.5938 13.9591 13.5938 14.2188V14.8438H12.9688C12.7091 14.8438 12.5 15.0528 12.5 15.3125C12.5 15.5722 12.7091 15.7812 12.9688 15.7812H13.5938V16.4062C13.5938 16.6659 13.8028 16.875 14.0625 16.875C14.3222 16.875 14.5312 16.6659 14.5312 16.4062V15.7812H15.1562C15.4159 15.7812 15.625 15.5722 15.625 15.3125C15.625 15.0528 15.4159 14.8438 15.1562 14.8438H14.5312V14.2188C14.5312 13.9591 14.3222 13.75 14.0625 13.75Z" fill="#2C83EC"/>
</svg>
