<svg width="18" height="18" viewBox="0 0 18 18" fill="none" xmlns="http://www.w3.org/2000/svg">
<path d="M7.03135 8.18655C7.11688 8.13717 7.1879 8.06614 7.23727 7.9806C7.28664 7.89507 7.31263 7.79804 7.3126 7.69928V2.63678C7.3121 2.5471 7.29016 2.45884 7.24862 2.37936C7.20708 2.29988 7.14713 2.23149 7.07378 2.17988C7.00044 2.12828 6.91581 2.09496 6.82697 2.0827C6.73813 2.07045 6.64765 2.07962 6.56307 2.10944C4.92126 2.69051 3.54056 3.83817 2.66918 5.34611C1.79779 6.85405 1.49288 8.62337 1.80924 10.336C1.82564 10.4246 1.86307 10.5079 1.91837 10.579C1.97368 10.6501 2.04525 10.7068 2.12706 10.7445C2.20078 10.779 2.28121 10.7968 2.3626 10.7965C2.46133 10.7966 2.55833 10.7706 2.64385 10.7213L7.03135 8.18655ZM6.1876 3.48897V7.37444L2.82104 9.31717C2.8126 9.211 2.8126 9.10412 2.8126 9.00006C2.8136 7.85985 3.12921 6.74202 3.72469 5.76965C4.32017 4.79729 5.17242 4.00809 6.1876 3.48897ZM9.0001 1.68756C8.85092 1.68756 8.70784 1.74682 8.60236 1.85231C8.49687 1.9578 8.4376 2.10088 8.4376 2.25006V8.70615L2.89627 11.9342C2.83197 11.9715 2.77569 12.0211 2.73069 12.0803C2.68569 12.1394 2.65286 12.2069 2.6341 12.2788C2.61533 12.3508 2.61101 12.4257 2.62137 12.4993C2.63174 12.5729 2.65658 12.6437 2.69448 12.7076C3.34396 13.8118 4.27208 14.7259 5.38594 15.3585C6.49979 15.9912 7.7603 16.3201 9.04125 16.3124C10.3222 16.3047 11.5787 15.9607 12.6849 15.3147C13.791 14.6688 14.7081 13.7436 15.3443 12.6317C15.9805 11.5199 16.3135 10.2605 16.3098 8.97949C16.3062 7.69851 15.9662 6.44096 15.3238 5.33273C14.6813 4.22449 13.7591 3.30446 12.6493 2.66473C11.5395 2.02501 10.2811 1.68804 9.0001 1.68756ZM9.0001 15.1876C8.01815 15.1849 7.05077 14.9499 6.1771 14.5016C5.30343 14.0533 4.54829 13.4046 3.97346 12.6085L9.28346 9.51475C9.36889 9.46543 9.43984 9.39451 9.48921 9.30911C9.53857 9.22371 9.56461 9.12683 9.56471 9.02819V2.83787C11.1513 2.98182 12.6211 3.73214 13.6684 4.93263C14.7156 6.13311 15.2594 7.69126 15.1867 9.28265C15.1139 10.874 14.4302 12.3761 13.2778 13.476C12.1254 14.5759 10.5932 15.189 9.0001 15.1876Z" fill="black"/>
</svg>
