<svg width="18" height="18" viewBox="0 0 18 18" fill="none" xmlns="http://www.w3.org/2000/svg">
<path d="M8.76562 12.0469C9.08926 12.0469 9.35156 12.3092 9.35156 12.6328C9.35156 12.9565 9.08926 13.2188 8.76562 13.2188H7.94531C7.62167 13.2188 7.35937 12.9565 7.35937 12.6328C7.35937 12.3092 7.62167 12.0469 7.94531 12.0469H8.76562ZM13.5703 8.91211C13.5703 8.58847 13.308 8.32617 12.9844 8.32617H7.94531C7.62167 8.32617 7.35937 8.58847 7.35937 8.91211C7.35937 9.23575 7.62167 9.49805 7.94531 9.49805H12.9844C13.308 9.49805 13.5703 9.23575 13.5703 8.91211ZM7.94531 5.98242H12.9844C13.308 5.98242 13.5703 5.72012 13.5703 5.39648C13.5703 5.07285 13.308 4.81055 12.9844 4.81055H7.94531C7.62167 4.81055 7.35937 5.07285 7.35937 5.39648C7.35937 5.72012 7.62167 5.98242 7.94531 5.98242ZM5.60156 12.0469H5.01562C4.69199 12.0469 4.42969 12.3092 4.42969 12.6328C4.42969 12.9565 4.69199 13.2188 5.01562 13.2188H5.60156C5.9252 13.2188 6.1875 12.9565 6.1875 12.6328C6.1875 12.3092 5.9252 12.0469 5.60156 12.0469ZM5.60156 8.32617H5.01562C4.69199 8.32617 4.42969 8.58847 4.42969 8.91211C4.42969 9.23575 4.69199 9.49805 5.01562 9.49805H5.60156C5.9252 9.49805 6.1875 9.23575 6.1875 8.91211C6.1875 8.58847 5.9252 8.32617 5.60156 8.32617ZM5.60156 4.81055H5.01562C4.69199 4.81055 4.42969 5.07285 4.42969 5.39648C4.42969 5.72012 4.69199 5.98242 5.01562 5.98242H5.60156C5.9252 5.98242 6.1875 5.72012 6.1875 5.39648C6.1875 5.07285 5.9252 4.81055 5.60156 4.81055ZM16.3285 15.4997C16.5572 15.7286 16.5572 16.0996 16.3285 16.3283C16.214 16.4428 16.064 16.5 15.9141 16.5C15.7641 16.5 15.6141 16.4428 15.4997 16.3285L14.5085 15.3373C14.1138 15.5731 13.6526 15.709 13.1602 15.709C11.7063 15.709 10.5234 14.5261 10.5234 13.0723C10.5234 11.6184 11.7063 10.4355 13.1602 10.4355C14.614 10.4355 15.7969 11.6184 15.7969 13.0723C15.7969 13.6103 15.6348 14.1109 15.3571 14.5285L16.3285 15.4997ZM13.1602 14.5371C13.9679 14.5371 14.625 13.88 14.625 13.0723C14.625 12.2645 13.9679 11.6074 13.1602 11.6074C12.3524 11.6074 11.6953 12.2645 11.6953 13.0723C11.6953 13.88 12.3524 14.5371 13.1602 14.5371ZM14.1562 1.5H3.84375C2.55137 1.5 1.5 2.55137 1.5 3.84375V14.1562C1.5 15.4486 2.55137 16.5 3.84375 16.5H9.87891C10.2025 16.5 10.4648 16.2377 10.4648 15.9141C10.4648 15.5904 10.2025 15.3281 9.87891 15.3281H3.84375C3.19762 15.3281 2.67187 14.8024 2.67187 14.1562V3.84375C2.67187 3.19762 3.19762 2.67188 3.84375 2.67188H14.1562C14.8024 2.67188 15.3281 3.19762 15.3281 3.84375V9.64453C15.3281 9.96817 15.5904 10.2305 15.9141 10.2305C16.2377 10.2305 16.5 9.96817 16.5 9.64453V3.84375C16.5 2.55137 15.4486 1.5 14.1562 1.5Z" fill="black"/>
</svg>
