<svg width="24" height="24" viewBox="0 0 24 24" fill="none" xmlns="http://www.w3.org/2000/svg">
<path d="M21.375 24C20.8572 24 20.4375 23.5803 20.4375 23.0625V19.5C20.4375 17.9492 19.1758 16.6875 17.625 16.6875H6.375C4.82419 16.6875 3.5625 17.9492 3.5625 19.5V23.0625C3.5625 23.5803 3.14278 24 2.625 24C2.10722 24 1.6875 23.5803 1.6875 23.0625V19.5C1.6875 16.9153 3.79027 14.8125 6.375 14.8125H17.625C20.2097 14.8125 22.3125 16.9153 22.3125 19.5V23.0625C22.3125 23.5803 21.8928 24 21.375 24Z" fill="black"/>
<path d="M4.5 12.9375H2.625C2.10722 12.9375 1.6875 12.5178 1.6875 12C1.6875 11.4822 2.10722 11.0625 2.625 11.0625H4.5C5.01778 11.0625 5.4375 11.4822 5.4375 12C5.4375 12.5178 5.01778 12.9375 4.5 12.9375Z" fill="black"/>
<path d="M10.125 12.9375H8.25C7.73222 12.9375 7.3125 12.5178 7.3125 12C7.3125 11.4822 7.73222 11.0625 8.25 11.0625H10.125C10.6428 11.0625 11.0625 11.4822 11.0625 12C11.0625 12.5178 10.6428 12.9375 10.125 12.9375Z" fill="black"/>
<path d="M15.75 12.9375H13.875C13.3572 12.9375 12.9375 12.5178 12.9375 12C12.9375 11.4822 13.3572 11.0625 13.875 11.0625H15.75C16.2678 11.0625 16.6875 11.4822 16.6875 12C16.6875 12.5178 16.2678 12.9375 15.75 12.9375Z" fill="black"/>
<path d="M21.375 12.9375H19.5C18.9822 12.9375 18.5625 12.5178 18.5625 12C18.5625 11.4822 18.9822 11.0625 19.5 11.0625H21.375C21.8928 11.0625 22.3125 11.4822 22.3125 12C22.3125 12.5178 21.8928 12.9375 21.375 12.9375Z" fill="black"/>
<path d="M17.625 9.1875H6.375C3.79027 9.1875 1.6875 7.08469 1.6875 4.5V0.9375C1.6875 0.419719 2.10722 0 2.625 0C3.14278 0 3.5625 0.419719 3.5625 0.9375V4.5C3.5625 6.05081 4.82419 7.3125 6.375 7.3125H17.625C19.1758 7.3125 20.4375 6.05081 20.4375 4.5V0.9375C20.4375 0.419719 20.8572 0 21.375 0C21.8928 0 22.3125 0.419719 22.3125 0.9375V4.5C22.3125 7.08469 20.2097 9.1875 17.625 9.1875Z" fill="black"/>
</svg>
