<svg width="50" height="50" viewBox="0 0 50 50" fill="none" xmlns="http://www.w3.org/2000/svg">
<path d="M7.84082 14.2526L12.1656 18.5775C15.4504 15.2927 19.9882 13.261 25.0006 13.261V7.14484C18.2993 7.14484 12.2324 9.86105 7.84082 14.2526Z" fill="#F6E266"/>
<path d="M42.1598 14.2526L37.835 18.5775C34.5502 15.2927 30.0124 13.261 25 13.261V7.14484C31.7013 7.14484 37.7682 9.86105 42.1598 14.2526Z" fill="#E49542"/>
<path d="M42.1592 14.2542L37.8359 18.5775C41.1207 21.8622 43.1523 26.4 43.1523 31.4124H49.2686C49.2686 24.7111 46.5508 18.6457 42.1592 14.2542Z" fill="#C8EA73"/>
<path d="M44.2869 16.6882C44.355 17.2747 44.3917 17.8682 44.3917 18.4683C44.3917 21.1953 43.6741 23.7931 42.377 26.1554C42.8797 27.8195 43.1512 29.5841 43.1512 31.4123H49.2674C49.2674 25.8744 47.41 20.7718 44.2869 16.6882Z" fill="#B7E445"/>
<path d="M7.8418 14.2542L12.165 18.5775C8.88027 21.8622 6.84863 26.4 6.84863 31.4124H0.732422C0.732422 24.7111 3.4502 18.6457 7.8418 14.2542Z" fill="#DD5790"/>
<path d="M28.0682 34.4816L44.3908 12.0205L21.9297 28.3432L28.0682 34.4816Z" fill="#4073C8"/>
<path d="M24.9998 31.4124C27.7239 31.4124 29.9322 29.2041 29.9322 26.48C29.9322 23.7559 27.7239 21.5475 24.9998 21.5475C22.2757 21.5475 20.0674 23.7559 20.0674 26.48C20.0674 29.2041 22.2757 31.4124 24.9998 31.4124Z" fill="#F1D0A5"/>
<path d="M27.4533 22.2017C27.8687 22.9244 28.1074 23.7615 28.1074 24.655C28.1074 27.3791 25.8991 29.5874 23.175 29.5874C22.2815 29.5874 21.4444 29.3486 20.7217 28.9333C21.5728 30.4143 23.1693 31.4124 25 31.4124C27.7241 31.4124 29.9324 29.2041 29.9324 26.48C29.9324 24.6493 28.9343 23.0527 27.4533 22.2017Z" fill="#F1B986"/>
<path d="M16.7148 35.3583V39.6988H33.2878V35.3583C33.2878 33.179 31.5211 31.4124 29.3419 31.4124H20.6608C18.4815 31.4124 16.7148 33.1791 16.7148 35.3583Z" fill="#9DC6FB"/>
<path d="M29.3412 31.4124H26.9736C29.1529 31.4124 30.9195 33.1791 30.9195 35.3583V39.6988H33.2871V35.3583C33.2872 33.1791 31.5205 31.4124 29.3412 31.4124Z" fill="#80B4FB"/>
<path d="M16.7139 42.8557H33.2868V46.0124H16.7139V42.8557Z" fill="#4073C8"/>
<path d="M42.4189 31.4124C42.4189 31.817 42.7469 32.1448 43.1514 32.1448H49.2676C49.6721 32.1448 50 31.817 50 31.4124C50 25.1341 47.6808 19.1719 43.4562 14.5537L44.9841 12.4514C45.1959 12.1599 45.1643 11.7578 44.9097 11.503C44.9098 11.5029 44.9098 11.5028 44.9099 11.5027C39.5918 6.18446 32.521 3.25555 25 3.25555C24.5955 3.25555 24.2676 3.58339 24.2676 3.98798C24.2676 4.39257 24.5955 4.7204 25 4.7204C31.8423 4.7204 38.2904 7.27889 43.2552 11.9411L41.8608 12.9544C37.2438 8.73094 31.2809 6.41239 25 6.41239C21.2239 6.41239 17.5956 7.23329 14.2158 8.85243C13.851 9.02714 13.697 9.46464 13.8717 9.82938C14.0465 10.1941 14.484 10.3483 14.8486 10.1734C17.8103 8.75468 20.9755 7.98798 24.2676 7.88895V12.5437C21.9771 12.6304 19.7538 13.1226 17.6493 14.0131C15.6253 14.8689 13.7876 16.0586 12.1758 17.5522L8.88437 14.2608C9.84385 13.3592 10.878 12.537 11.9681 11.8122C12.3049 11.5883 12.3964 11.1336 12.1724 10.7968C11.9484 10.46 11.4938 10.3683 11.1569 10.5925C9.78408 11.5054 8.49375 12.5624 7.32187 13.7343C7.30684 13.7493 7.29248 13.765 7.27891 13.7812C2.58447 18.499 0 24.7578 0 31.4124C0 31.817 0.32793 32.1448 0.732422 32.1448H6.84863C7.25312 32.1448 7.58105 31.817 7.58105 31.4124C7.58105 26.7596 9.39297 22.3853 12.6829 19.0954C14.283 17.4952 16.1459 16.2393 18.2199 15.3623C20.3667 14.4539 22.6479 13.9933 25 13.9933C28.8154 13.9933 32.5229 15.2494 35.5421 17.5462L28.8975 22.3748C27.8812 21.4094 26.5091 20.8151 25 20.8151C21.8764 20.8151 19.3352 23.3563 19.3352 26.48C19.3352 28.144 20.0566 29.6427 21.2029 30.68H20.6595C18.0798 30.68 15.9812 32.7787 15.9812 35.3584V39.6989C15.9812 40.1035 16.3091 40.4313 16.7136 40.4313H33.2865C33.691 40.4313 34.0189 40.1035 34.0189 39.6989V35.3584C34.0189 33.5143 32.9462 31.9165 31.3922 31.1549L34.5788 26.7696C34.8166 26.4424 34.744 25.9844 34.4169 25.7465C34.0896 25.5087 33.6315 25.5812 33.3937 25.9084L29.9012 30.7146C29.7172 30.6926 29.5304 30.6799 29.3405 30.6799H28.7971C29.9434 29.6426 30.6648 28.1439 30.6648 26.4799C30.6648 25.3927 30.3563 24.3765 29.8231 23.5129L41.0785 15.3336L35.4026 23.1438C35.1648 23.4711 35.2373 23.9291 35.5646 24.167C35.6946 24.2614 35.8452 24.307 35.9945 24.307C36.221 24.3069 36.4443 24.2023 36.5876 24.0051L38.8663 20.8695C39.7495 22.0293 40.4825 23.2911 41.0501 24.6323C41.9584 26.779 42.4189 29.0602 42.4189 31.4124ZM6.12998 30.68H1.47598C1.65117 24.9133 3.89473 19.5023 7.85059 15.2988L11.1398 18.5881C8.06074 21.9097 6.30137 26.154 6.12998 30.68ZM25.7324 12.5436V7.88973C31.2749 8.05927 36.5157 10.1495 40.6484 13.8353L36.775 16.6502C33.6315 14.1408 29.7554 12.7001 25.7324 12.5436ZM29.3405 32.1448C31.1125 32.1448 32.554 33.5864 32.554 35.3584V38.9665H29.8756V37.7259C29.8756 37.3213 29.5477 36.9934 29.1432 36.9934C28.7387 36.9934 28.4107 37.3213 28.4107 37.7259V38.9665H21.5891V37.7259C21.5891 37.3213 21.2611 36.9934 20.8566 36.9934C20.4521 36.9934 20.1242 37.3213 20.1242 37.7259V38.9665H17.4458V35.3584C17.4458 33.5863 18.8874 32.1448 20.6593 32.1448H29.3405ZM25 30.68C22.6841 30.68 20.8 28.7959 20.8 26.48C20.8 24.164 22.6841 22.28 25 22.28C27.3159 22.28 29.2 24.164 29.2 26.48C29.2 28.7959 27.3159 30.68 25 30.68ZM42.5753 15.7658C46.2622 19.8996 48.3543 25.1397 48.5239 30.68H43.8699C43.7833 28.3893 43.2896 26.1662 42.399 24.0615C41.7269 22.473 40.8405 20.9874 39.762 19.637L42.5753 15.7658Z" fill="black"/>
<path d="M33.2861 42.1232H22.4043C21.9998 42.1232 21.6719 42.4511 21.6719 42.8557C21.6719 43.2602 21.9998 43.5881 22.4043 43.5881H32.5537V45.2795H17.4463V43.5881H18.9863C19.3908 43.5881 19.7188 43.2602 19.7188 42.8557C19.7188 42.4511 19.3908 42.1232 18.9863 42.1232H16.7139C16.3094 42.1232 15.9814 42.4511 15.9814 42.8557V46.0119C15.9814 46.4165 16.3094 46.7443 16.7139 46.7443H33.2861C33.6906 46.7443 34.0186 46.4165 34.0186 46.0119V42.8557C34.0186 42.4512 33.6906 42.1232 33.2861 42.1232Z" fill="black"/>
<path d="M49.2676 33.7492H43.1514C42.7469 33.7492 42.4189 34.077 42.4189 34.4816C42.4189 34.8862 42.7469 35.2141 43.1514 35.2141H49.2676C49.6721 35.2141 50 34.8862 50 34.4816C50 34.077 49.6721 33.7492 49.2676 33.7492Z" fill="black"/>
<path d="M47.2943 36.9059H45.124C44.7195 36.9059 44.3916 37.2338 44.3916 37.6384C44.3916 38.043 44.7195 38.3708 45.124 38.3708H47.2943C47.6988 38.3708 48.0268 38.043 48.0268 37.6384C48.0268 37.2338 47.6988 36.9059 47.2943 36.9059Z" fill="black"/>
<path d="M6.84863 33.7492H0.732422C0.32793 33.7492 0 34.077 0 34.4816C0 34.8862 0.32793 35.2141 0.732422 35.2141H6.84863C7.25312 35.2141 7.58105 34.8862 7.58105 34.4816C7.58105 34.077 7.25312 33.7492 6.84863 33.7492Z" fill="black"/>
<path d="M4.87539 36.9059H2.70508C2.30059 36.9059 1.97266 37.2338 1.97266 37.6384C1.97266 38.043 2.30059 38.3708 2.70508 38.3708H4.87539C5.27988 38.3708 5.60781 38.043 5.60781 37.6384C5.60781 37.2338 5.27988 36.9059 4.87539 36.9059Z" fill="black"/>
</svg>
