<svg width="50" height="50" viewBox="0 0 50 50" fill="none" xmlns="http://www.w3.org/2000/svg">
<path d="M38.6336 46.3614H15.5284C14.9712 46.3614 14.4367 46.1398 14.0431 45.7453L8.95439 40.6485C8.56152 40.2549 8.34082 39.7216 8.34082 39.1655V5.80667C8.34082 5.57483 8.52881 5.38684 8.76064 5.38684H38.6337C38.8655 5.38684 39.0535 5.57483 39.0535 5.80667V45.9415C39.0534 46.1734 38.8654 46.3614 38.6336 46.3614Z" fill="#AEE0F4"/>
<path d="M22.9574 2.89912C22.9574 1.67627 21.9443 0.690043 20.7117 0.733891C19.5376 0.77559 18.624 1.77627 18.624 2.95108V4.34522H22.9573L22.9574 2.89912Z" fill="#FBC96D"/>
<path d="M35.0981 9.529L35.7708 48.4628C35.7708 48.6952 35.5833 48.8827 35.3509 48.8827L32.2207 49.2677H14.0801C13.7979 49.2677 13.5225 49.2071 13.2705 49.0919L12.8504 42.4886C12.8504 42.2728 12.6756 42.0979 12.4598 42.0979L5.61035 41.422C5.49512 41.171 5.43457 40.8946 5.43457 40.6134V8.71289C5.43457 8.48145 5.62305 8.29297 5.85449 8.29297H33.9014L34.6782 9.10908C34.9106 9.10908 35.0981 9.29756 35.0981 9.529Z" fill="#DFF8FF"/>
<path d="M13.2705 41.8125V49.0918C13.0586 48.9961 12.8652 48.8613 12.6982 48.6943L6.00586 41.9941C5.83984 41.8271 5.70605 41.6338 5.61035 41.4219H12.8799C13.0957 41.4219 13.2705 41.5967 13.2705 41.8125Z" fill="#AEE0F4"/>
<path d="M27.5778 9.92166H14.0049C13.7892 9.92166 13.6143 9.74675 13.6143 9.53103V5.09851C13.6143 4.28953 14.2701 3.63367 15.0791 3.63367H26.5036C27.3126 3.63367 27.9685 4.28953 27.9685 5.09851V9.53093C27.9685 9.74675 27.7937 9.92166 27.5778 9.92166Z" fill="#FFDA8F"/>
<path d="M35.7275 8.29297H33.9014V19.8133L35.7708 28.0854L33.9014 31.4834V47.1133C33.9014 48.3027 32.9365 49.2676 31.7471 49.2676H35.7275C35.9595 49.2676 36.1475 49.0796 36.1475 48.8477V43.5566V20.543V8.71289C36.1475 8.48145 35.96 8.29297 35.7275 8.29297Z" fill="#C0ECFC"/>
<path d="M14.7076 34.6276C17.6846 34.6276 20.0979 32.2143 20.0979 29.2373C20.0979 26.2604 17.6846 23.8471 14.7076 23.8471C11.7307 23.8471 9.31738 26.2604 9.31738 29.2373C9.31738 32.2143 11.7307 34.6276 14.7076 34.6276Z" fill="#52D8A4"/>
<path d="M29.5293 18.3641H12.0518C11.8899 18.3641 11.7588 18.233 11.7588 18.0712V14.1208C11.7588 13.959 11.8899 13.8278 12.0518 13.8278H29.5293C29.6911 13.8278 29.8223 13.959 29.8223 14.1208V18.0712C29.8223 18.233 29.6911 18.3641 29.5293 18.3641Z" fill="#AEE0F4"/>
<path d="M43.1713 33.0902L43.1838 36.4458C43.1838 36.7338 42.9503 36.9672 42.6624 36.9672L40.0027 37.3004H31.3798C31.0918 37.3004 30.8584 37.067 30.8584 36.779V33.0106L43.1713 33.0902Z" fill="#FFDA8F"/>
<path d="M43.529 33.09V36.7791C43.529 37.0672 43.2957 37.3005 43.0076 37.3005H40.0029V33.0679L43.529 33.09Z" fill="#FBC96D"/>
<path d="M38.8404 30.1643L39.1479 25.508C39.1479 24.2999 39.402 23.1054 39.8936 22.0018C40.3852 20.8983 40.792 19.7295 40.792 18.5215V17.9743C40.792 15.7512 39.5309 14.3011 37.3077 14.3011C36.8516 14.3011 35.8906 14.1926 35.8906 14.1926C34.3072 14.7342 33.1689 16.2359 33.1689 18.0029V18.5501C33.1689 19.7582 33.423 20.9527 33.9146 22.0562C33.9281 22.0866 33.9415 22.1171 33.9546 22.1476C34.8172 22.5394 35.087 23.3491 34.5356 24.1033C34.6183 24.584 34.6601 25.0721 34.6601 25.5624V30.1643H38.8404Z" fill="#D37F66"/>
<path d="M41.2194 18.0027V18.5502C41.2194 19.1551 41.1556 19.7547 41.0304 20.3426C40.9053 20.9305 40.7201 21.5041 40.4737 22.0567C40.4603 22.087 40.447 22.1173 40.4339 22.1477C39.4239 22.6804 39.2583 23.2202 39.8532 24.0992C39.7702 24.581 39.7281 25.0703 39.7281 25.562V30.1648H37.1211V25.562C37.1211 24.3536 37.3753 23.1596 37.8667 22.0568C38.1131 21.5041 38.2981 20.9306 38.4233 20.3427C38.5484 19.7548 38.6124 19.1552 38.6124 18.5503V18.0028C38.6124 16.2365 37.4744 14.7349 35.8906 14.1926C36.2999 14.0531 36.7379 13.9775 37.1941 13.9775C39.418 13.9774 41.2194 15.7803 41.2194 18.0027Z" fill="#C17467"/>
<path d="M43.7855 33.532L40.0033 33.7296H30.3437C30.0557 33.7296 29.8223 33.4961 29.8223 33.2082V31.9621C29.8223 30.4572 31.0422 29.2373 32.5471 29.2373H37.7371L41.6876 29.4158C43.1925 29.4158 44.3008 30.5732 44.3008 32.0781L44.3069 33.0105C44.307 33.2986 44.0735 33.532 43.7855 33.532Z" fill="#DD8D6B"/>
<path d="M44.5651 31.9625V33.2087C44.5651 33.4968 44.3318 33.7301 44.0438 33.7301H40.0027V31.9625C40.0027 30.4569 38.7839 29.2368 37.2783 29.2368H41.8407C43.3463 29.2367 44.5651 30.4568 44.5651 31.9625Z" fill="#D37F66"/>
<path d="M42.5244 28.5049H40.4604V25.5623C40.4604 24.4497 40.69 23.3704 41.1427 22.3541C41.6795 21.1491 41.9517 19.8692 41.9517 18.5499V18.0027C41.9517 16.3346 41.088 14.8652 39.7851 14.0156V5.80664C39.7851 5.17119 39.2682 4.6543 38.6327 4.6543H35.2645C34.8601 4.6543 34.5321 4.98213 34.5321 5.38672C34.5321 5.79131 34.8601 6.11914 35.2645 6.11914H38.3202V13.3809C37.8627 13.2685 37.3613 13.2213 36.8788 13.2565V8.71299C36.8788 8.07764 36.3619 7.56074 35.7266 7.56074H28.6995V6.11914H31.8466C32.2511 6.11914 32.579 5.79131 32.579 5.38672C32.579 4.98213 32.2511 4.6543 31.8466 4.6543H28.6544C28.4484 3.65498 27.5617 2.90127 26.5023 2.90127H23.6892V2.89912C23.6893 1.30049 22.3887 0 20.7901 0C19.1915 0 17.891 1.30049 17.891 2.89912V2.90127H15.0778C14.0184 2.90127 13.1316 3.65508 12.9257 4.65439H8.75996C8.12461 4.65439 7.60771 5.17129 7.60771 5.80664V7.56055H5.85352C5.21816 7.56055 4.70117 8.07744 4.70117 8.71289V11.585C4.70117 11.9896 5.0291 12.3174 5.43359 12.3174C5.83809 12.3174 6.16602 11.9896 6.16602 11.585V9.02539H12.8807V9.53105C12.8807 10.1503 13.3845 10.6541 14.0037 10.6541H27.5767C28.1959 10.6541 28.6997 10.1503 28.6997 9.53105V9.02559H35.4141V13.5917C33.6701 14.2979 32.4361 16.0085 32.4361 18.0027V18.5499C32.4361 19.8692 32.7083 21.1491 33.2451 22.3541C33.7203 23.4168 33.9459 24.5541 33.9273 25.7173H23.0707C22.6662 25.7173 22.3383 26.0451 22.3383 26.4497C22.3383 26.8543 22.6662 27.1821 23.0707 27.1821H33.9273V28.5048H31.8633C30.8619 28.5048 29.9829 29.0384 29.4953 29.836H23.0708C22.6663 29.836 22.3384 30.1639 22.3384 30.5685C22.3384 30.973 22.6663 31.3009 23.0708 31.3009H29.0899V33.3388C29.0899 33.9287 29.5475 34.4129 30.1263 34.4574V36.9098C30.1263 37.529 30.6301 38.0328 31.2493 38.0328H35.4142V48.5352H20.332C19.9275 48.5352 19.5996 48.863 19.5996 49.2676C19.5996 49.6722 19.9275 50 20.332 50H35.7266C36.3619 50 36.8789 49.4831 36.8789 48.8477V47.0937H38.6329C39.2683 47.0937 39.7852 46.5768 39.7852 45.9414V38.0329H43.1386C43.7578 38.0329 44.2616 37.5291 44.2616 36.9099V34.4575C44.8408 34.4134 45.2988 33.9291 45.2988 33.3389V31.2783C45.2988 29.749 44.0542 28.5049 42.5244 28.5049ZM19.3559 2.89912C19.3559 2.1082 19.9992 1.46484 20.7901 1.46484C21.581 1.46484 22.2244 2.1082 22.2244 2.89912V2.90127H19.3559V2.89912ZM9.07256 7.56055V6.11924H12.8807V7.56055H9.07256ZM27.2349 9.18926H14.3455V5.09854C14.3455 4.69463 14.674 4.36611 15.0779 4.36611H26.5024C26.9063 4.36611 27.2349 4.69463 27.2349 5.09854V9.18926ZM33.901 18.0028C33.901 16.1871 35.3781 14.7099 37.1939 14.7099C39.0097 14.7099 40.4868 16.1871 40.4868 18.0028V18.55C40.4868 19.6626 40.2572 20.7419 39.8046 21.7582C39.7112 21.9677 39.6265 22.1795 39.5492 22.3934H34.8386C34.7613 22.1796 34.6766 21.9677 34.5832 21.7582C34.1306 20.742 33.901 19.6626 33.901 18.55V18.0028ZM35.2368 23.8581H39.151C39.0477 24.4167 38.9956 24.9857 38.9956 25.5623V28.5049H35.3922V25.5623C35.3922 24.9857 35.3402 24.4167 35.2368 23.8581ZM38.3203 45.6288H36.8789V38.0329H38.3203V45.6288ZM31.591 36.5681V34.4619H37.6885C38.093 34.4619 38.4209 34.1341 38.4209 33.7295C38.4209 33.3249 38.093 32.9971 37.6885 32.9971H30.5547V31.2783C30.5547 30.5567 31.1417 29.9697 31.8633 29.9697H42.5244C43.2466 29.9697 43.834 30.5568 43.834 31.2783V32.9971H41.1064C40.702 32.9971 40.374 33.3249 40.374 33.7295C40.374 34.1341 40.702 34.4619 41.1064 34.4619H42.7969V36.5681H31.591Z" fill="black"/>
<path d="M11.5665 29.8462L13.4554 31.8052C13.5918 31.9466 13.7794 32.0273 13.976 32.0292H13.9826C14.1768 32.0292 14.3631 31.952 14.5005 31.8147L17.8379 28.4772C18.1239 28.1911 18.1239 27.7274 17.8379 27.4414C17.5519 27.1554 17.0881 27.1554 16.8022 27.4414L13.9922 30.2514L12.621 28.8294C12.3402 28.5382 11.8766 28.5299 11.5854 28.8105C11.2942 29.0914 11.2858 29.555 11.5665 29.8462Z" fill="black"/>
<path d="M8.58398 29.2374C8.58398 32.6134 11.3306 35.36 14.7066 35.36C18.0827 35.36 20.8293 32.6134 20.8293 29.2374C20.8293 25.8613 18.0827 23.1147 14.7066 23.1147C11.3306 23.1147 8.58398 25.8612 8.58398 29.2374ZM14.7066 24.5795C17.275 24.5795 19.3645 26.6689 19.3645 29.2373C19.3645 31.8056 17.275 33.895 14.7066 33.895C12.1383 33.895 10.0488 31.8056 10.0488 29.2373C10.0488 26.669 12.1383 24.5795 14.7066 24.5795Z" fill="black"/>
<path d="M29.8223 19.0966C30.2268 19.0966 30.5547 18.7688 30.5547 18.3642V13.8279C30.5547 13.4234 30.2268 13.0955 29.8223 13.0955H11.7588C11.3543 13.0955 11.0264 13.4234 11.0264 13.8279V18.3642C11.0264 18.7688 11.3543 19.0966 11.7588 19.0966H29.8223ZM12.4912 14.5604H29.0898V17.6317H12.4912V14.5604Z" fill="black"/>
<path d="M21.1189 45.243C21.654 44.3757 21.9344 43.3865 21.9457 42.3871L23.0847 42.0989L23.5925 42.9694C23.8256 43.3689 24.2409 43.6085 24.7034 43.6105H24.7091C25.1694 43.6105 25.5841 43.3746 25.8197 42.9787L26.5818 41.6973L26.886 42.1682C27.3531 42.891 28.0763 43.3754 28.9226 43.5322C29.7689 43.6889 30.6175 43.4953 31.3123 42.9876L31.64 42.7482C31.9666 42.5096 32.0379 42.0513 31.7993 41.7247C31.5607 41.3983 31.1025 41.3269 30.7758 41.5655L30.4481 41.8049C30.082 42.0723 29.6347 42.1742 29.1893 42.0918C28.7435 42.0093 28.3625 41.7541 28.1165 41.3735L27.4356 40.3195C27.24 40.0166 26.9092 39.8357 26.5474 39.8466C26.187 39.8532 25.8618 40.0423 25.6776 40.3521L24.7104 41.9783L24.2383 41.1692C23.977 40.7211 23.4433 40.4969 22.9407 40.6244L21.7661 40.9217C21.4202 39.0857 18.9712 38.3947 17.6997 39.7529C17.3932 40.0169 17.3588 40.4793 17.6227 40.7858C17.8867 41.0924 18.3492 41.1267 18.6557 40.8627C19.1703 40.2311 20.2298 40.4686 20.35 41.2965C19.2855 41.6571 18.3682 42.357 17.738 43.2976C17.4234 43.7671 17.338 44.3462 17.5037 44.8865C17.6693 45.4269 18.0646 45.8586 18.5882 46.0712C18.8426 46.1744 19.1065 46.2238 19.3667 46.2238C20.0632 46.2238 20.7327 45.8689 21.1189 45.243ZM19.8722 44.4738C19.7185 44.7229 19.4101 44.8238 19.1389 44.7138C18.9837 44.6507 18.9251 44.5259 18.904 44.4572C18.8829 44.3884 18.8614 44.2522 18.9547 44.113C19.3299 43.5531 19.8476 43.1125 20.4498 42.8322C20.3779 43.4084 20.1836 43.9692 19.8722 44.4738Z" fill="black"/>
<path d="M16.9141 48.5352C16.9141 48.5352 14.0273 48.533 14.0017 48.5313V41.422C14.0017 41.0174 13.6737 40.6896 13.2692 40.6896H6.16982C6.16816 40.6642 6.16602 15.0029 6.16602 15.0029C6.16602 14.5983 5.83809 14.2705 5.43359 14.2705C5.0291 14.2705 4.70117 14.5983 4.70117 15.0029V40.6133C4.70117 41.3192 4.9873 42.011 5.48672 42.5116L12.1787 49.2114C12.6858 49.7199 13.3607 49.9999 14.0791 49.9999H16.9141C17.3186 49.9999 17.6465 49.6721 17.6465 49.2675C17.6465 48.8629 17.3186 48.5352 16.9141 48.5352ZM7.2002 42.1544H12.5367V47.4973L7.2002 42.1544Z" fill="black"/>
</svg>
