<svg width="20" height="20" viewBox="0 0 20 20" fill="none" xmlns="http://www.w3.org/2000/svg">
<path d="M4.6335 15.4167V14.5834C4.6335 13.9218 5.17194 13.3834 5.8335 13.3834H14.5827C16.7208 13.4524 16.7176 16.5492 14.5827 16.6167H5.8335C5.17194 16.6167 4.6335 16.0783 4.6335 15.4167ZM14.5835 15.8834C15.0707 15.8834 15.4668 15.4872 15.4668 15C15.4668 14.5128 15.0707 14.1167 14.5835 14.1167H5.8335C5.57585 14.1167 5.36683 14.3262 5.36683 14.5834V15.4167C5.36683 15.6739 5.57585 15.8834 5.8335 15.8834H14.5835Z" fill="#2C83EC" stroke="#2C83EC" stroke-width="0.1"/>
<path d="M8.75016 10.8834V10.8834L8.75106 10.8834C9.91362 10.8626 9.90945 9.13701 8.75104 9.11672V9.11671H8.75016H5.8335C5.57585 9.11671 5.36683 9.32621 5.36683 9.58337V10.4167C5.36683 10.6739 5.57585 10.8834 5.8335 10.8834H8.75016ZM5.8335 8.38337H8.74936C10.8865 8.45204 10.8857 11.5484 8.74936 11.6167H5.8335C5.17194 11.6167 4.6335 11.0783 4.6335 10.4167V9.58337C4.6335 8.92182 5.17194 8.38337 5.8335 8.38337Z" fill="#2C83EC" stroke="#2C83EC" stroke-width="0.1"/>
<path d="M17.5002 5.88338L17.5011 5.88337C17.789 5.87812 18.0081 5.76694 18.1545 5.60008C18.3002 5.43409 18.3716 5.21589 18.3711 4.9993C18.3706 4.78272 18.2982 4.5647 18.1523 4.39901C18.0057 4.23245 17.7872 4.12152 17.501 4.11671H17.5002H5.8335C5.57585 4.11671 5.36683 4.32621 5.36683 4.58337V5.41671C5.36683 5.67387 5.57585 5.88337 5.8335 5.88337L17.5002 5.88338ZM5.8335 3.38337H17.4994C19.6379 3.45242 19.6338 6.54963 17.4994 6.61671H5.8335C5.17194 6.61671 4.6335 6.07826 4.6335 5.41671V4.58337C4.6335 3.92182 5.17194 3.38337 5.8335 3.38337Z" fill="#2C83EC" stroke="#2C83EC" stroke-width="0.1"/>
</svg>
