<svg width="50" height="50" viewBox="0 0 50 50" fill="none" xmlns="http://www.w3.org/2000/svg">
<g clip-path="url(#clip0_311_3461)">
<path d="M7.04541 7.0459C8.78883 7.0459 10.2021 5.63258 10.2021 3.88916C10.2021 2.14574 8.78883 0.732422 7.04541 0.732422C5.30199 0.732422 3.88867 2.14574 3.88867 3.88916C3.88867 5.63258 5.30199 7.0459 7.04541 7.0459Z" fill="#FED2A4"/>
<path d="M8.13477 0.925415C8.25957 1.26487 8.32773 1.63167 8.32773 2.01438C8.32773 3.75784 6.91436 5.17112 5.171 5.17112C4.78828 5.17112 4.42148 5.10295 4.08203 4.97815C4.52559 6.18499 5.68516 7.04592 7.0458 7.04592C8.78926 7.04592 10.2025 5.63254 10.2025 3.88918C10.2026 2.52854 9.3416 1.36897 8.13477 0.925415Z" fill="#FFBD86"/>
<path d="M12.5703 14.3374H1.52158C1.08574 14.3374 0.732422 13.9841 0.732422 13.5483V10.9834C0.732422 8.80411 2.49912 7.03741 4.67842 7.03741H9.41357C11.5929 7.03741 13.3596 8.80411 13.3596 10.9834V13.5483C13.3595 13.9841 13.0062 14.3374 12.5703 14.3374Z" fill="#FD8087"/>
<path d="M9.41357 7.03741H6.25684C8.43613 7.03741 10.2028 8.80411 10.2028 10.9834V13.5483C10.2028 13.9841 9.84951 14.3374 9.41367 14.3374H12.5704C13.0062 14.3374 13.3596 13.9841 13.3596 13.5483V10.9834C13.3596 8.80402 11.5929 7.03741 9.41357 7.03741Z" fill="#FE646F"/>
<path d="M7.04541 24.511C8.78883 24.511 10.2021 23.0977 10.2021 21.3543C10.2021 19.6109 8.78883 18.1976 7.04541 18.1976C5.30199 18.1976 3.88867 19.6109 3.88867 21.3543C3.88867 23.0977 5.30199 24.511 7.04541 24.511Z" fill="#FED2A4"/>
<path d="M8.13477 18.3905C8.25957 18.73 8.32773 19.0968 8.32773 19.4795C8.32773 21.2229 6.91436 22.6362 5.171 22.6362C4.78828 22.6362 4.42148 22.568 4.08203 22.4432C4.52559 23.6501 5.68516 24.511 7.0458 24.511C8.78926 24.511 10.2025 23.0976 10.2025 21.3543C10.2026 19.9935 9.3416 18.8341 8.13477 18.3905Z" fill="#FFBD86"/>
<path d="M12.5703 31.8024H1.52158C1.08574 31.8024 0.732422 31.4491 0.732422 31.0133V28.4484C0.732422 26.2691 2.49912 24.5024 4.67842 24.5024H9.41357C11.5929 24.5024 13.3596 26.2691 13.3596 28.4484V31.0133C13.3595 31.4491 13.0062 31.8024 12.5703 31.8024Z" fill="#99E6FC"/>
<path d="M9.41357 24.5024H6.25684C8.43613 24.5024 10.2028 26.2691 10.2028 28.4484V31.0133C10.2028 31.4491 9.84951 31.8024 9.41367 31.8024H12.5704C13.0062 31.8024 13.3596 31.4491 13.3596 31.0133V28.4484C13.3596 26.2691 11.5929 24.5024 9.41357 24.5024Z" fill="#62DBFB"/>
<path d="M7.04541 41.9762C8.78883 41.9762 10.2021 40.5629 10.2021 38.8195C10.2021 37.076 8.78883 35.6627 7.04541 35.6627C5.30199 35.6627 3.88867 37.076 3.88867 38.8195C3.88867 40.5629 5.30199 41.9762 7.04541 41.9762Z" fill="#FED2A4"/>
<path d="M8.13477 35.8556C8.25957 36.195 8.32773 36.5618 8.32773 36.9446C8.32773 38.688 6.91436 40.1013 5.171 40.1013C4.78828 40.1013 4.42148 40.0331 4.08203 39.9083C4.52559 41.1152 5.68516 41.9761 7.0458 41.9761C8.78926 41.9761 10.2025 40.5627 10.2025 38.8194C10.2026 37.4587 9.3416 36.2991 8.13477 35.8556Z" fill="#FFBD86"/>
<path d="M12.5703 49.2676H1.52158C1.08574 49.2676 0.732422 48.9143 0.732422 48.4784V45.9136C0.732422 43.7343 2.49912 41.9676 4.67842 41.9676H9.41357C11.5929 41.9676 13.3596 43.7343 13.3596 45.9136V48.4784C13.3595 48.9143 13.0062 49.2676 12.5703 49.2676Z" fill="#BBEC6C"/>
<path d="M9.41357 41.9676H6.25684C8.43613 41.9676 10.2028 43.7343 10.2028 45.9136V48.4784C10.2028 48.9143 9.84951 49.2676 9.41367 49.2676H12.5704C13.0062 49.2676 13.3596 48.9143 13.3596 48.4784V45.9136C13.3596 43.7343 11.5929 41.9676 9.41357 41.9676Z" fill="#A2E62E"/>
<path d="M25.9941 9.60223H46.9004C48.208 9.60223 49.268 10.6622 49.268 11.9698C49.268 13.2774 48.208 14.3374 46.9004 14.3374H25.9941V9.60223Z" fill="#C8EFFE"/>
<path d="M19.6732 9.60223H25.994C27.3017 9.60223 28.3616 10.6622 28.3616 11.9698C28.3616 13.2774 27.3017 14.3374 25.994 14.3374H19.6732C18.3656 14.3374 17.3057 13.2774 17.3057 11.9698C17.3057 10.6622 18.3657 9.60223 19.6732 9.60223Z" fill="#528FD8"/>
<path d="M25.9939 11.9698H19.6731C18.797 11.9698 18.0325 11.4934 17.6231 10.786C17.4216 11.1344 17.3057 11.5385 17.3057 11.9698C17.3057 13.2774 18.3656 14.3374 19.6732 14.3374H25.994C27.3017 14.3374 28.3616 13.2774 28.3616 11.9698C28.3616 11.5385 28.2457 11.1344 28.0441 10.786C27.6346 11.4934 26.8701 11.9698 25.9939 11.9698Z" fill="#0573CE"/>
<path d="M37.6309 27.0674H46.9002C48.2078 27.0674 49.2678 28.1273 49.2678 29.435C49.2678 30.7426 48.2078 31.8025 46.9002 31.8025H37.6309V27.0674Z" fill="#C8EFFE"/>
<path d="M19.6732 27.0674H38.4201C39.7277 27.0674 40.7877 28.1273 40.7877 29.435C40.7877 30.7426 39.7277 31.8025 38.4201 31.8025H19.6732C18.3656 31.8025 17.3057 30.7426 17.3057 29.435C17.3057 28.1273 18.3657 27.0674 19.6732 27.0674Z" fill="#528FD8"/>
<path d="M38.42 29.4349H19.6731C18.797 29.4349 18.0325 28.9585 17.6231 28.2511C17.4216 28.5994 17.3057 29.0035 17.3057 29.4349C17.3057 30.7425 18.3656 31.8025 19.6732 31.8025H38.4201C39.7276 31.8025 40.7877 30.7425 40.7877 29.4349C40.7877 29.0035 40.6718 28.5994 40.4702 28.2511C40.0606 28.9586 39.2963 29.4349 38.42 29.4349Z" fill="#0573CE"/>
<path d="M42.9541 44.5324H46.9001C48.2077 44.5324 49.2677 45.5924 49.2677 46.9C49.2677 48.2076 48.2077 49.2676 46.9001 49.2676H42.9541V44.5324Z" fill="#C8EFFE"/>
<path d="M19.6732 44.5324H42.9544C44.262 44.5324 45.322 45.5924 45.322 46.9C45.322 48.2076 44.262 49.2676 42.9544 49.2676H19.6732C18.3656 49.2676 17.3057 48.2076 17.3057 46.9C17.3057 45.5925 18.3657 44.5324 19.6732 44.5324Z" fill="#528FD8"/>
<path d="M42.9544 46.8013H19.6732C18.8175 46.8013 18.0679 46.3472 17.652 45.6669C17.4323 46.026 17.3057 46.4482 17.3057 46.9C17.3057 48.2076 18.3656 49.2676 19.6732 49.2676H42.9544C44.262 49.2676 45.322 48.2076 45.322 46.9C45.322 46.4482 45.1953 46.026 44.9757 45.6669C44.5598 46.3472 43.8102 46.8013 42.9544 46.8013Z" fill="#0573CE"/>
<path d="M10.0527 6.34971C10.6028 5.67871 10.9352 4.82256 10.9352 3.88916C10.9352 1.74473 9.19043 0 7.0459 0C4.90137 0 3.15674 1.74473 3.15674 3.88916C3.15674 4.82236 3.48838 5.67881 4.03838 6.3498C1.76055 6.66299 0 8.6208 0 10.9833V13.5481C0 14.3871 0.682617 15.0697 1.52168 15.0697H12.5703C13.4093 15.0697 14.0919 14.3871 14.0919 13.5481V10.9833C14.0919 8.62051 12.3309 6.6625 10.0527 6.34971ZM7.0459 1.46484C8.38262 1.46484 9.47021 2.55244 9.47021 3.88916C9.47021 5.22588 8.38272 6.31348 7.0459 6.31348C5.70908 6.31348 4.62158 5.22598 4.62158 3.88916C4.62158 2.55234 5.70918 1.46484 7.0459 1.46484ZM12.6271 13.5481C12.6271 13.5794 12.6016 13.6049 12.5703 13.6049H10.9352V12.5616C10.9352 12.1571 10.6072 11.8292 10.2027 11.8292C9.79824 11.8292 9.47031 12.1571 9.47031 12.5616V13.6049H4.62168V12.5616C4.62168 12.1571 4.29375 11.8292 3.88926 11.8292C3.48477 11.8292 3.15684 12.1571 3.15684 12.5616V13.6049H1.52168C1.49033 13.6049 1.46484 13.5794 1.46484 13.5481V10.9833C1.46484 9.21133 2.90645 7.76973 4.67842 7.76973H9.41357C11.1855 7.76973 12.6271 9.21133 12.6271 10.9833V13.5481Z" fill="black"/>
<path d="M1.52148 32.5352H5.32227C5.72676 32.5352 6.05469 32.2072 6.05469 31.8027C6.05469 31.3983 5.72676 31.0703 5.32227 31.0703H4.62158V30.0268C4.62158 29.6223 4.29365 29.2943 3.88916 29.2943C3.48467 29.2943 3.15674 29.6223 3.15674 30.0268V31.0703H1.52148C1.49023 31.0703 1.46484 31.0449 1.46484 31.0137V28.4483C1.46484 26.6767 2.90664 25.2354 4.67871 25.2354H9.41309C11.1852 25.2354 12.627 26.6767 12.627 28.4483V31.0137C12.627 31.0449 12.6016 31.0703 12.5703 31.0703H10.9351V30.0268C10.9351 29.6223 10.6071 29.2943 10.2026 29.2943C9.79814 29.2943 9.47021 29.6223 9.47021 30.0268V31.0703H8.74023C8.33574 31.0703 8.00781 31.3983 8.00781 31.8027C8.00781 32.2072 8.33574 32.5352 8.74023 32.5352H12.5703C13.4093 32.5352 14.0918 31.8526 14.0918 31.0137V28.4483C14.0918 26.0859 12.3307 24.128 10.0522 23.8153C10.6026 23.1443 10.9351 22.2879 10.9351 21.3543C10.9351 19.2099 9.19033 17.4651 7.0459 17.4651C4.90146 17.4651 3.15674 19.2099 3.15674 21.3543C3.15674 22.2879 3.48926 23.1443 4.03965 23.8153C1.76123 24.1279 0 26.0858 0 28.4483V31.0137C0 31.8526 0.68252 32.5352 1.52148 32.5352ZM7.0459 18.93C8.38262 18.93 9.47021 20.0176 9.47021 21.3543C9.47021 22.691 8.38262 23.7786 7.0459 23.7786C5.70918 23.7786 4.62158 22.691 4.62158 21.3543C4.62158 20.0176 5.70918 18.93 7.0459 18.93Z" fill="black"/>
<path d="M10.0547 41.2802C10.6044 40.6093 10.9351 39.7524 10.9351 38.8195C10.9351 36.675 9.19033 34.9303 7.0459 34.9303C4.90146 34.9303 3.15674 36.675 3.15674 38.8195C3.15674 39.7524 3.48721 40.6094 4.03691 41.2803C1.75977 41.5941 0 43.5516 0 45.9135V48.4783C0 49.3174 0.682617 50 1.52168 50H12.5703C13.4093 50 14.0919 49.3174 14.0919 48.4783V45.9135C14.0919 43.5515 12.3319 41.5939 10.0547 41.2802ZM7.0459 36.3951C8.38262 36.3951 9.47021 37.4827 9.47021 38.8195C9.47021 40.1562 8.38262 41.2438 7.0459 41.2438C5.70918 41.2438 4.62158 40.1562 4.62158 38.8195C4.62158 37.4827 5.70918 36.3951 7.0459 36.3951ZM12.6271 48.4783C12.6271 48.5097 12.6016 48.5352 12.5703 48.5352H10.9352V47.4919C10.9352 47.0874 10.6072 46.7595 10.2027 46.7595C9.79824 46.7595 9.47031 47.0874 9.47031 47.4919V48.5352H4.62168V47.4919C4.62168 47.0874 4.29375 46.7595 3.88926 46.7595C3.48477 46.7595 3.15684 47.0874 3.15684 47.4919V48.5352H1.52168C1.49033 48.5352 1.46484 48.5097 1.46484 48.4783V45.9135C1.46484 44.1415 2.90645 42.7 4.67842 42.7H9.41357C11.1855 42.7 12.6271 44.1416 12.6271 45.9135V48.4783Z" fill="black"/>
<path d="M19.6729 15.0693H46.9004C47.7295 15.0693 48.5082 14.7467 49.0922 14.1614C49.6775 13.5759 50 12.7976 50 11.9697C50 10.2606 48.6096 8.87012 46.9004 8.87012H38.8086C38.404 8.87012 38.0762 9.19805 38.0762 9.60254C38.0762 10.007 38.404 10.335 38.8086 10.335H46.9003C47.8017 10.335 48.5351 11.0683 48.5351 11.9697C48.5351 12.4063 48.365 12.8169 48.0558 13.1262C47.7479 13.4347 47.3376 13.6045 46.9003 13.6045H28.6261C28.9221 13.1296 29.0938 12.5694 29.0938 11.9698C29.0938 11.3701 28.9221 10.81 28.626 10.335H35.3906C35.7952 10.335 36.123 10.007 36.123 9.60254C36.123 9.19805 35.7952 8.87012 35.3906 8.87012H19.6729C18.8449 8.87012 18.0666 9.19258 17.4812 9.77793C16.8957 10.3633 16.5732 11.1417 16.5732 11.9696C16.5732 13.6788 17.9638 15.0693 19.6729 15.0693ZM18.5169 10.8138C18.8257 10.505 19.2362 10.335 19.6729 10.335H26.0004C26.8989 10.3386 27.6289 11.0704 27.6289 11.9698C27.6289 12.8686 26.9 13.5999 26.0023 13.6045H19.6729C18.7715 13.6045 18.0381 12.8711 18.0381 11.9697C18.0381 11.5331 18.2081 11.1226 18.5169 10.8138Z" fill="black"/>
<path d="M46.9003 26.3348H19.6732C17.964 26.3348 16.5732 27.7255 16.5732 29.4348C16.5732 31.1441 17.9639 32.5348 19.6732 32.5348H46.9003C48.6097 32.5348 50.0003 31.1442 50.0003 29.4348C50.0003 27.7256 48.6097 26.3348 46.9003 26.3348ZM18.0382 29.4349C18.0382 28.5333 18.7717 27.7998 19.6733 27.7998H38.4202C39.3218 27.7998 40.0553 28.5333 40.0553 29.4349C40.0553 30.3365 39.3218 31.0701 38.4202 31.0701H19.6732C18.7717 31.07 18.0382 30.3365 18.0382 29.4349ZM46.9003 31.07H41.0521C41.3483 30.595 41.5201 30.0347 41.5201 29.4348C41.5201 28.8349 41.3483 28.2747 41.0521 27.7997H46.9003C47.8019 27.7997 48.5354 28.5332 48.5354 29.4348C48.5354 30.3365 47.8019 31.07 46.9003 31.07Z" fill="black"/>
<path d="M46.9004 43.7998H19.6729C18.845 43.7998 18.0666 44.1223 17.4812 44.7077C16.8957 45.2932 16.5732 46.0719 16.5732 46.9004C16.5732 48.6095 17.9638 50 19.6729 50H25.2255C25.6301 50 25.9579 49.6721 25.9579 49.2676C25.9579 48.8631 25.6301 48.5352 25.2255 48.5352H19.6729C18.7715 48.5352 18.0381 47.8018 18.0381 46.9004C18.0381 46.4631 18.2081 46.0522 18.5169 45.7436C18.8257 45.4348 19.2362 45.2646 19.6729 45.2646H42.9493C42.9509 45.2646 42.9524 45.2648 42.954 45.2648C43.8556 45.2648 44.5892 45.9983 44.5892 46.9C44.5892 47.8016 43.8556 48.5352 42.954 48.5352H28.6436C28.239 48.5352 27.9111 48.8631 27.9111 49.2676C27.9111 49.6721 28.239 50 28.6436 50H46.9004C47.7295 50 48.5082 49.6773 49.0916 49.0927C49.6773 48.5082 50 47.7296 50 46.9004C50 45.1907 48.6096 43.7998 46.9004 43.7998ZM48.0559 48.0568C47.748 48.3653 47.3377 48.5352 46.9004 48.5352H45.5861C45.8823 48.0602 46.0541 47.4999 46.0541 46.9C46.0541 46.3001 45.8822 45.7397 45.5859 45.2646H46.9004C47.8018 45.2646 48.5352 45.9984 48.5352 46.9004C48.5352 47.3377 48.3653 47.748 48.0559 48.0568Z" fill="black"/>
<path d="M19.5322 41.3757C19.5322 41.7802 19.8602 42.1081 20.2646 42.1081H28.6436C29.0481 42.1081 29.376 41.7802 29.376 41.3757C29.376 40.9712 29.0481 40.6432 28.6436 40.6432H20.2646C19.8602 40.6432 19.5322 40.9712 19.5322 41.3757Z" fill="black"/>
<path d="M28.6438 38.951C29.0483 38.951 29.3762 38.6231 29.3762 38.2186C29.3762 37.8141 29.0483 37.4862 28.6438 37.4862H25.7861C25.3815 37.4862 25.0537 37.8141 25.0537 38.2186C25.0537 38.6231 25.3815 38.951 25.7861 38.951H28.6438Z" fill="black"/>
<path d="M22.629 38.951C23.0335 38.951 23.3614 38.6231 23.3614 38.2186C23.3614 37.8141 23.0335 37.4862 22.629 37.4862H21.251C20.8465 37.4862 20.5186 37.8141 20.5186 38.2186C20.5186 38.6231 20.8465 38.951 21.251 38.951H22.629Z" fill="black"/>
<path d="M19.5322 23.9105C19.5322 24.315 19.8602 24.6429 20.2646 24.6429H28.6436C29.0481 24.6429 29.376 24.315 29.376 23.9105C29.376 23.506 29.0481 23.1781 28.6436 23.1781H20.2646C19.8602 23.1781 19.5322 23.506 19.5322 23.9105Z" fill="black"/>
<path d="M28.6438 20.0211H25.7861C25.3815 20.0211 25.0537 20.349 25.0537 20.7535C25.0537 21.158 25.3815 21.486 25.7861 21.486H28.6438C29.0484 21.486 29.3763 21.158 29.3763 20.7535C29.3763 20.349 29.0483 20.0211 28.6438 20.0211Z" fill="black"/>
<path d="M22.629 21.486C23.0335 21.486 23.3614 21.158 23.3614 20.7535C23.3614 20.349 23.0335 20.0211 22.629 20.0211H21.251C20.8465 20.0211 20.5186 20.349 20.5186 20.7535C20.5186 21.158 20.8465 21.486 21.251 21.486H22.629Z" fill="black"/>
<path d="M20.2646 7.17786H28.6436C29.0481 7.17786 29.376 6.84993 29.376 6.44543C29.376 6.04094 29.0481 5.71301 28.6436 5.71301H20.2646C19.8602 5.71301 19.5322 6.04094 19.5322 6.44543C19.5322 6.84993 19.8602 7.17786 20.2646 7.17786Z" fill="black"/>
<path d="M25.7861 4.02081H28.6438C29.0484 4.02081 29.3763 3.69288 29.3763 3.28839C29.3763 2.8839 29.0484 2.55597 28.6438 2.55597H25.7861C25.3815 2.55597 25.0537 2.8839 25.0537 3.28839C25.0537 3.69288 25.3815 4.02081 25.7861 4.02081Z" fill="black"/>
<path d="M21.251 4.02081H22.629C23.0335 4.02081 23.3614 3.69288 23.3614 3.28839C23.3614 2.8839 23.0335 2.55597 22.629 2.55597H21.251C20.8465 2.55597 20.5186 2.8839 20.5186 3.28839C20.5186 3.69288 20.8465 4.02081 21.251 4.02081Z" fill="black"/>
</g>
<defs>
<clipPath id="clip0_311_3461">
<rect width="50" height="50" fill="white"/>
</clipPath>
</defs>
</svg>
