<svg width="25" height="24" viewBox="0 0 25 24" fill="none" xmlns="http://www.w3.org/2000/svg">
<path d="M12.5 2.25C10.5716 2.25 8.68657 2.82183 7.08319 3.89317C5.47982 4.96451 4.23013 6.48726 3.49218 8.26884C2.75422 10.0504 2.56114 12.0108 2.93735 13.9021C3.31355 15.7934 4.24215 17.5307 5.60571 18.8943C6.96928 20.2579 8.70656 21.1865 10.5979 21.5627C12.4892 21.9389 14.4496 21.7458 16.2312 21.0078C18.0127 20.2699 19.5355 19.0202 20.6068 17.4168C21.6782 15.8134 22.25 13.9284 22.25 12C22.2473 9.41498 21.2192 6.93661 19.3913 5.10872C17.5634 3.28084 15.085 2.25273 12.5 2.25ZM12.5 20.25C10.8683 20.25 9.27326 19.7661 7.91655 18.8596C6.55984 17.9531 5.50242 16.6646 4.878 15.1571C4.25358 13.6496 4.0902 11.9908 4.40853 10.3905C4.72685 8.79016 5.51259 7.32015 6.66637 6.16637C7.82016 5.01259 9.29017 4.22685 10.8905 3.90852C12.4909 3.59019 14.1497 3.75357 15.6571 4.37799C17.1646 5.00242 18.4531 6.05984 19.3596 7.41655C20.2661 8.77325 20.75 10.3683 20.75 12C20.7475 14.1873 19.8775 16.2843 18.3309 17.8309C16.7843 19.3775 14.6873 20.2475 12.5 20.25ZM13.625 12C13.625 12.2225 13.559 12.44 13.4354 12.625C13.3118 12.81 13.1361 12.9542 12.9305 13.0394C12.725 13.1245 12.4988 13.1468 12.2805 13.1034C12.0623 13.06 11.8618 12.9528 11.7045 12.7955C11.5472 12.6382 11.44 12.4377 11.3966 12.2195C11.3532 12.0012 11.3755 11.775 11.4606 11.5695C11.5458 11.3639 11.69 11.1882 11.875 11.0646C12.06 10.941 12.2775 10.875 12.5 10.875C12.7984 10.875 13.0845 10.9935 13.2955 11.2045C13.5065 11.4155 13.625 11.7016 13.625 12ZM17.75 12C17.75 12.2225 17.684 12.44 17.5604 12.625C17.4368 12.81 17.2611 12.9542 17.0555 13.0394C16.85 13.1245 16.6238 13.1468 16.4055 13.1034C16.1873 13.06 15.9868 12.9528 15.8295 12.7955C15.6722 12.6382 15.565 12.4377 15.5216 12.2195C15.4782 12.0012 15.5005 11.775 15.5856 11.5695C15.6708 11.3639 15.815 11.1882 16 11.0646C16.185 10.941 16.4025 10.875 16.625 10.875C16.9234 10.875 17.2095 10.9935 17.4205 11.2045C17.6315 11.4155 17.75 11.7016 17.75 12ZM9.5 12C9.5 12.2225 9.43402 12.44 9.31041 12.625C9.18679 12.81 9.01109 12.9542 8.80552 13.0394C8.59996 13.1245 8.37376 13.1468 8.15553 13.1034C7.9373 13.06 7.73684 12.9528 7.57951 12.7955C7.42217 12.6382 7.31503 12.4377 7.27162 12.2195C7.22821 12.0012 7.25049 11.775 7.33564 11.5695C7.42079 11.3639 7.56498 11.1882 7.74999 11.0646C7.93499 10.941 8.1525 10.875 8.375 10.875C8.67337 10.875 8.95952 10.9935 9.1705 11.2045C9.38148 11.4155 9.5 11.7016 9.5 12Z" fill="black"/>
</svg>
