<svg width="50" height="50" viewBox="0 0 50 50" fill="none" xmlns="http://www.w3.org/2000/svg">
<g clip-path="url(#clip0_311_3375)">
<path fill-rule="evenodd" clip-rule="evenodd" d="M15.7016 39.5427V37.67C15.7016 37.5648 15.7569 37.4746 15.8507 37.4272C15.9445 37.3796 16.0499 37.3883 16.1347 37.4505L21.7706 41.5854C21.8403 41.6365 21.8788 41.7097 21.8816 41.7961C21.8844 41.8826 21.8506 41.958 21.7843 42.0135L16.1483 46.7305C16.0654 46.7999 15.9565 46.8142 15.8585 46.7684C15.7605 46.7226 15.7016 46.63 15.7016 46.5218V44.7876C6.84024 44.7876 3.93389 38.273 6.50831 33.6401C7.93253 39.1856 12.5825 39.5427 15.7016 39.5427Z" fill="#B9EA6A"/>
<path fill-rule="evenodd" clip-rule="evenodd" d="M21.3508 41.2773L16.524 45.317V43.898C9.08564 43.898 5.60449 39.5688 5.83115 35.3276C4.69433 39.7063 7.87558 44.7876 15.7016 44.7876V46.5218C15.7016 46.63 15.7605 46.7226 15.8585 46.7684C15.9565 46.8142 16.0653 46.7999 16.1483 46.7305L21.7843 42.0135C21.8506 41.958 21.8844 41.8826 21.8816 41.7961C21.8789 41.7097 21.8403 41.6366 21.7706 41.5854L21.3508 41.2773Z" fill="#A1E42C"/>
<path fill-rule="evenodd" clip-rule="evenodd" d="M33.9538 13.8725V15.78C33.9538 15.878 33.9021 15.962 33.8147 16.0063C33.7272 16.0506 33.629 16.0426 33.5499 15.9846L27.8703 11.8177C27.8052 11.77 27.7693 11.7017 27.7667 11.6212C27.7642 11.5406 27.7956 11.4702 27.8575 11.4184L33.5373 6.66473C33.6146 6.59998 33.7161 6.5867 33.8075 6.62948C33.8989 6.67215 33.9539 6.75848 33.9539 6.85936V8.63133C42.809 8.63133 45.7134 15.1415 43.1407 19.7713C41.7174 14.2295 37.0706 13.8725 33.9538 13.8725Z" fill="#FC5692"/>
<path fill-rule="evenodd" clip-rule="evenodd" d="M33.1928 12.9635V14.8019L28.1956 11.1356L27.8576 11.4185C27.7957 11.4703 27.7642 11.5407 27.7667 11.6213C27.7694 11.7018 27.8053 11.7701 27.8703 11.8177L33.5499 15.9847C33.629 16.0427 33.7273 16.0508 33.8147 16.0065C33.9022 15.9622 33.9538 15.8782 33.9538 15.7802V13.8726C36.7407 13.8726 40.7507 14.158 42.5859 18.1799C40.6901 13.4136 36.321 12.9635 33.1928 12.9635Z" fill="#FB3580"/>
<path fill-rule="evenodd" clip-rule="evenodd" d="M4.646 25.6459H21.3794C22.1499 25.6459 22.7783 25.0175 22.7783 24.247V16.7748C22.7783 14.6015 20.8426 13.3675 18.6403 12.8212C14.9425 11.9039 11.1936 11.842 7.38506 12.8212C5.18799 13.3861 3.24707 14.6004 3.24707 16.7748V24.247C3.24707 25.0175 3.87559 25.6459 4.646 25.6459Z" fill="#80B4FB"/>
<path fill-rule="evenodd" clip-rule="evenodd" d="M19.8944 25.6459H21.379C22.1495 25.6459 22.7779 25.0175 22.7779 24.2469V16.7748C22.7779 14.6015 20.8422 13.3675 18.6399 12.8212C16.5175 12.2947 14.3783 12.0501 12.2207 12.1223C13.8761 12.1775 15.5207 12.4157 17.1555 12.8212C19.3577 13.3675 21.2935 14.6015 21.2935 16.7748V24.2469C21.2934 25.0175 20.6649 25.6459 19.8944 25.6459Z" fill="#61A2F9"/>
<path fill-rule="evenodd" clip-rule="evenodd" d="M13.0127 0.78125C15.4397 0.78125 17.4073 2.16445 17.4073 5.3543C17.4073 8.54414 15.4398 11.1301 13.0127 11.1301C10.5856 11.1301 8.61816 8.54414 8.61816 5.3543C8.61816 2.16445 10.5856 0.78125 13.0127 0.78125Z" fill="#FFECE3"/>
<path fill-rule="evenodd" clip-rule="evenodd" d="M13.0131 0.78125C15.4401 0.78125 17.4077 2.16445 17.4077 5.3543C17.4077 8.54414 15.4402 11.1301 13.0131 11.1301C12.793 11.1301 12.5767 11.1085 12.3652 11.0675C14.4851 10.6558 16.1119 8.25479 16.1119 5.3543C16.1119 2.45381 14.4851 1.04717 12.3652 0.81582C12.5767 0.792773 12.793 0.78125 13.0131 0.78125Z" fill="#FFDDCE"/>
<path fill-rule="evenodd" clip-rule="evenodd" d="M28.6167 49.2187H45.3501C46.1206 49.2187 46.749 48.5903 46.749 47.8198V40.3476C46.749 38.1744 44.8133 36.9403 42.611 36.394C38.9132 35.4767 35.1643 35.4148 31.3558 36.394C29.1587 36.9589 27.2178 38.1732 27.2178 40.3476V47.8198C27.2178 48.5903 27.8462 49.2187 28.6167 49.2187Z" fill="#80B4FB"/>
<path fill-rule="evenodd" clip-rule="evenodd" d="M43.8651 49.2187H45.3497C46.1202 49.2187 46.7486 48.5903 46.7486 47.8198V40.3476C46.7486 38.1744 44.8129 36.9403 42.6106 36.394C40.4883 35.8675 38.349 35.6229 36.1914 35.6952C37.8468 35.7503 39.4914 35.9885 41.1261 36.394C43.3283 36.9403 45.2641 38.1744 45.2641 40.3476V47.8198C45.264 48.5903 44.6355 49.2187 43.8651 49.2187Z" fill="#61A2F9"/>
<path fill-rule="evenodd" clip-rule="evenodd" d="M36.9834 24.3541C39.4104 24.3541 41.378 25.7373 41.378 28.9271C41.378 32.117 39.4105 34.7029 36.9834 34.7029C34.5563 34.7029 32.5889 32.117 32.5889 28.9271C32.5889 25.7373 34.5564 24.3541 36.9834 24.3541Z" fill="#FFECE3"/>
<path fill-rule="evenodd" clip-rule="evenodd" d="M36.9838 24.3541C39.4108 24.3541 41.3784 25.7373 41.3784 28.9271C41.3784 32.117 39.4109 34.7029 36.9838 34.7029C36.7637 34.7029 36.5474 34.6813 36.3359 34.6403C38.4558 34.2286 40.0826 31.8276 40.0826 28.9271C40.0826 26.0266 38.4558 24.62 36.3359 24.3886C36.5475 24.3656 36.7637 24.3541 36.9838 24.3541Z" fill="#FFDDCE"/>
<path fill-rule="evenodd" clip-rule="evenodd" d="M22.0004 24.2467C22.0004 24.5876 21.7193 24.8646 21.383 24.8646H19.1255V18.8139C19.1255 18.3826 18.7754 18.0329 18.3423 18.0329C17.9092 18.0329 17.5591 18.3826 17.5591 18.8139V24.8646H8.46904V18.8139C8.46904 18.3826 8.11885 18.0329 7.68584 18.0329C7.25273 18.0329 6.90264 18.3826 6.90264 18.8139V24.8646H4.64971C4.30879 24.8646 4.02773 24.5876 4.02773 24.2467V16.7747C4.02773 14.8871 5.9627 13.9943 7.57988 13.5777C9.34912 13.123 11.1505 12.8954 12.9657 12.8954C14.781 12.8954 16.6146 13.1235 18.4529 13.5796C19.7798 13.9076 22.0005 14.7595 22.0005 16.7747L22.0004 24.2467ZM9.39971 5.35441C9.39971 2.05519 11.6665 1.56261 13.0164 1.56261C14.3617 1.56261 16.6284 2.05509 16.6284 5.35441C16.6284 8.10861 15.0066 10.3486 13.0164 10.3486C11.0214 10.3486 9.39971 8.10861 9.39971 5.35441ZM18.8307 12.0629C17.5452 11.7437 16.2599 11.5299 14.979 11.4197C16.8588 10.4379 18.1902 8.08966 18.1902 5.35431C18.1902 2.05138 16.2045 -0.000183105 13.0163 -0.000183105C9.82353 -0.000183105 7.83779 2.05138 7.83779 5.35431C7.83779 8.08361 9.16006 10.4277 11.0352 11.4133C9.74512 11.5216 8.45977 11.7381 7.19277 12.0648C4.14277 12.848 2.46582 14.5208 2.46582 16.7747V24.2467C2.46582 25.4491 3.44717 26.4269 4.64961 26.4269H21.383C22.5854 26.4269 23.5622 25.4492 23.5622 24.2467V16.7747C23.5622 14.5265 21.8346 12.8089 18.8307 12.0629ZM45.9671 47.82C45.9671 48.1606 45.6906 48.4374 45.3497 48.4374H43.0922V42.3872C43.0922 41.9555 42.7467 41.6059 42.3136 41.6059C41.8805 41.6059 41.5304 41.9556 41.5304 42.3872V48.4374H32.4357V42.3872C32.4357 41.9555 32.0902 41.6059 31.6571 41.6059C31.224 41.6059 30.8739 41.9556 30.8739 42.3872V48.4374H28.6164C28.2755 48.4374 27.999 48.1606 27.999 47.82V40.3476C27.999 38.46 29.9295 37.5671 31.5512 37.1506C33.3203 36.6959 35.1218 36.4683 36.937 36.4683C38.7522 36.4683 40.5859 36.6963 42.4242 37.1525C43.7465 37.481 45.9672 38.3328 45.9672 40.3476V47.82H45.9671ZM33.371 28.9273C33.371 25.628 35.6331 25.1355 36.9831 25.1355C38.333 25.1355 40.5998 25.6279 40.5998 28.9273C40.5998 31.681 38.978 33.922 36.9831 33.922C34.9928 33.9219 33.371 31.681 33.371 28.9273ZM42.802 35.6358C41.5119 35.3164 40.2266 35.1027 38.9457 34.9926C40.8301 34.0108 42.1615 31.6625 42.1615 28.9272C42.1615 25.6247 40.1758 23.5732 36.983 23.5732C33.7902 23.5732 31.8091 25.6247 31.8091 28.9272C31.8091 31.656 33.1313 34.0001 35.0065 34.9861C33.7165 35.0944 32.4312 35.311 31.1642 35.6376C28.1142 36.4208 26.4371 38.0937 26.4371 40.3476V47.82C26.4371 49.0221 27.4139 50.0002 28.6163 50.0002H45.3497C46.5522 50.0002 47.5335 49.0221 47.5335 47.82V40.3476C47.5336 38.0988 45.8059 36.3817 42.802 35.6358ZM16.3796 45.2077V44.5876C16.3796 44.1559 16.0295 43.8063 15.5964 43.8063C11.6987 43.8063 8.64873 42.4144 7.22051 39.9878C6.46025 38.6996 6.2207 37.2193 6.50176 35.7898C7.30342 37.3687 8.50596 38.5269 10.1 39.2456C11.9152 40.0671 13.8964 40.1777 15.5964 40.1777C16.0295 40.1777 16.3796 39.8279 16.3796 39.3963V38.5531L20.6183 41.6616L16.3796 45.2077ZM22.346 40.9912L16.0617 36.3813C15.8222 36.2071 15.5089 36.1814 15.2462 36.3145C14.9836 36.4472 14.8178 36.7166 14.8178 37.0111V38.6042C11.4729 38.5028 8.3585 37.6464 7.25732 33.3603C7.17441 33.0502 6.91641 32.8203 6.59844 32.7793C6.28057 32.7388 5.97187 32.8954 5.81523 33.175C4.47451 35.5929 4.49297 38.4364 5.87051 40.7801C7.4877 43.5236 10.7219 45.1666 14.8178 45.3509V46.8805C14.8178 47.1841 14.9929 47.4596 15.2646 47.5881C15.3752 47.6374 15.4858 47.6613 15.5964 47.6613C15.7761 47.6613 15.9558 47.5996 16.0985 47.4794L22.3828 42.2202C22.5671 42.0659 22.6685 41.836 22.6639 41.596C22.6546 41.3562 22.5395 41.1331 22.346 40.9912ZM33.2696 8.19747V8.81808C33.2696 9.24982 33.6198 9.59904 34.0528 9.59904C37.9506 9.59904 41.0006 10.9908 42.4288 13.4175C43.189 14.7057 43.4286 16.1864 43.1476 17.6156C42.3459 16.0372 41.1389 14.8785 39.5493 14.1603C37.7341 13.3388 35.7529 13.2277 34.0529 13.2277C33.6198 13.2277 33.2697 13.5779 33.2697 14.0091V14.8523L29.0311 11.7438L33.2696 8.19747ZM27.3033 12.414L33.5876 17.0244C33.8272 17.1985 34.1404 17.2243 34.403 17.0912C34.6656 16.9581 34.8315 16.6886 34.8315 16.3942V14.8015C38.1764 14.9024 41.2908 15.7593 42.392 20.0454C42.4749 20.355 42.7329 20.585 43.0508 20.626C43.083 20.6301 43.1152 20.6324 43.1476 20.6324C43.4332 20.6324 43.6958 20.4809 43.8341 20.2307C45.1748 17.8123 45.1563 14.9693 43.7788 12.6251C42.1617 9.88146 38.9274 8.23859 34.8316 8.05431V6.52511C34.8316 6.2215 34.6565 5.94552 34.3801 5.81749C34.1083 5.68898 33.7812 5.73087 33.5508 5.92579L27.2665 11.1854C27.0822 11.3393 26.9809 11.5692 26.9855 11.8092C26.9946 12.0491 27.1099 12.2721 27.3033 12.414Z" fill="black"/>
</g>
<defs>
<clipPath id="clip0_311_3375">
<rect width="50" height="50" fill="white"/>
</clipPath>
</defs>
</svg>
