<svg width="36" height="36" viewBox="0 0 36 36" fill="none" xmlns="http://www.w3.org/2000/svg">
<circle opacity="0.1" cx="18" cy="18" r="18" fill="#2C83EC"/>
<path d="M13.625 17.125H15.375V18.875H13.625V17.125ZM25.875 12.75V25C25.875 25.9625 25.0875 26.75 24.125 26.75H11.875C11.4109 26.75 10.9658 26.5656 10.6376 26.2374C10.3094 25.9092 10.125 25.4641 10.125 25L10.1337 12.75C10.1337 11.7875 10.9038 11 11.875 11H12.75V9.25H14.5V11H21.5V9.25H23.25V11H24.125C25.0875 11 25.875 11.7875 25.875 12.75ZM11.875 14.5H24.125V12.75H11.875V14.5ZM24.125 25V16.25H11.875V25H24.125ZM20.625 18.875H22.375V17.125H20.625V18.875ZM17.125 18.875H18.875V17.125H17.125V18.875Z" fill="#2C83EC"/>
</svg>
