<svg width="60" height="60" viewBox="0 0 60 60" fill="none" xmlns="http://www.w3.org/2000/svg">
<path d="M25.68 2.75998V8.99998C25.68 11.52 23.64 13.56 21.12 13.56H14.88" stroke="#9473B3" stroke-width="2.4" stroke-miterlimit="10" stroke-linecap="round" stroke-linejoin="round"/>
<path d="M14.52 53.64C14.88 55.92 16.8 57.6 19.08 57.6H52.92C55.44 57.6 57.48 55.56 57.48 53.04V6.95999C57.6 4.43999 55.56 2.39999 53.04 2.39999H27.6C26.4 2.39999 25.2 2.87999 24.36 3.71999L15.84 12.24C15 13.08 14.52 14.28 14.52 15.48V36.48" stroke="#9473B3" stroke-width="2.4" stroke-miterlimit="10" stroke-linecap="round" stroke-linejoin="round"/>
<path d="M21.72 18H50.4" stroke="#9473B3" stroke-width="2.4" stroke-miterlimit="10" stroke-linecap="round" stroke-linejoin="round"/>
<path d="M21.72 23.88H50.4" stroke="#9473B3" stroke-width="2.4" stroke-miterlimit="10" stroke-linecap="round" stroke-linejoin="round"/>
<path d="M21.72 29.76H40.8" stroke="#9473B3" stroke-width="2.4" stroke-miterlimit="10" stroke-linecap="round" stroke-linejoin="round"/>
<path d="M14.64 53.4C19.2129 53.4 22.92 49.6929 22.92 45.12C22.92 40.5471 19.2129 36.84 14.64 36.84C10.0671 36.84 6.35999 40.5471 6.35999 45.12C6.35999 49.6929 10.0671 53.4 14.64 53.4Z" stroke="#9473B3" stroke-width="2.4" stroke-miterlimit="10" stroke-linecap="round" stroke-linejoin="round"/>
<path d="M36.84 53.4C41.4129 53.4 45.12 49.6929 45.12 45.12C45.12 40.5471 41.4129 36.84 36.84 36.84C32.2671 36.84 28.56 40.5471 28.56 45.12C28.56 49.6929 32.2671 53.4 36.84 53.4Z" stroke="#9473B3" stroke-width="2.4" stroke-miterlimit="10" stroke-linecap="round" stroke-linejoin="round"/>
<path d="M29.04 42.6H22.44" stroke="#9473B3" stroke-width="2.4" stroke-miterlimit="10" stroke-linecap="round" stroke-linejoin="round"/>
<path d="M49.08 42.6H44.76" stroke="#9473B3" stroke-width="2.4" stroke-miterlimit="10" stroke-linecap="round" stroke-linejoin="round"/>
<path d="M6.71999 42.6H2.39999" stroke="#9473B3" stroke-width="2.4" stroke-miterlimit="10" stroke-linecap="round" stroke-linejoin="round"/>
</svg>
