<svg width="18" height="19" viewBox="0 0 18 19" fill="none" xmlns="http://www.w3.org/2000/svg">
<path d="M16.148 15.852L12.6274 12.3322C13.6478 11.1071 14.1566 9.53586 14.048 7.94521C13.9394 6.35456 13.2218 4.86702 12.0444 3.79202C10.8669 2.71702 9.32038 2.13734 7.72644 2.17357C6.1325 2.20979 4.61389 2.85913 3.48651 3.98651C2.35913 5.11389 1.70979 6.6325 1.67357 8.22644C1.63734 9.82038 2.21702 11.3669 3.29202 12.5444C4.36702 13.7218 5.85456 14.4394 7.44521 14.548C9.03586 14.6566 10.6071 14.1478 11.8322 13.1274L15.352 16.648C15.4043 16.7002 15.4663 16.7417 15.5346 16.77C15.6029 16.7983 15.6761 16.8128 15.75 16.8128C15.8239 16.8128 15.8971 16.7983 15.9654 16.77C16.0337 16.7417 16.0957 16.7002 16.148 16.648C16.2002 16.5957 16.2417 16.5337 16.27 16.4654C16.2983 16.3971 16.3128 16.3239 16.3128 16.25C16.3128 16.1761 16.2983 16.1029 16.27 16.0346C16.2417 15.9663 16.2002 15.9043 16.148 15.852ZM2.81251 8.37501C2.81251 7.37374 3.10942 6.39496 3.66569 5.56243C4.22197 4.72991 5.01262 4.08104 5.93767 3.69787C6.86272 3.3147 7.88062 3.21444 8.86265 3.40978C9.84468 3.60512 10.7467 4.08728 11.4547 4.79528C12.1627 5.50328 12.6449 6.40533 12.8402 7.38736C13.0356 8.36939 12.9353 9.38729 12.5521 10.3123C12.169 11.2374 11.5201 12.028 10.6876 12.5843C9.85506 13.1406 8.87628 13.4375 7.87501 13.4375C6.53281 13.436 5.246 12.9022 4.29692 11.9531C3.34784 11.004 2.814 9.71721 2.81251 8.37501Z" fill="black"/>
</svg>
