<svg width="50" height="50" viewBox="0 0 50 50" fill="none" xmlns="http://www.w3.org/2000/svg">
<path d="M38.6459 47.2656V6.86072C38.6459 5.78201 37.7715 4.90759 36.6928 4.90759H5.21289C4.13418 4.90759 3.25977 5.78201 3.25977 6.86072V47.2656C3.25977 48.3443 4.13418 49.2187 5.21289 49.2187H36.6927C37.7714 49.2187 38.6459 48.3443 38.6459 47.2656Z" fill="#407093"/>
<path d="M35.7161 45.8008V8.32556C35.7161 8.05593 35.4975 7.83728 35.2278 7.83728H6.67773C6.40811 7.83728 6.18945 8.05593 6.18945 8.32556V45.8008C6.18945 46.0704 6.40811 46.289 6.67773 46.289H35.2278C35.4976 46.289 35.7161 46.0704 35.7161 45.8008Z" fill="#E7ECF6"/>
<path d="M36.9697 4.90759H34.04C35.1187 4.90759 35.9932 5.78201 35.9932 6.86072V47.2656C35.9932 48.3443 35.1187 49.2187 34.04 49.2187H36.9697C38.0484 49.2187 38.9229 48.3443 38.9229 47.2656V6.86072C38.9229 5.78201 38.0484 4.90759 36.9697 4.90759Z" fill="#365E7D"/>
<path d="M35.5049 7.83728H32.5752C32.8448 7.83728 33.0635 8.05593 33.0635 8.32556V45.8008C33.0635 46.0704 32.8448 46.289 32.5752 46.289H35.5049C35.7745 46.289 35.9932 46.0704 35.9932 45.8008V8.32556C35.9932 8.05593 35.7745 7.83728 35.5049 7.83728Z" fill="#D8E2F1"/>
<path d="M16.6963 6.64062V2.76826C16.6963 1.61689 17.6297 0.683594 18.781 0.683594H23.4007C24.5521 0.683594 25.4854 1.61689 25.4854 2.76826V6.64062H16.6963Z" fill="#EAB14D"/>
<path d="M23.4006 0.683594H20.9092C22.0605 0.683594 22.9938 1.61689 22.9938 2.76826V6.64062H25.4853V2.76826C25.4853 1.61689 24.552 0.683594 23.4006 0.683594Z" fill="#E7A52E"/>
<path d="M29.7934 11.231H12.3896C11.9042 11.231 11.5107 10.8375 11.5107 10.3521V4.54102C11.5107 4.05557 11.9042 3.66211 12.3896 3.66211H29.7935C30.2789 3.66211 30.6724 4.05557 30.6724 4.54102V10.3521C30.6723 10.8374 30.2788 11.231 29.7934 11.231Z" fill="#ECBE6B"/>
<path d="M29.7932 3.66211H27.3018C27.7872 3.66211 28.1807 4.05557 28.1807 4.54102V10.3521C28.1807 10.8375 27.7872 11.231 27.3018 11.231H29.7932C30.2786 11.231 30.6721 10.8375 30.6721 10.3521V4.54102C30.6721 4.05557 30.2786 3.66211 29.7932 3.66211Z" fill="#EAB14D"/>
<path d="M46.046 42.2577C45.2164 43.0873 43.8713 43.0873 43.0417 42.2577L31.5029 30.719L34.5072 27.7147L46.046 39.2534C46.8756 40.083 46.8756 41.4281 46.046 42.2577Z" fill="#9DC6FB"/>
<path d="M46.0457 39.2534L34.5069 27.7147L33.5381 28.6835L44.1079 39.2534C44.9375 40.083 44.9375 41.4281 44.1079 42.2577C43.9472 42.4185 43.7666 42.5473 43.5746 42.6457C44.3733 43.0553 45.3768 42.9266 46.0456 42.2577C46.8753 41.4281 46.8753 40.083 46.0457 39.2534Z" fill="#80B4FB"/>
<path d="M31.9188 37.5543C37.1233 37.5543 41.3424 33.3352 41.3424 28.1307C41.3424 22.9261 37.1233 18.707 31.9188 18.707C26.7142 18.707 22.4951 22.9261 22.4951 28.1307C22.4951 33.3352 26.7142 37.5543 31.9188 37.5543Z" fill="#E28086"/>
<path d="M36.5664 32.7781C34.0038 35.3406 29.8342 35.3406 27.2716 32.778C24.709 30.2154 24.709 26.0458 27.2716 23.4832C29.8342 20.9206 34.0037 20.9206 36.5663 23.4832C39.1289 26.0459 39.129 30.2156 36.5664 32.7781Z" fill="#DFF6FD"/>
<path d="M38.5826 21.4672C36.4957 19.3804 33.6737 18.4783 30.9502 18.7581C33.0296 18.9718 35.0516 19.874 36.6448 21.4672C40.325 25.1474 40.325 31.1141 36.6448 34.7943C35.0516 36.3875 33.0296 37.2897 30.9502 37.5033C33.6737 37.7832 36.4957 36.8811 38.5826 34.7943C42.2628 31.1141 42.2628 25.1473 38.5826 21.4672Z" fill="#DD636E"/>
<path d="M36.5664 23.4833C35.0385 21.9554 32.9394 21.3391 30.9502 21.6331C32.2973 21.8322 33.594 22.4486 34.6287 23.4833C37.1913 26.0459 37.1914 30.2155 34.6288 32.7781C33.5941 33.8128 32.2975 34.4291 30.9504 34.6283C32.9396 34.9224 35.0388 34.3061 36.5666 32.7781C39.1291 30.2155 39.129 26.0459 36.5664 23.4833Z" fill="#C8EFFE"/>
<path d="M37.1579 33.296C41.6974 28.7568 38.5484 20.8289 31.9926 20.8289C25.522 20.8289 22.2291 28.6975 26.8273 33.2959C29.6753 36.1439 34.3095 36.1443 37.1579 33.296ZM31.9926 22.2938C37.2356 22.2938 39.7497 28.6325 36.1222 32.2602C33.8438 34.5385 30.1417 34.5387 27.8632 32.2601C24.1911 28.588 26.8145 22.2938 31.9926 22.2938Z" fill="black"/>
<path d="M10.6904 22.2939H18.9458C19.3503 22.2939 19.6782 21.9661 19.6782 21.5615C19.6782 21.1569 19.3503 20.8291 18.9458 20.8291H10.6904C10.2859 20.8291 9.95801 21.1569 9.95801 21.5615C9.95801 21.9661 10.2859 22.2939 10.6904 22.2939Z" fill="black"/>
<path d="M10.6904 28.5195H18.9458C19.3503 28.5195 19.6782 28.1917 19.6782 27.7871C19.6782 27.3825 19.3503 27.0547 18.9458 27.0547H10.6904C10.2859 27.0547 9.95801 27.3825 9.95801 27.7871C9.95801 28.1917 10.2859 28.5195 10.6904 28.5195Z" fill="black"/>
<path d="M10.6904 34.7451H18.9458C19.3503 34.7451 19.6782 34.4173 19.6782 34.0127C19.6782 33.6081 19.3503 33.2803 18.9458 33.2803H10.6904C10.2859 33.2803 9.95801 33.6081 9.95801 34.0127C9.95801 34.4173 10.2859 34.7451 10.6904 34.7451Z" fill="black"/>
<path d="M10.6904 16.0684H31.4912C31.8957 16.0684 32.2236 15.7405 32.2236 15.3359C32.2236 14.9313 31.8957 14.6035 31.4912 14.6035H10.6904C10.2859 14.6035 9.95801 14.9313 9.95801 15.3359C9.95801 15.7405 10.2859 16.0684 10.6904 16.0684Z" fill="black"/>
<path d="M25.4854 39.504H10.6904C10.2859 39.504 9.95801 39.8319 9.95801 40.2365C9.95801 40.641 10.2859 40.9689 10.6904 40.9689H25.4854C25.8898 40.9689 26.2178 40.641 26.2178 40.2365C26.2178 39.8319 25.8898 39.504 25.4854 39.504Z" fill="black"/>
<path d="M46.6376 38.7355L45.1185 37.2163C44.8325 36.9303 44.3687 36.9302 44.0827 37.2162C43.7914 37.5074 43.803 37.9724 44.0827 38.252L45.6019 39.7713C46.1466 40.3158 46.1447 41.1969 45.6019 41.7397C45.0581 42.2836 44.1775 42.284 43.6334 41.7396L38.1222 36.2284C38.85 35.6767 39.5169 35.0168 40.0905 34.26L41.6658 35.8352C41.9519 36.1211 42.4156 36.1211 42.7016 35.8352C42.9876 35.549 42.9876 35.0854 42.7016 34.7993L40.9044 33.0022C42.9323 29.2885 42.4592 24.679 39.6551 21.4648V6.90957C39.6551 5.42881 38.4504 4.22402 36.9695 4.22402H31.3609C31.1946 3.51152 30.5556 2.97852 29.7931 2.97852H26.2182V2.81719C26.2182 1.26377 24.9545 0 23.4011 0H18.7813C17.228 0 15.9643 1.26377 15.9643 2.81719V2.97852H12.3894C11.6269 2.97852 10.9879 3.51152 10.8215 4.22402H5.21289C3.73203 4.22402 2.52734 5.42881 2.52734 6.90957V47.3145C2.52734 48.7952 3.73203 50 5.21289 50H10.609C11.0135 50 11.3414 49.6722 11.3414 49.2676C11.3414 48.863 11.0135 48.5352 10.609 48.5352H5.21289C4.53975 48.5352 3.99219 47.9876 3.99219 47.3145V6.90957C3.99219 6.23643 4.53975 5.68887 5.21289 5.68887H10.778V7.15371H6.67783C6.00469 7.15371 5.45713 7.70127 5.45713 8.37441V45.8496C5.45713 46.5228 6.00469 47.0703 6.67783 47.0703H35.5048C36.1779 47.0703 36.7255 46.5228 36.7255 45.8496V37.1175C36.772 37.0931 36.8182 37.0677 36.8644 37.0424L38.1903 38.3684V47.3145C38.1903 47.9876 37.6428 48.5352 36.9696 48.5352H14.027C13.6225 48.5352 13.2945 48.863 13.2945 49.2676C13.2945 49.6722 13.6225 50 14.027 50H36.9695C38.4504 50 39.6551 48.7952 39.6551 47.3145V39.8332L42.5975 42.7755C43.7137 43.8919 45.521 43.8924 46.6376 42.7756C47.754 41.6593 47.7543 39.8521 46.6376 38.7355ZM32.0107 19.4439C39.8778 19.4603 43.4614 28.9513 38.1392 34.2752L38.1391 34.2753C38.1387 34.2757 38.1382 34.2762 38.1378 34.2766C37.6233 34.791 36.9997 35.2742 36.3368 35.6574C30.9247 38.7805 25.7419 34.4876 27.4285 35.5251C19.9037 30.8966 23.3607 19.4405 32.0107 19.4439ZM38.1902 6.90957V20.0834C37.7271 19.7252 37.2371 19.41 36.7254 19.1398V8.37441C36.7254 7.70127 36.1778 7.15371 35.5047 7.15371H31.4044V5.68887H36.9695C37.6427 5.68887 38.1902 6.23643 38.1902 6.90957ZM12.2429 4.58984C12.2429 4.50908 12.3086 4.44336 12.3894 4.44336H16.6967C17.1012 4.44336 17.4291 4.11553 17.4291 3.71094V2.81719C17.4291 2.07148 18.0357 1.46484 18.7813 1.46484H23.4011C24.1467 1.46484 24.7533 2.07148 24.7533 2.81719V3.71094C24.7533 4.11553 25.0813 4.44336 25.4857 4.44336H29.7931C29.8738 4.44336 29.9396 4.50908 29.9396 4.58984V10.4009C29.9396 10.4816 29.8738 10.5474 29.7931 10.5474H12.3894C12.3086 10.5474 12.2429 10.4816 12.2429 10.4009C12.2429 9.34443 12.2429 5.87461 12.2429 4.58984ZM6.92197 45.6055V8.61855H10.778V10.4009C10.778 11.2895 11.501 12.0122 12.3894 12.0122H29.7931C30.6814 12.0122 31.4044 11.2896 31.4044 10.4009V8.61855H35.2605V18.51C34.2081 18.1535 33.1004 17.9747 31.9926 17.9747C26.3812 17.9747 21.8365 22.5169 21.8365 28.1307C21.8365 35.0242 28.6189 39.9998 35.2605 37.7449V45.6055H6.92197Z" fill="black"/>
</svg>
