<svg width="274" height="238" viewBox="0 0 274 238" fill="none" xmlns="http://www.w3.org/2000/svg">
<path fill-rule="evenodd" clip-rule="evenodd" d="M124.744 98.04C121.919 101.375 118.14 105.421 113.631 107.841L101.246 84.7605C101.213 84.7785 101.224 84.7696 101.281 84.7227C101.528 84.5202 102.639 83.6101 104.757 81.1098C107.115 78.3269 109.851 74.6459 113.185 70.0542C113.864 69.1182 114.564 68.1507 115.283 67.1558C121.414 58.6775 128.981 48.2132 137.759 38.3618C157.087 16.6701 185.858 -6.03864 224.445 2.84563C247.341 8.11732 261.635 22.0924 268.385 39.8104C274.853 56.788 274.061 76.1503 269.759 93.1563C265.451 110.186 257.199 126.562 246.717 137.807C236.726 148.525 220.687 158.187 203.561 149.92L214.949 126.331C216.2 126.936 220.181 127.86 227.557 119.947C234.443 112.559 240.906 100.408 244.366 86.7323C247.831 73.0322 247.86 59.5087 243.908 49.136C240.238 39.5038 232.87 31.6639 218.568 28.3711C194.672 22.8693 175.071 35.8595 157.316 55.7869C149.482 64.5789 142.703 73.9461 136.498 82.5206C135.785 83.5058 135.079 84.4805 134.381 85.4427C131.09 89.9755 127.82 94.4088 124.744 98.04Z" fill="url(#paint0_linear_302_4088)"/>
<path fill-rule="evenodd" clip-rule="evenodd" d="M88.0864 32.4426C75.9844 22.4759 50.2984 21.6625 34.6422 52.7606C23.8925 74.1126 24.3388 97.1012 30.75 111.293C33.9209 118.312 38.0078 122.11 41.7168 123.625C45.0298 124.979 50.0705 125.357 57.554 121.19L70.2947 144.076C57.2882 151.317 43.8774 152.804 31.8097 147.873C20.1381 143.104 11.9151 133.224 6.8794 122.077C-3.12251 99.9362 -2.67632 68.637 11.2465 40.9821C33.4379 -3.09666 78.0185 -9.84914 104.796 12.2709L104.826 12.2962L128.093 31.7556L111.288 51.8479L88.0864 32.4426Z" fill="url(#paint1_linear_302_4088)"/>
<path fill-rule="evenodd" clip-rule="evenodd" d="M69.3173 68.1831C76.4466 66.9617 83.2161 71.7509 84.4375 78.8801C86.0858 88.5007 90.8574 105.66 100.169 120.033C109.368 134.233 121.74 144.04 138.918 144.04C142.629 144.04 147.551 142.485 153.442 138.511C159.245 134.597 165.194 128.857 170.666 121.952C181.876 107.806 189.266 91.1499 190.299 79.8951C190.959 72.6923 197.334 67.389 204.537 68.0498C211.74 68.7106 217.043 75.0854 216.382 82.2883C214.731 100.291 204.32 121.657 191.195 138.22C184.5 146.668 176.647 154.454 168.089 160.227C159.618 165.941 149.618 170.234 138.918 170.234C109.633 170.234 90.1472 152.738 78.1858 134.275C66.3368 115.985 60.6453 95.1222 58.6204 83.3033C57.3989 76.1741 62.1881 69.4046 69.3173 68.1831Z" fill="url(#paint2_linear_302_4088)"/>
<path d="M233.756 237.283V195.759H255.052V202.877H241.883V212.783H253.629V219.665H241.883V230.401H255.289V237.283H233.756Z" fill="#2C83EC"/>
<path d="M201.709 195.759H217.488C219.98 196.589 222.095 198.131 223.835 200.386C225.615 202.6 226.505 205.329 226.505 208.572C226.505 213.871 224.409 217.766 220.217 220.258L226.208 237.283H217.903L212.861 222.156H209.717V237.283H201.709V195.759ZM209.717 202.877V215.512H214.819C215.491 215.354 216.223 214.682 217.014 213.495C217.844 212.269 218.259 210.846 218.259 209.224C218.259 207.603 217.903 206.179 217.191 204.953C216.519 203.727 215.847 203.035 215.175 202.877H209.717Z" fill="#2C83EC"/>
<path d="M177.781 230.401H182.763C183.634 229.452 184.246 228.503 184.602 227.554C184.998 226.565 185.196 225.122 185.196 223.224V195.759H193.322V220.258C193.322 222.275 193.263 223.856 193.144 225.003C193.065 226.111 192.828 227.475 192.433 229.096C191.76 231.983 189.902 234.712 186.857 237.283H173.688C170.642 234.791 168.784 232.062 168.111 229.096C167.518 226.684 167.222 223.738 167.222 220.258V195.759H175.349V223.224C175.349 225.122 175.526 226.565 175.882 227.554C176.278 228.503 176.911 229.452 177.781 230.401Z" fill="#2C83EC"/>
<path d="M149.761 230.401H160.201V237.283H145.134C142.524 234.831 140.547 231.726 139.202 227.969C137.857 224.212 137.185 220.357 137.185 216.402C137.185 212.408 137.936 208.572 139.439 204.894C140.942 201.216 143.176 198.171 146.142 195.759H160.201V202.877H149.761C148.693 204.103 147.764 206.08 146.973 208.809C146.221 211.538 145.846 214.148 145.846 216.639C145.846 219.131 146.221 221.741 146.973 224.469C147.764 227.198 148.693 229.175 149.761 230.401Z" fill="#2C83EC"/>
<path d="M124.811 237.283H111.88C107.925 233.606 105.948 228.583 105.948 222.216C105.948 219.013 106.383 216.225 107.253 213.852C108.162 211.479 109.586 209.186 111.524 206.971H125.405C127.461 209.344 128.865 211.657 129.616 213.911C130.368 216.126 130.743 218.894 130.743 222.216C130.743 228.583 128.766 233.606 124.811 237.283ZM116.091 231.055H120.6C122.023 228.287 122.735 225.143 122.735 221.623C122.735 218.103 122.004 215.296 120.54 213.2H116.091C114.668 215.216 113.956 218.084 113.956 221.801C113.956 225.479 114.668 228.563 116.091 231.055Z" fill="#2C83EC"/>
<path d="M86.0879 237.283V206.971H91.7233L93.2063 210.174C94.7881 208.039 96.7852 206.971 99.1976 206.971H101.511V214.92H93.9774V237.283H86.0879Z" fill="#2C83EC"/>
<path d="M62.2294 202.877V217.707H67.5089C69.6839 215.927 70.7715 213.317 70.7715 209.877C70.7715 208.414 70.4749 207.029 69.8817 205.724C69.328 204.419 68.6557 203.47 67.8648 202.877H62.2294ZM54.2212 237.283V195.759H70.2969C72.9861 196.945 75.1018 198.764 76.6441 201.216C78.226 203.668 79.0169 206.535 79.0169 209.817C79.0169 213.06 78.2062 216.066 76.5848 218.834C74.9634 221.602 72.5708 223.56 69.4071 224.707H62.2294V237.283H54.2212Z" fill="#2C83EC"/>
<path d="M48.0864 195.759L39.663 237.282H28.5108L20.0874 195.759H28.6295L31.8921 214.978L33.9089 227.435H34.2649L36.2817 214.978L39.5443 195.759H48.0864Z" fill="#FFA500"/>
<defs>
<linearGradient id="paint0_linear_302_4088" x1="91.8848" y1="1.25673" x2="281.457" y2="1.25673" gradientUnits="userSpaceOnUse">
<stop stop-color="#7DBDF3"/>
<stop offset="1" stop-color="#5992BC"/>
</linearGradient>
<linearGradient id="paint1_linear_302_4088" x1="62.0029" y1="10.1162" x2="62.0029" y2="159.672" gradientUnits="userSpaceOnUse">
<stop stop-color="#93A5FD"/>
<stop offset="0.553672" stop-color="#71C6F4"/>
</linearGradient>
<linearGradient id="paint2_linear_302_4088" x1="113.119" y1="62.949" x2="154.777" y2="175.823" gradientUnits="userSpaceOnUse">
<stop stop-color="#FBC67B"/>
<stop offset="1" stop-color="#DF9899"/>
</linearGradient>
</defs>
</svg>
