<svg width="18" height="18" viewBox="0 0 18 18" fill="none" xmlns="http://www.w3.org/2000/svg">
<g clip-path="url(#clip0_199_64)">
<path d="M17.1087 8.20483L15.9837 7.07983C15.7929 6.88924 15.54 6.77354 15.271 6.75379C15.0021 6.73405 14.735 6.81157 14.5184 6.97225L11.0281 3.48194C11.1888 3.26543 11.2665 2.99838 11.2469 2.72942C11.2272 2.46047 11.1117 2.20751 10.9212 2.01662L9.7962 0.891623C9.69173 0.78713 9.5677 0.70424 9.43119 0.647687C9.29468 0.591135 9.14837 0.562027 9.00061 0.562027C8.85285 0.562027 8.70654 0.591135 8.57003 0.647687C8.43353 0.70424 8.3095 0.78713 8.20503 0.891623L3.70503 5.39162C3.60053 5.49609 3.51764 5.62012 3.46109 5.75663C3.40454 5.89314 3.37543 6.03945 3.37543 6.18721C3.37543 6.33497 3.40454 6.48128 3.46109 6.61779C3.51764 6.75429 3.60053 6.87832 3.70503 6.98279L4.83003 8.10779C5.02087 8.29809 5.27369 8.41355 5.54249 8.43316C5.81128 8.45277 6.07818 8.37524 6.29464 8.21467L6.79878 8.71881L2.20174 13.3158C1.89634 13.6499 1.73153 14.0888 1.74165 14.5413C1.75177 14.9938 1.93603 15.4249 2.25606 15.745C2.5761 16.065 3.00724 16.2493 3.45973 16.2594C3.91221 16.2695 4.35116 16.1047 4.68518 15.7993L9.28151 11.2022L9.78565 11.7057C9.62489 11.9222 9.54724 12.1892 9.56686 12.4582C9.58648 12.7271 9.70205 12.9801 9.89253 13.171L11.0175 14.296C11.122 14.4005 11.246 14.4834 11.3825 14.5399C11.519 14.5965 11.6654 14.6256 11.8131 14.6256C11.9609 14.6256 12.1072 14.5965 12.2437 14.5399C12.3802 14.4834 12.5042 14.4005 12.6087 14.296L17.1087 9.796C17.2132 9.69153 17.2961 9.5675 17.3526 9.43099C17.4092 9.29448 17.4383 9.14817 17.4383 9.00041C17.4383 8.85265 17.4092 8.70634 17.3526 8.56983C17.2961 8.43333 17.2132 8.3093 17.1087 8.20483ZM5.62526 7.31256L4.50026 6.18756L9.00026 1.68756L10.1253 2.81256L5.62526 7.31256ZM3.88995 15.0033C3.77138 15.1212 3.611 15.1874 3.44382 15.1874C3.27664 15.1874 3.11625 15.1212 2.99768 15.0033C2.88003 14.8848 2.81401 14.7246 2.81401 14.5576C2.81401 14.3906 2.88003 14.2303 2.99768 14.1118L7.59401 9.51475L8.48628 10.4063L3.88995 15.0033ZM7.10182 7.42928L10.242 4.28912L13.7112 7.75834L10.5717 10.8985L7.10182 7.42928ZM11.8128 13.5001L10.6878 12.3751L10.969 12.0938L14.9065 8.15631L15.1878 7.87506L16.3128 9.00006L11.8128 13.5001Z" fill="black"/>
</g>
<defs>
<clipPath id="clip0_199_64">
<rect width="18" height="18" fill="white"/>
</clipPath>
</defs>
</svg>
