<svg width="50" height="50" viewBox="0 0 50 50" fill="none" xmlns="http://www.w3.org/2000/svg">
<g clip-path="url(#clip0_311_3208)">
<path d="M36.29 22.1774V22.7433C36.29 23.4367 36.4019 24.1256 36.6211 24.7834L37.9029 28.6289H40.3223V19.7579H38.7094C37.3732 19.758 36.29 20.8411 36.29 22.1774Z" fill="#5A4146"/>
<path d="M47.3325 23.8526L45.9679 28.629L39.5162 22.9839C38.6254 22.9839 37.9033 22.2617 37.9033 21.371C37.9033 20.0349 38.9865 18.9517 40.3227 18.9517H45.9678C46.8586 18.9517 47.5807 19.6738 47.5807 20.5645V22.0804C47.5808 22.6797 47.4972 23.2762 47.3325 23.8526Z" fill="#694B4B"/>
<path d="M44.3543 31.0488H39.5156V34.6181H44.3543V31.0488Z" fill="#E6AF78"/>
<path d="M39.5156 32.5297C40.2636 32.8336 41.0792 33.0047 41.935 33.0047C42.7907 33.0047 43.6063 32.8336 44.3543 32.5297V31.0483H39.5156V32.5297Z" fill="#D29B6E"/>
<path d="M48.2453 34.1163L44.3547 33.0048L41.9355 34.6102L39.5162 33.0047L35.6258 34.1163C34.5871 34.4131 33.8711 35.3624 33.8711 36.4426V42.3387C33.8711 42.7841 34.2321 43.1451 34.6775 43.1451H49.1937C49.6391 43.1451 50.0001 42.7841 50.0001 42.3387V36.4426C50.0001 35.3623 49.284 34.4131 48.2453 34.1163Z" fill="#D5DCED"/>
<path d="M42.7418 43.145H41.1289L41.5321 34.6176H42.3386L42.7418 43.145Z" fill="#AFB9D2"/>
<path d="M41.9354 31.8548C39.263 31.8548 37.0967 29.6884 37.0967 27.0161V26.0713C37.0967 25.6436 37.2666 25.2333 37.569 24.9308L39.0314 23.4684C39.3411 23.1587 39.7646 22.9807 40.2022 22.9945C42.7802 23.0758 45.062 23.6281 46.3094 24.8463C46.6147 25.1446 46.7741 25.5617 46.7741 25.9885V27.0161C46.7741 29.6885 44.6077 31.8548 41.9354 31.8548Z" fill="#F0C087"/>
<path d="M39.516 26.2713C39.516 25.341 40.2973 24.6016 41.2257 24.6607C42.8537 24.7646 45.2695 25.0367 46.7517 25.7496C46.7033 25.4094 46.5571 25.0882 46.3094 24.8462C45.062 23.6279 42.7802 23.0757 40.2022 22.9943L40.2021 22.9944C39.7645 22.9807 39.341 23.1587 39.0314 23.4683L37.5691 24.9306C37.2666 25.233 37.0967 25.6433 37.0967 26.0711V27.0159C37.0967 29.2226 38.5753 31.0805 40.5947 31.6623C39.9226 30.833 39.5161 29.7803 39.5161 28.6288L39.516 26.2713Z" fill="#E6AF78"/>
<path d="M46.7744 38.8456C46.7744 38.2039 47.0293 37.5885 47.483 37.1348L49.5589 35.059C49.8363 35.4555 50.0002 35.933 50.0002 36.4427V42.3387C50.0002 42.7842 49.6392 43.1452 49.1938 43.1452H46.7744V38.8456Z" fill="#C7CFE2"/>
<path d="M42.3386 36.2304H41.5321C41.3095 36.2304 41.1289 36.0499 41.1289 35.8272V34.6176H42.7418V35.8272C42.7418 36.0499 42.5613 36.2304 42.3386 36.2304Z" fill="#959CB5"/>
<path d="M41.9343 34.6103L40.5674 35.6543C40.3319 35.8342 39.9915 35.7621 39.8492 35.5022L38.623 33.2629L39.1166 32.5101C39.2261 32.3431 39.4594 32.3147 39.6058 32.4504L41.9343 34.6103Z" fill="#C7CFE2"/>
<path d="M41.9346 34.6103L43.3015 35.6544C43.5369 35.8343 43.8773 35.7622 44.0196 35.5023L45.2458 33.263L44.7522 32.5102C44.6428 32.3432 44.4095 32.3148 44.2631 32.4505L41.9346 34.6103Z" fill="#C7CFE2"/>
<path d="M14.4359 31.5181C13.7468 29.6921 13.2002 26.5531 13.0821 24.9189C12.8575 21.8089 10.5138 19.2737 7.34568 19.2737C4.17752 19.2737 1.83386 21.809 1.60925 24.9189C1.49119 26.553 0.944605 29.6921 0.255445 31.5181C0.103589 31.9206 0.278882 32.3645 0.675269 32.5442C1.41375 32.8788 2.98826 33.5345 4.88718 33.7899H9.80408C11.6941 33.5339 13.2797 32.8778 14.016 32.5442C14.4125 32.3645 14.5878 31.9206 14.4359 31.5181Z" fill="#5A4146"/>
<path d="M14.0164 32.5442C14.4127 32.3645 14.5881 31.9207 14.4361 31.5181C13.7471 29.6922 13.2004 26.5532 13.0824 24.9189C12.8579 21.809 10.5142 19.2738 7.34609 19.2738C7.33808 19.2738 7.33017 19.2738 7.32217 19.2739C4.89121 19.2838 4.03213 22.5991 6.1248 23.8361C6.25049 23.9104 6.33105 23.9462 6.33105 23.9462L8.16396 33.7899H9.80449C11.6945 33.5338 13.2801 32.8778 14.0164 32.5442Z" fill="#694B4B"/>
<path d="M13.1787 35.409L10.5689 34.1042C10.0225 33.831 9.67725 33.2724 9.67734 32.6614L9.67754 30.242H4.83867V32.6615C4.83867 33.2725 4.49355 33.8309 3.94707 34.1041L1.3373 35.409C0.517676 35.8188 0 36.6565 0 37.5728V42.3386C0 42.7839 0.361035 43.145 0.806445 43.145H13.7097C14.1551 43.145 14.5161 42.7839 14.5161 42.3386V37.5729C14.5161 36.6565 13.9983 35.8188 13.1787 35.409Z" fill="#E6AF78"/>
<path d="M7.25791 33.4677C8.12627 33.4677 8.95801 33.2887 9.72051 32.97C9.70049 32.8683 9.67715 32.7673 9.67715 32.6613L9.67734 30.2419H4.83848V32.6614C4.83848 32.768 4.81514 32.8695 4.79492 32.9716C5.55791 33.2886 6.38926 33.4677 7.25791 33.4677Z" fill="#D29B6E"/>
<path d="M13.1787 35.409L11.3195 34.4794C10.4574 35.8107 8.96221 36.6936 7.25811 36.6936C5.554 36.6936 4.05869 35.8107 3.19658 34.4793L1.3374 35.409C0.517773 35.8188 0 36.6565 0 37.5728V42.3386C0 42.784 0.361035 43.145 0.806445 43.145H13.7097C14.1551 43.145 14.5161 42.784 14.5161 42.3386V37.5729C14.5161 36.6565 13.9983 35.8188 13.1787 35.409Z" fill="#D5DCED"/>
<path d="M7.25784 31.8548C4.79769 31.8548 2.76644 30.0188 2.45931 27.6424C2.41478 27.298 2.5803 26.9604 2.89027 26.8041C3.26155 26.6168 3.80111 26.301 4.31771 25.84C4.893 25.3267 5.2305 24.7854 5.42112 24.3881C5.58528 24.0459 5.96263 23.8523 6.3304 23.9462C9.16985 24.6704 11.103 26.1476 11.8043 26.7508C11.9926 26.9127 12.1011 27.1514 12.0818 27.3991C11.8864 29.8923 9.8013 31.8548 7.25784 31.8548Z" fill="#F0C087"/>
<path d="M11.8042 26.7507C11.1029 26.1476 9.16973 24.6703 6.33028 23.9461C5.96251 23.8523 5.58516 24.0458 5.421 24.388C5.27667 24.689 5.03809 25.0724 4.68409 25.4638C4.68399 25.4648 4.6837 25.4655 4.6836 25.4665C4.57374 25.591 4.45674 25.7158 4.31768 25.8401C3.80108 26.3011 3.26153 26.6168 2.89024 26.8041C2.58028 26.9605 2.41485 27.2982 2.45928 27.6425C2.73516 29.7768 4.40528 31.4756 6.52422 31.7996C5.5587 31.1428 4.83848 30.2395 4.83848 28.6291V27.4791C5.02169 27.3439 5.20616 27.209 5.39151 27.0436C5.83975 26.6436 6.23106 26.181 6.54483 25.6829C8.717 26.3608 10.1897 27.4898 10.748 27.9698C10.9008 28.1038 11.2801 28.4534 11.7238 28.8697C11.9148 28.4103 12.041 27.9173 12.0815 27.3992C12.101 27.1515 11.9925 26.9127 11.8042 26.7507Z" fill="#E6AF78"/>
<path d="M0.491602 36.119C0.180957 36.5313 0 37.0371 0 37.5727V42.3385C0 42.784 0.361035 43.145 0.806445 43.145H3.22578V39.0815C3.22578 38.5916 3.00303 38.1281 2.62041 37.822L0.491602 36.119Z" fill="#C7CFE2"/>
<path d="M36.5859 34.3084L29.8384 31.8547L24.9997 33.4677L20.161 31.8548L13.4135 34.3085C12.1387 34.7721 11.29 35.9836 11.29 37.34V42.3387C11.29 42.784 11.6511 43.1451 12.0965 43.1451H37.9029C38.3483 43.1451 38.7094 42.784 38.7094 42.3387V37.34C38.7094 35.9835 37.8608 34.772 36.5859 34.3084Z" fill="#FF507D"/>
<path d="M24.1548 35.0807L23.3867 43.145H26.6125L25.8444 35.0807H24.1548Z" fill="#707487"/>
<path d="M25.8468 36.1885H24.1534C23.8416 36.1885 23.5889 35.9358 23.5889 35.624V33.4677H26.4112V35.624C26.4113 35.9357 26.1586 36.1885 25.8468 36.1885Z" fill="#5B5D6E"/>
<path d="M37.8417 35.1421C38.3862 35.7266 38.7098 36.505 38.7098 37.3399V42.3386C38.7098 42.784 38.3487 43.145 37.9033 43.145H33.8711V40.4489C33.8711 39.5934 34.2109 38.7729 34.8159 38.168L37.8417 35.1421Z" fill="#D23C69"/>
<path d="M33.8709 15.2235V8.46769C33.8709 7.57687 33.1487 6.8548 32.258 6.8548H22.5806C19.0175 6.8548 16.1289 9.74327 16.1289 13.3065V15.2235C16.1289 16.0903 16.2687 16.9515 16.5428 17.7737L16.8112 18.5791C16.8935 18.8258 16.9354 19.0841 16.9354 19.3442V19.758H33.0644V19.3442C33.0644 19.0841 33.1063 18.8258 33.1885 18.5791L33.4569 17.7737C33.7312 16.9514 33.8709 16.0902 33.8709 15.2235Z" fill="#5A4146"/>
<path d="M20.1611 10.131C20.1611 11.9403 21.6279 13.4071 23.4373 13.4071H23.8909L24.1099 19.7579H33.0643V19.3441C33.0643 19.084 33.1062 18.8257 33.1884 18.579L33.4568 17.7736C33.731 16.9514 33.8707 16.0902 33.8707 15.2234V8.46769C33.8707 7.57687 33.1485 6.8548 32.2578 6.8548H23.4373C21.6279 6.8548 20.1611 8.32159 20.1611 10.131Z" fill="#694B4B"/>
<path d="M29.8389 26.21H20.1611V33.4678H29.8389V26.21Z" fill="#E6AF78"/>
<path d="M20.1612 28.9365C21.5858 29.7618 23.2352 30.2418 24.9999 30.2418C26.7646 30.2418 28.4141 29.7618 29.8386 28.9365V26.2096H20.1611L20.1612 28.9365Z" fill="#D29B6E"/>
<path d="M24.9994 33.4677L22.4273 36.0398C22.0816 36.3855 21.5103 36.3465 21.2147 35.957L18.5479 32.443L19.2454 30.973C19.4513 30.5392 19.9882 30.3802 20.397 30.6321L24.9994 33.4677Z" fill="#D23C69"/>
<path d="M24.999 33.4677L27.5711 36.0398C27.9168 36.3855 28.4882 36.3465 28.7837 35.957L31.4506 32.443L30.753 30.973C30.5472 30.5392 30.0103 30.3802 29.6015 30.6321L24.999 33.4677Z" fill="#D23C69"/>
<path d="M25.0001 28.629C20.5462 28.629 16.9355 25.0183 16.9355 20.5644V19.6196C16.9355 19.1919 17.1055 18.7816 17.4079 18.4791L18.076 17.811C18.3784 17.5086 18.5483 17.0983 18.5483 16.6705V14.7373C18.5483 14.3638 18.7991 14.0394 19.1625 13.9536C21.0698 13.5031 27.0051 12.436 31.0442 15.4067C31.3065 15.5996 31.4516 15.9165 31.4516 16.2421V16.6705C31.4516 17.0982 31.6215 17.5085 31.9239 17.811L32.592 18.4791C32.8944 18.7815 33.0644 19.1918 33.0644 19.6196V20.5644C33.0646 25.0183 29.454 28.629 25.0001 28.629Z" fill="#F0C087"/>
<path d="M31.0443 15.4068C28.2035 13.3175 24.43 13.227 21.7743 13.5131C20.6541 13.6337 19.7285 13.8201 19.1627 13.9537C18.7993 14.0395 18.5485 14.3639 18.5485 14.7374V16.6705C18.5485 17.0983 18.3786 17.5086 18.0761 17.8111L17.408 18.4792C17.1055 18.7817 16.9355 19.192 16.9355 19.6198V20.5645C16.9355 24.688 20.0322 28.0826 24.0256 28.5645C22.6341 27.1154 21.7742 25.1516 21.7742 22.9839V17.0892C21.7742 16.272 22.3819 15.5889 23.1928 15.4873C25.1281 15.2446 28.6728 15.0987 31.4516 16.6707V16.2422C31.4518 15.9166 31.3064 15.5996 31.0443 15.4068Z" fill="#E6AF78"/>
<path d="M12.1581 35.1421C11.6136 35.7266 11.29 36.505 11.29 37.3399V42.3386C11.29 42.784 11.6511 43.145 12.0965 43.145H16.1287V40.4489C16.1287 39.5934 15.7889 38.7729 15.1839 38.168L12.1581 35.1421Z" fill="#D23C69"/>
</g>
<defs>
<clipPath id="clip0_311_3208">
<rect width="50" height="50" fill="white"/>
</clipPath>
</defs>
</svg>
