<svg width="50" height="50" viewBox="0 0 50 50" fill="none" xmlns="http://www.w3.org/2000/svg">
<path d="M49.2685 14.3711V40.4746C49.2685 44.6749 45.8632 48.0801 41.6621 48.0801H8.33883C4.1386 48.0801 0.733398 44.6748 0.733398 40.4746V14.3711L25.001 9.07654L49.2685 14.3711Z" fill="#F9F7F8"/>
<path d="M34.156 11.3931V48.0809H15.8457V11.3931" fill="#DEDBEE"/>
<path d="M49.2685 12.3975V14.3711H0.733398V12.3975C0.733398 8.19628 4.1387 4.79205 8.33883 4.79205H41.662C45.8632 4.79196 49.2685 8.19628 49.2685 12.3975Z" fill="#82AEE3"/>
<path d="M19.8312 25.7727H7.3465C6.13419 25.7727 5.15137 24.7898 5.15137 23.5775V22.2362C5.15137 21.0239 6.13419 20.0411 7.3465 20.0411H19.8312C21.0435 20.0411 22.0263 21.0239 22.0263 22.2362V23.5775C22.0263 24.7898 21.0436 25.7727 19.8312 25.7727Z" fill="#FE646F"/>
<path d="M37.1857 34.4021H24.701C23.4887 34.4021 22.5059 33.4193 22.5059 32.207V30.8657C22.5059 29.6534 23.4887 28.6705 24.701 28.6705H37.1857C38.398 28.6705 39.3808 29.6534 39.3808 30.8657V32.207C39.3808 33.4194 38.398 34.4021 37.1857 34.4021Z" fill="#82AEE3"/>
<path d="M28.7476 43.0317H7.3465C6.13419 43.0317 5.15137 42.0489 5.15137 40.8366V39.4952C5.15137 38.2829 6.13419 37.3001 7.3465 37.3001H28.7475C29.9599 37.3001 30.9427 38.2829 30.9427 39.4952V40.8366C30.9428 42.0489 29.96 43.0317 28.7476 43.0317Z" fill="#BBEC6C"/>
<path d="M43.8805 43.0317H39.617C38.4047 43.0317 37.4219 42.0488 37.4219 40.8365V39.4952C37.4219 38.2829 38.4047 37.3001 39.617 37.3001H43.8805C45.0928 37.3001 46.0756 38.2829 46.0756 39.4952V40.8365C46.0756 42.0488 45.0928 43.0317 43.8805 43.0317Z" fill="#FE646F"/>
<path d="M11.3484 9.72109C10.2687 9.72109 9.39355 8.8459 9.39355 7.76621V3.87432C9.39355 2.79463 10.2687 1.91943 11.3484 1.91943C12.4281 1.91943 13.3033 2.79463 13.3033 3.87432V7.76621C13.3033 8.8459 12.4281 9.72109 11.3484 9.72109Z" fill="#FFE177"/>
<path d="M38.6531 9.72109C37.5734 9.72109 36.6982 8.8459 36.6982 7.76621V3.87432C36.6982 2.79463 37.5734 1.91943 38.6531 1.91943C39.7328 1.91943 40.608 2.79463 40.608 3.87432V7.76621C40.608 8.8459 39.7327 9.72109 38.6531 9.72109Z" fill="#FFE177"/>
<path d="M12.0283 9.59991C11.8174 9.67804 11.5879 9.72101 11.3486 9.72101C10.2686 9.72101 9.39355 8.84601 9.39355 7.76593V3.87433C9.39355 2.79425 10.2686 1.91925 11.3486 1.91925C11.5879 1.91925 11.8174 1.96222 12.0283 2.04034C11.2842 2.31671 10.7539 3.03351 10.7539 3.87433V7.76593C10.7539 8.60665 11.2842 9.32345 12.0283 9.59991Z" fill="#FEC165"/>
<path d="M39.333 9.59991C39.1221 9.67804 38.8926 9.72101 38.6533 9.72101C37.5732 9.72101 36.6982 8.84601 36.6982 7.76593V3.87433C36.6982 2.79425 37.5732 1.91925 38.6533 1.91925C38.8926 1.91925 39.1221 1.96222 39.333 2.04034C38.5889 2.31671 38.0586 3.03351 38.0586 3.87433V7.76593C38.0586 8.60665 38.5889 9.32345 39.333 9.59991Z" fill="#FEC165"/>
<path d="M41.662 4.06008H41.3398V3.87434C41.3398 2.39259 40.1342 1.18701 38.6525 1.18701C37.1707 1.18701 35.9652 2.39259 35.9652 3.87434V4.06008H14.0348V3.87434C14.0348 2.39259 12.8293 1.18701 11.3475 1.18701C9.8656 1.18701 8.66013 2.39259 8.66013 3.87434V4.06008H8.33786C3.74036 4.06008 0 7.80035 0 12.3979V40.4751C0 45.0726 3.74036 48.813 8.33786 48.813H41.662C46.2595 48.813 50 45.0726 50 40.4751V12.3979C50 7.80035 46.2595 4.06008 41.662 4.06008ZM37.4301 3.87434C37.4301 3.20031 37.9784 2.65187 38.6525 2.65187C39.3267 2.65187 39.875 3.20021 39.875 3.87434V7.76636C39.875 8.44039 39.3267 8.98883 38.6525 8.98883C37.9784 8.98883 37.4301 8.44049 37.4301 7.76636V3.87434ZM10.125 3.87434C10.125 3.20031 10.6734 2.65187 11.3475 2.65187C12.0215 2.65187 12.5699 3.20021 12.5699 3.87434V7.76636C12.5699 8.44039 12.0216 8.98883 11.3475 8.98883C10.6733 8.98883 10.125 8.44049 10.125 7.76636V3.87434ZM1.46486 40.475V15.104H15.1123V19.3087H7.34635C5.73208 19.3087 4.41878 20.622 4.41878 22.2363V23.5776C4.41878 25.1919 5.73208 26.5052 7.34635 26.5052H15.1122V36.568H7.34664C5.73227 36.568 4.41888 37.8813 4.41888 39.4957V40.8365C4.41888 42.4509 5.73227 43.7642 7.34664 43.7642H9.24509C9.64959 43.7642 9.97752 43.4363 9.97752 43.0318C9.97752 42.6273 9.64959 42.2993 9.24509 42.2993H7.34664C6.53999 42.2993 5.88374 41.6431 5.88374 40.8365V39.4957C5.88374 38.6891 6.53999 38.0328 7.34664 38.0328H28.747C29.5536 38.0328 30.2099 38.6891 30.2099 39.4957V40.8365C30.2099 41.6432 29.5536 42.2993 28.747 42.2993H12.1748C11.7703 42.2993 11.4424 42.6273 11.4424 43.0318C11.4424 43.4363 11.7703 43.7642 12.1748 43.7642H15.1123V47.3482H8.33786C4.54808 47.3481 1.46486 44.2649 1.46486 40.475ZM24.7003 33.6697C23.8937 33.6697 23.2376 33.0135 23.2376 32.207V30.8657C23.2376 30.0591 23.8937 29.403 24.7003 29.403H37.185C37.9915 29.403 38.6478 30.0591 38.6478 30.8657V32.207C38.6478 33.0135 37.9915 33.6697 37.185 33.6697H24.7003ZM24.7003 27.9381C23.086 27.9381 21.7727 29.2514 21.7727 30.8657V32.207C21.7727 33.8213 23.086 35.1345 24.7003 35.1345H33.4228V47.348H16.5772V43.764H28.7471C30.3615 43.764 31.6749 42.4506 31.6749 40.8363V39.4955C31.6749 37.8811 30.3615 36.5678 28.7471 36.5678H16.5772V26.5051H19.8311C21.4454 26.5051 22.7587 25.1918 22.7587 23.5775V22.2362C22.7587 20.6219 21.4454 19.3086 19.8311 19.3086H16.5772V15.1039H33.4229V27.9381H24.7003ZM19.831 20.7735C20.6376 20.7735 21.2937 21.4297 21.2937 22.2362V23.5775C21.2937 24.3841 20.6376 25.0402 19.831 25.0402H7.34635C6.5398 25.0402 5.88364 24.3841 5.88364 23.5775V22.2362C5.88364 21.4297 6.5398 20.7735 7.34635 20.7735H19.831ZM41.662 47.3481H34.8877V35.1345H37.1849C38.7991 35.1345 40.1125 33.8213 40.1125 32.207V30.8657C40.1125 29.2514 38.7992 27.9381 37.1849 27.9381H34.8877V15.104H38.6524C39.0569 15.104 39.3848 14.7761 39.3848 14.3716C39.3848 13.9671 39.0569 13.6392 38.6524 13.6392H1.46486V12.3979C1.46486 8.60816 4.54808 5.52494 8.33786 5.52494H8.66013V7.76636C8.66013 9.24811 9.8657 10.4537 11.3475 10.4537C12.8292 10.4537 14.0348 9.24821 14.0348 7.76636V5.52494H35.9652V7.76636C35.9652 9.24811 37.1708 10.4537 38.6525 10.4537C40.1343 10.4537 41.3399 9.24821 41.3399 7.76636V5.52494H41.6621C45.452 5.52494 48.5352 8.60816 48.5352 12.3979V13.6392H41.5822C41.1776 13.6392 40.8497 13.9671 40.8497 14.3716C40.8497 14.7761 41.1776 15.104 41.5822 15.104H48.5352V40.4751C48.5351 44.2649 45.4519 47.3481 41.662 47.3481Z" fill="black"/>
<path d="M43.8795 36.5677H39.616C38.0019 36.5677 36.6885 37.881 36.6885 39.4952V40.8365C36.6885 42.4508 38.0018 43.7641 39.616 43.7641H43.8795C45.4937 43.7641 46.807 42.4508 46.807 40.8365V39.4952C46.807 37.881 45.4938 36.5677 43.8795 36.5677ZM45.3422 40.8365C45.3422 41.6431 44.686 42.2992 43.8795 42.2992H39.616C38.8095 42.2992 38.1533 41.6431 38.1533 40.8365V39.4952C38.1533 38.6887 38.8095 38.0325 39.616 38.0325H43.8795C44.686 38.0325 45.3422 38.6887 45.3422 39.4952V40.8365Z" fill="black"/>
<path d="M6.64063 17.5299H10.0046C10.4091 17.5299 10.737 17.202 10.737 16.7975C10.737 16.393 10.4091 16.0651 10.0046 16.0651H6.64063C6.23613 16.0651 5.9082 16.393 5.9082 16.7975C5.9082 17.202 6.23613 17.5299 6.64063 17.5299Z" fill="black"/>
<path d="M43.9714 17.5299C44.376 17.5299 44.7038 17.202 44.7038 16.7975C44.7038 16.393 44.376 16.0651 43.9714 16.0651H40.6074C40.2028 16.0651 39.875 16.393 39.875 16.7975C39.875 17.202 40.2028 17.5299 40.6074 17.5299H43.9714Z" fill="black"/>
<path d="M26.6823 16.0651H23.3184C22.9139 16.0651 22.5859 16.393 22.5859 16.7975C22.5859 17.202 22.9139 17.5299 23.3184 17.5299H26.6823C27.0869 17.5299 27.4147 17.202 27.4147 16.7975C27.4147 16.393 27.0868 16.0651 26.6823 16.0651Z" fill="black"/>
</svg>
