<svg width="145" height="36" viewBox="0 0 145 36" fill="none" xmlns="http://www.w3.org/2000/svg">
<path d="M22.8131 20.4635C26.4509 18.5116 33.6468 0.495643 46.7691 3.51694C62.3933 7.11429 51.9152 32.9739 44.196 29.2474" stroke="url(#paint0_linear_107_10)" stroke-width="5.501"/>
<path d="M13.6744 28.0939C5.06799 32.8851 -0.113626 20.3748 5.06796 10.0826C9.04348 2.18603 16.4248 1.56496 20.5062 4.93653L25.3862 9.01792" stroke="url(#paint1_linear_107_10)" stroke-width="5.501"/>
<path d="M15.2714 17.2694C16.0429 21.772 19.6662 33.24 29.4242 33.24C35.4769 33.24 42.3901 23.4139 42.9539 17.2694" stroke="url(#paint2_linear_107_10)" stroke-width="5.501" stroke-linecap="round"/>
<path d="M74.3969 12.12L71.5569 26.12H67.7969L64.9569 12.12H67.8369L68.9369 18.6L69.6169 22.8H69.7369L70.4169 18.6L71.5169 12.12H74.3969Z" fill="#FFA500"/>
<path d="M79.1654 14.52V19.52H80.9454C81.6787 18.92 82.0454 18.04 82.0454 16.88C82.0454 16.3867 81.9454 15.92 81.7454 15.48C81.5587 15.04 81.332 14.72 81.0654 14.52H79.1654ZM76.4654 26.12V12.12H81.8854C82.792 12.52 83.5054 13.1334 84.0254 13.96C84.5587 14.7867 84.8254 15.7534 84.8254 16.86C84.8254 17.9534 84.552 18.9667 84.0054 19.9C83.4587 20.8334 82.652 21.4934 81.5854 21.88H79.1654V26.12H76.4654ZM87.2096 26.12V15.9H89.1096L89.6096 16.98C90.1429 16.26 90.8163 15.9 91.6296 15.9H92.4096V18.58H89.8696V26.12H87.2096ZM100.266 26.12H95.9057C94.5724 24.88 93.9057 23.1867 93.9057 21.04C93.9057 19.96 94.0524 19.02 94.3457 18.22C94.6524 17.42 95.1324 16.6467 95.7857 15.9H100.466C101.159 16.7 101.632 17.48 101.886 18.24C102.139 18.9867 102.266 19.92 102.266 21.04C102.266 23.1867 101.599 24.88 100.266 26.12ZM97.3257 24.02H98.8457C99.3257 23.0867 99.5657 22.0267 99.5657 20.84C99.5657 19.6534 99.319 18.7067 98.8257 18H97.3257C96.8457 18.68 96.6057 19.6467 96.6057 20.9C96.6057 22.14 96.8457 23.18 97.3257 24.02ZM108.677 23.8H112.197V26.12H107.117C106.237 25.2934 105.571 24.2467 105.117 22.98C104.664 21.7134 104.437 20.4134 104.437 19.08C104.437 17.7334 104.691 16.44 105.197 15.2C105.704 13.96 106.457 12.9334 107.457 12.12H112.197V14.52H108.677C108.317 14.9334 108.004 15.6 107.737 16.52C107.484 17.44 107.357 18.32 107.357 19.16C107.357 20 107.484 20.88 107.737 21.8C108.004 22.72 108.317 23.3867 108.677 23.8ZM118.125 23.8H119.805C120.098 23.48 120.305 23.16 120.425 22.84C120.558 22.5067 120.625 22.02 120.625 21.38V12.12H123.365V20.38C123.365 21.06 123.345 21.5934 123.305 21.98C123.278 22.3534 123.198 22.8134 123.065 23.36C122.838 24.3334 122.211 25.2534 121.185 26.12H116.745C115.718 25.28 115.091 24.36 114.865 23.36C114.665 22.5467 114.565 21.5534 114.565 20.38V12.12H117.305V21.38C117.305 22.02 117.365 22.5067 117.485 22.84C117.618 23.16 117.831 23.48 118.125 23.8ZM126.192 12.12H131.512C132.352 12.4 133.065 12.92 133.652 13.68C134.252 14.4267 134.552 15.3467 134.552 16.44C134.552 18.2267 133.845 19.54 132.432 20.38L134.452 26.12H131.652L129.952 21.02H128.892V26.12H126.192V12.12ZM128.892 14.52V18.78H130.612C130.839 18.7267 131.085 18.5 131.352 18.1C131.632 17.6867 131.772 17.2067 131.772 16.66C131.772 16.1134 131.652 15.6334 131.412 15.22C131.185 14.8067 130.959 14.5734 130.732 14.52H128.892ZM136.997 26.12V12.12H144.177V14.52H139.737V17.86H143.697V20.18H139.737V23.8H144.257V26.12H136.997Z" fill="#2C83EC"/>
<defs>
<linearGradient id="paint0_linear_107_10" x1="21.0714" y1="3.24353" x2="56.4123" y2="3.24353" gradientUnits="userSpaceOnUse">
<stop stop-color="#7DBDF3"/>
<stop offset="1" stop-color="#5992BC"/>
</linearGradient>
<linearGradient id="paint1_linear_107_10" x1="13.2708" y1="2.36347" x2="13.2708" y2="33.7724" gradientUnits="userSpaceOnUse">
<stop stop-color="#93A5FD"/>
<stop offset="0.553672" stop-color="#71C6F4"/>
</linearGradient>
<linearGradient id="paint2_linear_107_10" x1="24.8526" y1="16.4815" x2="30.8009" y2="34.5575" gradientUnits="userSpaceOnUse">
<stop stop-color="#FBC67B"/>
<stop offset="1" stop-color="#DF9899"/>
</linearGradient>
</defs>
</svg>
