<svg width="20" height="20" viewBox="0 0 20 20" fill="none" xmlns="http://www.w3.org/2000/svg">
<g clip-path="url(#clip0_218_117)">
<path d="M19.9291 11.5822L19.7116 11.1118C19.6264 10.9279 19.4745 10.788 19.284 10.718C19.0936 10.6491 18.8875 10.6572 18.7041 10.7418L18.4681 10.8514C17.6944 11.2095 16.9593 11.0787 16.4064 10.9247L16.1227 10.8438C15.2986 10.6089 14.5217 10.387 13.4768 10.6111C12.9965 10.7138 12.5555 10.8982 12.1711 11.1478C11.9603 10.8748 11.7337 10.6 11.4923 10.3244C12.1111 9.4534 12.8942 9.07023 13.4659 8.90754C13.7334 8.83159 13.9727 8.77271 14.1935 8.71819C14.9877 8.52288 15.7381 8.33815 16.7011 7.61088C17.6163 6.91916 18.2776 5.88265 18.7225 4.44251L18.799 4.19511C18.8592 4.0017 18.8402 3.79636 18.7453 3.61705C18.6509 3.43774 18.4919 3.3059 18.2982 3.24622L17.8029 3.09296C17.4025 2.96872 16.9783 3.19468 16.854 3.59372L16.7775 3.84139C16.4629 4.85971 16.0359 5.56121 15.4733 5.98628C14.8461 6.46018 14.4425 6.55972 13.7068 6.74148C13.4638 6.80089 13.2017 6.86572 12.9088 6.94955C12.0825 7.18478 10.9742 7.70444 10.0574 8.84084C9.84052 8.63856 9.6227 8.44499 9.40459 8.26009C9.75314 7.86536 10.0301 7.42515 10.1961 6.71517C10.3589 6.0191 10.3361 5.40225 10.3157 4.8532C10.3057 4.57841 10.2959 4.31882 10.3166 4.11157C10.3871 3.40302 10.527 2.72134 11.4461 2.16741L11.6674 2.0334C11.8411 1.92897 11.9637 1.76295 12.0125 1.56602C12.0608 1.36935 12.0299 1.16534 11.9257 0.991734L11.6577 0.547953C11.553 0.374347 11.387 0.252009 11.1906 0.203181C10.9925 0.154887 10.7896 0.185538 10.6166 0.289984L10.3947 0.423709C8.52538 1.55055 8.36074 3.20363 8.29047 3.91002C8.25602 4.25506 8.26876 4.59686 8.28124 4.93024C8.29753 5.36779 8.31462 5.82027 8.2137 6.25184C8.12939 6.6126 8.03141 6.76172 7.76753 7.03338C7.54866 6.89151 7.33209 6.7588 7.12514 6.64611C5.95014 6.00862 5.09389 5.90549 4.6564 6.34613C4.51373 6.48832 4.43896 6.67621 4.41091 6.89317L0.125149 17.5836C-0.131104 18.2211 0.0126337 18.918 0.497024 19.4024C0.822018 19.7305 1.24388 19.9024 1.67827 19.9024C1.89076 19.9024 2.10639 19.8586 2.31576 19.7774L12.9866 15.4995C13.219 15.4728 13.4115 15.391 13.5564 15.2461C13.9842 14.8152 13.8914 13.9876 13.2911 12.8496C13.4657 12.7381 13.6712 12.6517 13.9038 12.6022C14.4512 12.4834 14.8228 12.5897 15.565 12.8024L15.858 12.8848C16.6799 13.1143 17.9315 13.3438 19.3253 12.6982L19.5596 12.5897C19.7436 12.5045 19.8835 12.3526 19.9535 12.1622C20.023 11.9718 20.0148 11.7656 19.9291 11.5822ZM13.0612 7.48393C13.3471 7.40228 13.6027 7.33909 13.843 7.27994C14.5939 7.09466 15.0903 6.97232 15.8086 6.42953C16.4672 5.93202 16.9577 5.13912 17.3081 4.0055L17.3846 3.75783C17.4118 3.67076 17.4926 3.61461 17.5794 3.61461C17.5989 3.61461 17.619 3.61758 17.6391 3.62356L18.1344 3.77683C18.1865 3.79283 18.2288 3.8281 18.2543 3.87611C18.2793 3.92412 18.2847 3.97892 18.2684 4.03101L18.1919 4.27868C17.7829 5.60354 17.1855 6.54861 16.3658 7.16764C15.4945 7.826 14.8619 7.98172 14.0611 8.17892C13.8338 8.23453 13.5891 8.29502 13.314 8.37314C12.5946 8.57795 11.5839 9.07464 10.8526 10.2777L10.7169 10.4993C10.6589 10.5954 10.5347 10.6241 10.4381 10.5677L9.99511 10.298C9.89934 10.2394 9.86869 10.1144 9.92728 10.0184L10.0616 9.79675C10.9491 8.33816 12.1823 7.73404 13.0612 7.48393ZM8.75461 6.37826C8.87261 5.87425 8.85417 5.38381 8.83626 4.90718C8.82459 4.59497 8.81267 4.27243 8.84332 3.96482C8.90544 3.34172 9.05055 1.88258 10.6811 0.899519L10.9036 0.765775C10.9502 0.737831 11.0039 0.729441 11.0571 0.742447C11.1097 0.755475 11.1542 0.7883 11.1819 0.834953L11.4499 1.27874C11.4776 1.32512 11.4862 1.37992 11.4727 1.43255C11.4597 1.48517 11.4271 1.52967 11.3804 1.55761L11.1591 1.6916C10.0209 2.37763 9.8421 3.27199 9.76371 4.0565C9.73929 4.30173 9.74962 4.5795 9.76073 4.8787C9.77971 5.38787 9.80088 5.96513 9.6552 6.58876C9.46858 7.38683 9.13844 7.7609 8.65586 8.2405L8.47222 8.42305C8.39166 8.50173 8.26308 8.50144 8.1844 8.42223L7.81901 8.05413C7.78077 8.01589 7.75988 7.96489 7.75988 7.91064C7.76015 7.85638 7.7813 7.80538 7.81983 7.76713L8.00374 7.5843C8.41634 7.17442 8.6206 6.95171 8.75461 6.37826ZM4.57959 7.96542C5.02986 9.22261 6.25571 10.8736 7.64077 12.2586C8.57456 13.1924 9.5498 13.9897 10.4523 14.5663C9.32921 14.1562 8.25162 13.6272 7.23254 12.983C5.94291 12.169 4.7734 11.1782 3.747 10.0428L4.57959 7.96542ZM2.10952 19.2618C1.60014 19.4649 1.14388 19.2649 0.890762 19.0117C0.634527 18.7555 0.434524 18.3024 0.640765 17.793L0.753624 17.5114C1.28791 17.9343 1.84602 18.3406 2.43034 18.7122C2.56932 18.8 2.7124 18.8793 2.85323 18.9634L2.10952 19.2618ZM3.49694 18.7035C3.23733 18.5564 2.98072 18.4029 2.72763 18.2429C2.11416 17.8525 1.52238 17.4285 0.966331 16.9807L1.67401 15.215C2.30541 15.7565 2.98421 16.2575 3.69687 16.7086C4.35143 17.122 5.03068 17.4914 5.72349 17.8105L3.49694 18.7035ZM6.44847 17.5214C5.60769 17.1667 4.78211 16.7366 3.99363 16.2388C3.2492 15.7682 2.54517 15.2384 1.89391 14.6663L2.55742 13.0109C3.51342 13.924 4.55519 14.7487 5.66895 15.4559C6.47538 15.9669 7.33046 16.4198 8.21541 16.8127L6.44847 17.5214ZM11.3347 15.5615L8.93825 16.5214C7.89958 16.0944 6.90024 15.579 5.96654 14.9871C4.82165 14.2597 3.74974 13.4107 2.77785 12.4608L3.51573 10.6198C4.53151 11.7084 5.68034 12.6604 6.93605 13.4529C8.3607 14.3529 9.89545 15.037 11.5089 15.4916L11.3347 15.5615ZM13.1626 14.8524C12.9876 15.0274 12.4095 15.0274 11.3501 14.4555C10.3283 13.9024 9.15326 12.9836 8.03452 11.868C5.52201 9.35237 4.60013 7.18362 5.04702 6.73675C5.10951 6.67424 5.22202 6.63362 5.39077 6.63362C5.69701 6.63362 6.17827 6.76486 6.86265 7.13361C7.02834 7.224 7.20096 7.3278 7.37544 7.4369C7.26701 7.57066 7.20479 7.73429 7.20433 7.909C7.20378 8.11191 7.28217 8.30262 7.42512 8.44611L7.79053 8.81394C7.93864 8.96287 8.13368 9.03747 8.32871 9.03747C8.52214 9.03747 8.71581 8.96396 8.86365 8.81721L9.0207 8.66109C9.25641 8.86037 9.49179 9.07087 9.72626 9.29227C9.67919 9.36302 9.63206 9.43364 9.58657 9.50839L9.45229 9.72974C9.23501 10.0867 9.34866 10.5547 9.7062 10.7722L10.1494 11.0424C10.2723 11.1167 10.4082 11.1525 10.5422 11.1525C10.791 11.1525 11.0321 11.0285 11.1763 10.8076C11.372 11.0347 11.5564 11.2608 11.7293 11.4856C11.5653 11.6343 11.4168 11.7973 11.2877 11.9745L11.1358 12.1833C11.0159 12.3466 10.9676 12.5468 10.9985 12.747C11.03 12.9478 11.1374 13.1241 11.3012 13.244L11.7201 13.5494C11.8546 13.6476 12.0114 13.6948 12.166 13.6948C12.4004 13.6948 12.6315 13.5869 12.7796 13.3834L12.8756 13.2522C13.16 13.8223 13.2658 14.2382 13.2658 14.5086C13.2658 14.6774 13.2251 14.7899 13.1626 14.8524ZM19.4316 11.9707C19.4132 12.0217 19.3757 12.0624 19.3258 12.0857L19.0914 12.1942C17.8637 12.7633 16.7434 12.5561 16.0082 12.3499L15.7142 12.2669C14.9395 12.0461 14.4713 11.9132 13.7871 12.0586C13.2305 12.1779 12.7677 12.4573 12.4845 12.8463L12.331 13.0557C12.2653 13.1463 12.1378 13.1669 12.0478 13.1002L11.6289 12.7948C11.585 12.7628 11.5557 12.7156 11.5476 12.6619C11.5394 12.6081 11.5519 12.555 11.5844 12.5105L11.7369 12.3016C12.1546 11.7281 12.8138 11.3207 13.5929 11.1547C14.5038 10.9599 15.1516 11.1444 15.9703 11.3777L16.2556 11.4591C16.9023 11.6403 17.7644 11.7905 18.7019 11.3554L18.9374 11.2458C18.9867 11.2241 19.041 11.2204 19.0925 11.2399C19.1435 11.2583 19.1842 11.2958 19.2075 11.3451L19.4256 11.8155C19.4484 11.8649 19.4506 11.9202 19.4316 11.9707ZM5.84311 3.17001C5.26206 3.17001 4.78952 2.69747 4.78952 2.11642C4.78952 1.53564 5.26206 1.06309 5.84311 1.06309C6.42389 1.06309 6.89644 1.53564 6.89644 2.11642C6.89644 2.69747 6.4239 3.17001 5.84311 3.17001ZM5.84311 1.61864C5.56859 1.61864 5.34507 1.84189 5.34507 2.11642C5.34507 2.39094 5.56859 2.61446 5.84311 2.61446C6.11764 2.61446 6.34089 2.39094 6.34089 2.11642C6.34089 1.84189 6.11764 1.61864 5.84311 1.61864ZM15.1809 2.5838C14.4957 2.5838 13.9379 2.02635 13.9379 1.34087C13.9379 0.655378 14.4957 0.0976562 15.1809 0.0976562C15.8661 0.0976562 16.4238 0.655378 16.4238 1.34087C16.4238 2.02635 15.8661 2.5838 15.1809 2.5838ZM15.1809 0.653209C14.8017 0.653209 14.4935 0.961638 14.4935 1.34087C14.4935 1.71982 14.8017 2.02825 15.1809 2.02825C15.5601 2.02825 15.8683 1.71983 15.8683 1.34087C15.8683 0.961638 15.5601 0.653209 15.1809 0.653209ZM17.141 16.1096C16.5139 16.1096 16.0034 15.5991 16.0034 14.9714C16.0034 14.3437 16.5139 13.8332 17.141 13.8332C17.7688 13.8332 18.2793 14.3437 18.2793 14.9714C18.2793 15.5991 17.7688 16.1096 17.141 16.1096ZM17.141 14.3887C16.8199 14.3887 16.5589 14.6502 16.5589 14.9714C16.5589 15.2926 16.8199 15.5541 17.141 15.5541C17.4622 15.5541 17.7237 15.2926 17.7237 14.9714C17.7237 14.6502 17.4622 14.3887 17.141 14.3887Z" fill="#2C83EC"/>
</g>
<defs>
<clipPath id="clip0_218_117">
<rect width="20" height="20" fill="white"/>
</clipPath>
</defs>
</svg>
