<svg width="80" height="80" viewBox="0 0 80 80" fill="none" xmlns="http://www.w3.org/2000/svg">
<path fill-rule="evenodd" clip-rule="evenodd" d="M13.4127 34.735H5.30188C3.69141 34.735 2.28922 35.6672 1.60609 37.0202C1.33016 37.5767 1.17188 38.2058 1.17188 38.8664V68.1444V70.8686C1.17188 71.5292 1.33016 72.1583 1.60609 72.7148C2.28922 74.0678 3.69156 75 5.30188 75H74.6981C76.9689 75 78.8281 73.1402 78.8281 70.8684V38.8664C78.8281 36.5948 76.9689 34.7348 74.6981 34.7348H66.5873H13.4127V34.735Z" fill="#FECE85"/>
<path fill-rule="evenodd" clip-rule="evenodd" d="M9.87541 40.9525C8.4776 40.9525 7.34229 42.0883 7.34229 43.4866C7.34229 44.8894 8.47775 46.0251 9.87541 46.0251C11.2778 46.0251 12.4087 44.8894 12.4087 43.4866C12.4085 42.0884 11.2776 40.9525 9.87541 40.9525Z" fill="#9D9696"/>
<path fill-rule="evenodd" clip-rule="evenodd" d="M68.0938 43.1428C68.0938 44.5411 69.2247 45.6769 70.6269 45.6769C72.0247 45.6769 73.1602 44.5411 73.1602 43.1428C73.1602 41.74 72.0247 40.6087 70.6269 40.6087C69.2245 40.6086 68.0938 41.74 68.0938 43.1428Z" fill="#9D9696"/>
<path fill-rule="evenodd" clip-rule="evenodd" d="M40.0021 5C37.5232 5 35.5103 7.00922 35.5103 9.48891C35.5103 10.6881 35.9807 11.7741 36.7453 12.5795C37.564 13.4394 38.7176 13.9778 40.0023 13.9778C41.2824 13.9778 42.436 13.4394 43.2548 12.5795C44.0193 11.7741 44.4898 10.688 44.4898 9.48891C44.4896 7.00922 42.4812 5 40.0021 5Z" fill="#FECE85"/>
<path fill-rule="evenodd" clip-rule="evenodd" d="M70.7174 53.6231V55.7545V57.7275V59.6914V68.1444V70.8686C70.7174 73.1402 68.8582 75.0002 66.5874 75.0002H74.6982C75.6301 75.0002 76.4896 74.688 77.1862 74.163C78.1813 73.4072 78.8282 72.2081 78.8282 70.8686V38.8664C78.8282 37.5269 78.1813 36.3278 77.1862 35.572C76.4896 35.047 75.6301 34.7348 74.6982 34.7348H66.5874C68.7904 34.7348 70.5997 36.477 70.7129 38.6536C70.7174 38.7123 70.7174 38.7758 70.7174 38.8345V38.8662V40.6084C72.0744 40.6583 73.1602 41.7714 73.1602 43.1425C73.1602 44.5091 72.0746 45.6269 70.7174 45.672V50.1609V52.0931V53.6231Z" fill="#FDB440"/>
<path fill-rule="evenodd" clip-rule="evenodd" d="M38.5366 5.24437C39.4549 5.56109 40.2421 6.1675 40.7804 6.95484C41.2735 7.67438 41.563 8.54766 41.563 9.48891C41.563 9.94141 41.4952 10.3803 41.373 10.7922C41.1649 11.4664 40.803 12.0773 40.328 12.5797C39.8394 13.0956 39.2243 13.4983 38.5366 13.7336C38.9935 13.892 39.4866 13.978 40.0022 13.978C41.2824 13.978 42.436 13.4395 43.2547 12.5797C44.0193 11.7742 44.4897 10.6881 44.4897 9.48906C44.4897 8.54781 44.2002 7.67453 43.7072 6.955C42.8974 5.77375 41.5404 5 40.0022 5C39.4866 5 38.9935 5.08594 38.5366 5.24437Z" fill="#FDB440"/>
<path d="M74.6981 33.5631H67.055L44.822 12.4519C45.3539 11.5894 45.6616 10.5745 45.6616 9.48891C45.6616 6.3675 43.1228 3.82812 40.0023 3.82812C36.8794 3.82812 34.3384 6.36766 34.3384 9.48891C34.3384 10.5744 34.6462 11.5891 35.1784 12.4514L12.945 33.5631H5.30188C2.37844 33.5631 0 35.942 0 38.8664V70.8684C0 73.7928 2.37844 76.1719 5.30188 76.1719H37.84C38.4872 76.1719 39.0119 75.6473 39.0119 75C39.0119 74.3527 38.4872 73.8281 37.84 73.8281H5.30188C3.67078 73.8281 2.34375 72.5005 2.34375 70.8686V69.3162H7.11141C7.75859 69.3162 8.28328 68.7917 8.28328 68.1444C8.28328 67.497 7.75859 66.9725 7.11141 66.9725H2.34375V38.8664C2.34375 37.2345 3.67078 35.9069 5.30188 35.9069H37.4509C38.0981 35.9069 38.6228 35.3823 38.6228 34.735C38.6228 34.0877 38.0981 33.5631 37.4509 33.5631H16.3488L36.7933 14.1502C37.7061 14.78 38.8116 15.1498 40.0022 15.1498C41.1914 15.1498 42.2955 14.7802 43.2075 14.1509L63.6513 33.5631H42.8386C42.1914 33.5631 41.6667 34.0877 41.6667 34.735C41.6667 35.3823 42.1914 35.9069 42.8386 35.9069H74.6981C76.3292 35.9069 77.6562 37.2345 77.6562 38.8664V66.9725H72.8886C72.2414 66.9725 71.7167 67.497 71.7167 68.1444C71.7167 68.7917 72.2414 69.3162 72.8886 69.3162H77.6562V70.8686C77.6562 72.5005 76.3292 73.8281 74.6981 73.8281H42.9787C42.3316 73.8281 41.8069 74.3527 41.8069 75C41.8069 75.6473 42.3316 76.1719 42.9787 76.1719H74.6981C77.6216 76.1719 80 73.7928 80 70.8686V38.8664C80 35.942 77.6216 33.5631 74.6981 33.5631ZM36.6822 9.48891C36.6822 7.65984 38.1716 6.17188 40.0023 6.17188C41.8305 6.17188 43.3178 7.65984 43.3178 9.48891C43.3178 11.318 41.8305 12.8059 40.0023 12.8059C38.1716 12.8061 36.6822 11.3181 36.6822 9.48891Z" fill="black"/>
<path d="M12.9599 59.3589C13.1606 59.5597 13.4064 59.6605 13.6972 59.6605C13.9877 59.6605 14.2336 59.5556 14.4346 59.3461C14.6353 59.1366 14.736 58.895 14.736 58.6213V51.2445C14.736 50.9453 14.6333 50.693 14.4281 50.4877C14.223 50.2823 13.9792 50.1797 13.6972 50.1797C13.4235 50.1797 13.1821 50.2887 12.9727 50.5069C12.763 50.725 12.6585 50.9709 12.6585 51.2445V53.8617H8.73424V51.2445C8.73424 50.9539 8.63361 50.7037 8.43283 50.4941C8.23189 50.2845 7.99033 50.1797 7.7083 50.1797C7.42627 50.1797 7.18033 50.2887 6.97096 50.5069C6.76143 50.725 6.65674 50.9709 6.65674 51.2445V58.6213C6.65674 58.912 6.75924 59.1581 6.96455 59.3589C7.16971 59.5597 7.41752 59.6605 7.7083 59.6605C7.99893 59.6605 8.24252 59.5597 8.43924 59.3589C8.6358 59.1581 8.73424 58.9122 8.73424 58.6213V55.7475H12.6585V58.6213C12.6585 58.9122 12.7588 59.1581 12.9599 59.3589Z" fill="black"/>
<path d="M21.7046 50.1158C20.3793 50.1158 19.2937 50.5627 18.4473 51.4564C17.6009 52.3502 17.1777 53.4941 17.1777 54.8881C17.1777 56.2992 17.6029 57.4561 18.4538 58.3583C19.3045 59.2606 20.384 59.7117 21.692 59.7117C23.0085 59.7117 24.0901 59.2562 24.9365 58.3455C25.7829 57.4347 26.206 56.2909 26.206 54.9137C26.206 53.5198 25.7829 52.3716 24.9365 51.4692C24.0899 50.567 23.0126 50.1158 21.7046 50.1158ZM23.391 57.0497C22.9591 57.593 22.3927 57.8644 21.6918 57.8644C20.9821 57.8644 20.4135 57.595 19.9862 57.0561C19.5585 56.5173 19.3449 55.7989 19.3449 54.9009C19.3449 54.0286 19.5649 53.3252 20.0054 52.7905C20.4455 52.2561 21.0077 51.9887 21.6918 51.9887C22.4013 51.9887 22.9698 52.2581 23.3974 52.7969C23.8248 53.3358 24.0387 54.0458 24.0387 54.9266C24.0387 55.7989 23.8226 56.5069 23.391 57.0497Z" fill="black"/>
<path d="M30.2716 50.4878C30.0579 50.2827 29.8141 50.1798 29.5407 50.1798C29.2585 50.1798 29.0149 50.2825 28.8098 50.4878C28.6046 50.693 28.502 50.9369 28.502 51.2191V58.4419C28.502 58.7327 28.6065 58.987 28.8162 59.2052C29.0255 59.4233 29.2715 59.5323 29.5535 59.5323H32.9135C33.0502 59.5323 33.1741 59.5067 33.2854 59.4555C33.3963 59.4041 33.4948 59.3356 33.5804 59.2502C33.7684 59.0622 33.8626 58.8397 33.8626 58.583C33.8626 58.4462 33.837 58.3222 33.7855 58.2109C33.7343 58.0998 33.6657 58.0014 33.5804 57.9159C33.3837 57.7362 33.1573 57.6464 32.9007 57.6464H30.5924V51.2191C30.5924 50.9369 30.4852 50.6931 30.2716 50.4878Z" fill="black"/>
<path d="M36.0999 50.507C35.8903 50.7252 35.7856 50.9711 35.7856 51.2447V58.6086C35.7856 58.8994 35.8861 59.1455 36.0871 59.3462C36.2878 59.547 36.5336 59.6478 36.8244 59.6478C37.1149 59.6478 37.3608 59.547 37.5617 59.3462C37.7625 59.1455 37.8631 58.9036 37.8631 58.6214V51.2447C37.8631 50.9541 37.7625 50.7039 37.5617 50.4942C37.3608 50.2847 37.1192 50.1798 36.8372 50.1798C36.5552 50.1798 36.3092 50.2891 36.0999 50.507Z" fill="black"/>
<path d="M46.9207 58.5188C47.9211 57.6038 48.4212 56.3934 48.4212 54.8883C48.4212 54.1102 48.2693 53.3894 47.9659 52.7266C47.6623 52.0639 47.2368 51.5316 46.6898 51.1294C45.9287 50.5734 44.9456 50.2955 43.7403 50.2955H41.5986C41.2992 50.2955 41.0471 50.4025 40.842 50.6163C40.6368 50.83 40.5342 51.0739 40.5342 51.3475V58.4931C40.5342 58.8011 40.6323 59.0534 40.8292 59.25C41.0428 59.4383 41.3037 59.5323 41.6114 59.5323H43.9198C45.1681 59.5322 46.1684 59.1944 46.9207 58.5188ZM42.6118 57.6592V52.1813H43.7275C44.514 52.1813 45.1361 52.425 45.5934 52.9125C46.0506 53.4 46.2795 54.0588 46.2795 54.8883C46.2795 55.7266 46.057 56.3978 45.6126 56.9025C45.1679 57.407 44.5781 57.6594 43.8428 57.6594L42.6118 57.6592Z" fill="black"/>
<path d="M52.0015 58.955L52.3478 57.7875H55.9001L56.272 58.955C56.4343 59.4255 56.7506 59.6606 57.2209 59.6606C57.5031 59.6606 57.7423 59.575 57.9392 59.4039C58.1443 59.2074 58.247 58.9978 58.247 58.7755C58.247 58.5531 58.2128 58.3478 58.1443 58.1597L55.6307 51.3219C55.3485 50.552 54.8485 50.1672 54.1303 50.1672C53.4035 50.1672 52.8992 50.552 52.617 51.3219L50.0649 58.1469C50.0049 58.3008 49.9751 58.472 49.9751 58.66C49.9751 58.9424 50.0732 59.1817 50.2701 59.3784C50.4667 59.5752 50.7103 59.6736 51.001 59.6736C51.5226 59.6733 51.856 59.4339 52.0015 58.955ZM54.1303 52.3224L55.2717 55.9272L52.9376 55.9144L54.1303 52.3224Z" fill="black"/>
<path d="M61.4189 59.3397C61.6325 59.5448 61.8761 59.6476 62.1499 59.6476C62.4404 59.6476 62.6863 59.5405 62.8872 59.3269C63.088 59.1131 63.1886 58.865 63.1886 58.5826V55.1959L65.651 51.8475C65.7877 51.6595 65.8561 51.4498 65.8561 51.2189C65.8561 50.9367 65.7491 50.6951 65.5355 50.4941C65.3216 50.2933 65.078 50.1925 64.8046 50.1925C64.4455 50.1925 64.1633 50.3422 63.9582 50.6416L62.1499 53.2203L60.3544 50.6417C60.1577 50.3423 59.8755 50.1926 59.508 50.1926C59.2002 50.1926 58.9438 50.2953 58.7385 50.5006C58.5333 50.7058 58.4307 50.9455 58.4307 51.2191C58.4307 51.433 58.5077 51.6425 58.6616 51.8476L61.0982 55.1961V58.5828C61.0982 58.8823 61.205 59.1345 61.4189 59.3397Z" fill="black"/>
<path d="M71.5547 57.4411C71.3151 57.6206 71.0203 57.7105 70.6697 57.7105C70.319 57.7105 69.8701 57.6124 69.3231 57.4155C68.8698 57.253 68.5664 57.1716 68.4125 57.1716C68.1559 57.1716 67.9421 57.2659 67.7712 57.4539C67.6001 57.642 67.5146 57.8772 67.5146 58.1595V58.2236C67.5146 58.6428 67.8051 58.9891 68.3867 59.2627C68.9679 59.5364 69.6948 59.6733 70.5668 59.6733C71.6354 59.6733 72.4925 59.3891 73.1381 58.8202C73.7836 58.2514 74.1064 57.5139 74.1064 56.6072C74.1064 55.6408 73.7257 54.9266 72.965 54.4647C72.5629 54.2081 71.9561 53.9688 71.1439 53.7463C70.5197 53.5667 70.1436 53.43 70.0153 53.3358C69.8357 53.1903 69.7459 53.0324 69.7459 52.8611C69.7459 52.6388 69.8464 52.4528 70.0473 52.3031C70.2481 52.1536 70.4939 52.0784 70.7846 52.0784C70.9556 52.0784 71.1992 52.1213 71.5156 52.2067L71.8875 52.335C72.1953 52.4375 72.4217 52.4889 72.5671 52.4889C72.8237 52.4889 73.0393 52.3927 73.2148 52.2002C73.39 52.0078 73.4778 51.7791 73.4778 51.5138C73.4778 51.1203 73.2362 50.7934 72.7532 50.5324C72.2701 50.2716 71.6695 50.1411 70.9514 50.1411C69.9681 50.1411 69.1561 50.4149 68.5148 50.9622C67.8736 51.5095 67.5529 52.2066 67.5529 53.0533C67.5529 53.8916 67.8692 54.5158 68.502 54.9263C68.8268 55.1402 69.4254 55.3711 70.2975 55.6191C70.8617 55.7903 71.2379 55.9186 71.4261 56.0039C71.614 56.0895 71.7421 56.1922 71.8107 56.3119C71.8792 56.4319 71.9134 56.5728 71.9134 56.7353C71.9137 57.0264 71.7939 57.2616 71.5547 57.4411Z" fill="black"/>
<path d="M9.87541 47.1972C11.9184 47.1972 13.5804 45.5327 13.5804 43.4867C13.5804 41.4433 11.9184 39.7808 9.87541 39.7808C7.83244 39.7808 6.17041 41.4433 6.17041 43.4867C6.17025 45.5325 7.83228 47.1972 9.87541 47.1972ZM9.87541 42.1245C10.626 42.1245 11.2367 42.7356 11.2367 43.4867C11.2367 44.2403 10.626 44.8535 9.87541 44.8535C9.12478 44.8535 8.51416 44.2403 8.51416 43.4867C8.514 42.7356 9.12463 42.1245 9.87541 42.1245Z" fill="black"/>
<path d="M70.627 39.4369C68.5841 39.4369 66.9219 41.0994 66.9219 43.1428C66.9219 45.1863 68.5841 46.8489 70.627 46.8489C72.67 46.8489 74.332 45.1863 74.332 43.1428C74.332 41.0994 72.67 39.4369 70.627 39.4369ZM70.627 44.505C69.8764 44.505 69.2656 43.8939 69.2656 43.1427C69.2656 42.3916 69.8764 41.7805 70.627 41.7805C71.3777 41.7805 71.9883 42.3916 71.9883 43.1427C71.9884 43.8939 71.3777 44.505 70.627 44.505Z" fill="black"/>
</svg>
