<svg width="24" height="24" viewBox="0 0 24 24" fill="none" xmlns="http://www.w3.org/2000/svg">
<path d="M22.2672 15.9408C21.7666 15.6984 21.2239 15.555 20.6688 15.5184C20.9109 14.9198 21.0427 14.2823 21.0576 13.6368C21.1704 10.2408 18.48 7.776 17.3352 6.72L17.2152 6.612C17.0496 6.4584 16.8984 6.3072 16.7568 6.156C16.903 6.03294 17.0204 5.87935 17.1009 5.70603C17.1813 5.53271 17.2228 5.34387 17.2224 5.1528V5.1288C17.2215 4.86496 17.1414 4.60747 16.9925 4.38967C16.8436 4.17187 16.6328 4.00379 16.3872 3.9072C16.6622 3.14027 16.8545 2.34616 16.9608 1.5384C16.9775 1.40062 16.955 1.26094 16.896 1.13534C16.837 1.00974 16.7438 0.903285 16.6271 0.828164C16.5104 0.753043 16.3749 0.712288 16.2362 0.710561C16.0974 0.708834 15.961 0.746205 15.8424 0.818399C15.4747 1.02204 15.0817 1.17618 14.6736 1.2768C14.2802 1.37915 13.8671 1.37915 13.4736 1.2768C13.0629 1.17616 12.6674 1.02119 12.2976 0.815999C12.1784 0.743983 12.0412 0.707125 11.902 0.709673C11.7627 0.71222 11.627 0.75407 11.5104 0.830399C11.3946 0.904263 11.3023 1.00972 11.2445 1.13432C11.1867 1.25892 11.1657 1.39746 11.184 1.5336C11.292 2.34443 11.485 3.14163 11.76 3.912C11.5139 4.00794 11.3023 4.17579 11.1529 4.39368C11.0035 4.61157 10.9232 4.86941 10.9224 5.1336V5.1576C10.9224 5.37088 10.9744 5.58095 11.0739 5.76958C11.1735 5.95821 11.3175 6.11969 11.4936 6.24C11.3856 6.3552 11.2536 6.48 11.1144 6.612L10.9992 6.72C9.84004 7.776 7.16404 10.2384 7.27444 13.6344C7.27444 13.812 7.29604 13.9824 7.31524 14.1528H5.44564V13.3824C5.44564 13.2551 5.39507 13.133 5.30505 13.043C5.21503 12.953 5.09294 12.9024 4.96564 12.9024H1.55764C1.43033 12.9024 1.30824 12.953 1.21823 13.043C1.12821 13.133 1.07764 13.2551 1.07764 13.3824V21.5664C1.07764 21.6937 1.12821 21.8158 1.21823 21.9058C1.30824 21.9958 1.43033 22.0464 1.55764 22.0464H4.96564C5.09294 22.0464 5.21503 21.9958 5.30505 21.9058C5.39507 21.8158 5.44564 21.6937 5.44564 21.5664V20.9424L10.6728 23.052C11.0767 23.2039 11.5038 23.2851 11.9352 23.292C12.8952 23.292 13.7352 22.8768 14.7168 22.3872L14.8272 22.332H14.8512L22.2912 18.0576C22.485 17.9561 22.6466 17.8026 22.7581 17.6144C22.8696 17.4262 22.9265 17.2107 22.9224 16.992C22.9241 16.7727 22.8634 16.5574 22.7474 16.3713C22.6314 16.1852 22.4649 16.0359 22.2672 15.9408ZM12.3888 5.52H12.24C12.1462 5.52 12.0563 5.48291 11.9897 5.41681C11.9232 5.35072 11.8855 5.26099 11.8848 5.1672V5.1432C11.8839 5.09595 11.8924 5.04899 11.9098 5.00506C11.9272 4.96113 11.9532 4.92112 11.9863 4.88737C12.0194 4.85362 12.0589 4.82681 12.1024 4.80851C12.146 4.79021 12.1928 4.78079 12.24 4.7808H15.9096C16.0032 4.7808 16.0929 4.81797 16.1591 4.88413C16.2253 4.95029 16.2624 5.04003 16.2624 5.1336V5.1576C16.2637 5.20473 16.2555 5.25164 16.2384 5.29556C16.2212 5.33948 16.1954 5.37951 16.1626 5.4133C16.1297 5.44708 16.0903 5.47393 16.0469 5.49226C16.0035 5.51058 15.9568 5.52002 15.9096 5.52H12.3888ZM13.2192 2.2128C13.7775 2.36164 14.365 2.36164 14.9232 2.2128C15.273 2.12098 15.6149 2.0014 15.9456 1.8552C15.8192 2.52446 15.637 3.18196 15.4008 3.8208H12.7368C12.5024 3.18161 12.3209 2.52418 12.1944 1.8552C12.5262 2.001 12.8688 2.12057 13.2192 2.2128ZM11.6472 7.44L11.7648 7.332C12.0553 7.06776 12.3264 6.78303 12.576 6.48H15.756C16.0046 6.7787 16.2733 7.06015 16.56 7.3224L16.6824 7.4328C17.7312 8.3928 20.1912 10.6488 20.0928 13.6032C20.086 14.2982 19.9036 14.9801 19.5624 15.5856C19.1943 15.6629 18.8372 15.7854 18.4992 15.9504L15.912 17.196C15.8426 16.8187 15.6443 16.4772 15.351 16.2299C15.0577 15.9826 14.6876 15.8448 14.304 15.84H11.52C10.657 14.9513 9.52161 14.3769 8.29444 14.208C8.26186 14.0078 8.24182 13.8059 8.23444 13.6032C8.13844 10.6488 10.596 8.4 11.6472 7.44ZM2.04724 21.096V13.8624H4.49524V21.0864L2.04724 21.096ZM21.84 17.1912L14.4 21.468L14.304 21.516C12.9912 22.1712 12.1968 22.5672 11.028 22.1544L5.44564 19.92V15.12H7.51924C8.1654 15.1202 8.80419 15.2572 9.39363 15.522C9.98307 15.7867 10.5098 16.1732 10.9392 16.656C10.9842 16.7065 11.0392 16.7469 11.1009 16.7746C11.1625 16.8023 11.2293 16.8167 11.2968 16.8168H14.304C14.4639 16.8192 14.6179 16.8777 14.7389 16.9821C14.86 17.0866 14.9406 17.2302 14.9664 17.388C14.9708 17.5207 14.9321 17.6512 14.856 17.76C14.856 17.76 14.856 17.76 14.8416 17.7792C14.7841 17.8519 14.7112 17.9111 14.6283 17.9525C14.5454 17.994 14.4543 18.0168 14.3616 18.0192H8.99284C8.86553 18.0192 8.74344 18.0698 8.65342 18.1598C8.56341 18.2498 8.51284 18.3719 8.51284 18.4992C8.51284 18.6265 8.56341 18.7486 8.65342 18.8386C8.74344 18.9286 8.86553 18.9792 8.99284 18.9792H14.3568C14.5628 18.9799 14.7668 18.9397 14.9571 18.861C15.1475 18.7824 15.3203 18.6667 15.4656 18.5208C15.4968 18.4896 15.528 18.456 15.5568 18.4224L18.9168 16.8048C19.2188 16.6515 19.5426 16.5454 19.8768 16.4904C20.5475 16.3933 21.2318 16.5012 21.84 16.8C21.8741 16.8154 21.9029 16.8404 21.9229 16.872C21.943 16.9035 21.9534 16.9402 21.9528 16.9776C21.9562 17.0202 21.9474 17.063 21.9274 17.1008C21.9075 17.1386 21.8771 17.1699 21.84 17.1912Z" fill="black"/>
<path d="M14.8801 13.284H13.7761C13.7403 13.2843 13.7047 13.2775 13.6716 13.264C13.6384 13.2506 13.6082 13.2306 13.5828 13.2054C13.5573 13.1802 13.5371 13.1502 13.5234 13.1171C13.5096 13.0841 13.5025 13.0486 13.5025 13.0128C13.5025 12.8855 13.4519 12.7634 13.3619 12.6734C13.2719 12.5834 13.1498 12.5328 13.0225 12.5328C12.8952 12.5328 12.7731 12.5834 12.6831 12.6734C12.5931 12.7634 12.5425 12.8855 12.5425 13.0128C12.5431 13.3396 12.6734 13.6527 12.9046 13.8835C13.1359 14.1144 13.4493 14.244 13.7761 14.244H13.8481V14.604C13.8481 14.7313 13.8987 14.8534 13.9887 14.9434C14.0787 15.0334 14.2008 15.084 14.3281 15.084C14.4554 15.084 14.5775 15.0334 14.6675 14.9434C14.7575 14.8534 14.8081 14.7313 14.8081 14.604V14.244H14.8801C15.0418 14.244 15.2019 14.2122 15.3512 14.1503C15.5006 14.0884 15.6363 13.9977 15.7507 13.8834C15.865 13.7691 15.9557 13.6333 16.0176 13.484C16.0794 13.3346 16.1113 13.1745 16.1113 13.0128V12.216C16.1106 11.8897 15.9807 11.5769 15.75 11.3461C15.5192 11.1154 15.2064 10.9854 14.8801 10.9848H13.7761C13.7403 10.9851 13.7047 10.9783 13.6716 10.9648C13.6384 10.9514 13.6082 10.9314 13.5828 10.9062C13.5573 10.881 13.5371 10.851 13.5234 10.8179C13.5096 10.7849 13.5025 10.7494 13.5025 10.7136V9.9168C13.5031 9.84465 13.5322 9.77567 13.5835 9.72488C13.6347 9.67409 13.7039 9.64559 13.7761 9.6456H14.8801C14.9518 9.64622 15.0204 9.675 15.0712 9.72572C15.1219 9.77645 15.1507 9.84506 15.1513 9.9168C15.1513 10.0441 15.2019 10.1662 15.2919 10.2562C15.3819 10.3462 15.504 10.3968 15.6313 10.3968C15.7586 10.3968 15.8807 10.3462 15.9707 10.2562C16.0607 10.1662 16.1113 10.0441 16.1113 9.9168C16.1113 9.75511 16.0794 9.59501 16.0176 9.44564C15.9557 9.29626 15.865 9.16053 15.7507 9.04621C15.6363 8.93188 15.5006 8.84119 15.3512 8.77932C15.2019 8.71744 15.0418 8.6856 14.8801 8.6856H14.8081V8.3256C14.8081 8.19829 14.7575 8.0762 14.6675 7.98619C14.5775 7.89617 14.4554 7.8456 14.3281 7.8456C14.2008 7.8456 14.0787 7.89617 13.9887 7.98619C13.8987 8.0762 13.8481 8.19829 13.8481 8.3256V8.6856H13.7761C13.4493 8.6856 13.1359 8.81523 12.9046 9.04606C12.6734 9.27689 12.5431 9.59004 12.5425 9.9168V10.7136C12.5431 11.0404 12.6734 11.3535 12.9046 11.5843C13.1359 11.8152 13.4493 11.9448 13.7761 11.9448H14.8801C14.9518 11.9454 15.0204 11.9742 15.0712 12.0249C15.1219 12.0756 15.1507 12.1443 15.1513 12.216V13.0128C15.1513 13.0847 15.1227 13.1537 15.0718 13.2046C15.021 13.2554 14.952 13.284 14.8801 13.284Z" fill="black"/>
</svg>
