<svg width="80" height="80" viewBox="0 0 80 80" fill="none" xmlns="http://www.w3.org/2000/svg">
<g clip-path="url(#clip0_199_187)">
<path fill-rule="evenodd" clip-rule="evenodd" d="M60.125 19.1942L63.6439 26.1493L69.6999 28.1317V8.49431L66.4562 5.21291L60.125 8.49431V19.1942Z" fill="#DDDAEC"/>
<path fill-rule="evenodd" clip-rule="evenodd" d="M60.1249 8.49431H69.6997H71.2586C72.1 8.49431 72.7866 7.80777 72.7866 6.97073V3.06894C72.7866 2.23189 72.1002 1.54536 71.2586 1.54536H58.566C57.7246 1.54536 57.0381 2.23189 57.0381 3.06894V6.97073C57.0381 7.80777 57.7245 8.49431 58.566 8.49431H60.1249Z" fill="#375E7D"/>
<path fill-rule="evenodd" clip-rule="evenodd" d="M60.125 12.0019H65.1427C66.9097 12.0019 66.6618 13.4456 66.6618 15.1773V25.2971L69.6999 28.1315V8.49431H60.1252V12.0019H60.125Z" fill="#BEB9DD"/>
<path fill-rule="evenodd" clip-rule="evenodd" d="M69.5802 6.97073C69.5802 7.80777 68.8893 8.49431 68.0522 8.49431H69.6997H71.2586C72.1 8.49431 72.7866 7.80777 72.7866 6.97073V3.06894C72.7866 2.23189 72.1002 1.54536 71.2586 1.54536H68.0522C68.8893 1.54536 69.5802 2.23189 69.5802 3.06894V6.97073Z" fill="#2B4D66"/>
<path fill-rule="evenodd" clip-rule="evenodd" d="M68.4598 78.8282C69.7663 78.8282 70.838 77.7564 70.838 76.45V38.5527H76.8078C77.9859 38.5659 78.8052 38.1054 78.8229 37.3701V37.3214C78.814 36.905 78.5483 36.4001 77.9549 35.8465L69.6998 28.1315L42.2996 2.54193C41.3253 1.62956 40.661 1.17789 40.0011 1.17789C39.3368 1.17789 38.6769 1.62956 37.7026 2.54193L2.04282 35.8465C1.44936 36.4001 1.18368 36.905 1.1748 37.3214V37.3701C1.19255 38.1054 2.01185 38.5659 3.1899 38.5527H9.16407V76.45C9.16407 77.7564 10.2313 78.8282 11.5379 78.8282H68.4598Z" fill="#FFD772"/>
<path fill-rule="evenodd" clip-rule="evenodd" d="M25.4352 58.0261L23.4645 58.6328C19.0978 59.9791 17.5034 64.3061 17.5034 68.3762V78.8282H26.0153C36.302 70.9902 25.4352 58.0261 25.4352 58.0261Z" fill="#3BC3A4"/>
<path fill-rule="evenodd" clip-rule="evenodd" d="M54.5627 58.0261C54.5627 58.0261 44.0099 67.4487 53.9825 78.8283H62.4944V68.3763C62.4944 64.3018 60.9045 59.9793 56.5333 58.633L54.5627 58.0261Z" fill="#3BC3A4"/>
<path fill-rule="evenodd" clip-rule="evenodd" d="M26.9809 39.27H24.5407C23.4114 39.27 22.4814 40.1867 22.4814 41.3206V42.4632C22.4814 44.6643 24.6737 45.8557 26.9278 45.8778H27.4018C28.8011 43.7874 28.4955 41.4313 26.9809 39.27Z" fill="#FFBC85"/>
<path fill-rule="evenodd" clip-rule="evenodd" d="M33.7302 31.0767C33.1987 35.1247 28.4379 35.3594 26.981 36.4798V43.216C26.981 44.0752 27.1271 44.9743 27.4017 45.8778C28.2918 48.8142 30.515 51.8434 33.3494 53.9029C34.4079 54.6691 35.5505 55.3024 36.7374 55.7408C37.9198 56.1793 38.9606 56.3963 40.0013 56.3963C41.0421 56.3963 42.0829 56.1793 43.2608 55.7408C44.4521 55.3024 45.5947 54.6691 46.6488 53.9029C49.4832 51.8434 51.7064 48.8142 52.5965 45.8778C52.8711 44.9743 53.0217 44.0753 53.0217 43.216V36.4798C49.3724 28.8092 39.2085 35.2043 33.7302 31.0767Z" fill="#FFE5C1"/>
<path fill-rule="evenodd" clip-rule="evenodd" d="M52.5963 45.8778H53.0702C55.3244 45.8557 57.5166 44.6643 57.5166 42.4632V41.3206C57.5166 40.1867 56.591 39.27 55.4573 39.27H53.0215C50.7007 40.9796 49.886 43.1541 52.5963 45.8778Z" fill="#FFBC85"/>
<path fill-rule="evenodd" clip-rule="evenodd" d="M53.0217 39.27C51.9721 37.0644 50.3867 36.0236 48.5266 35.5587V41.3605C48.5266 42.2196 48.1635 43.1187 47.8889 44.0266C46.9988 46.9629 44.78 49.9879 41.9456 52.0472C40.8871 52.8134 39.7445 53.4467 38.5532 53.8851C37.3752 54.3236 36.3344 54.5405 35.2938 54.5405C34.9218 54.5405 34.5498 54.5139 34.1689 54.4563C34.9882 54.9745 35.8519 55.4129 36.7377 55.7407C37.9201 56.1791 38.9609 56.3961 40.0016 56.3961C41.0424 56.3961 42.0832 56.1791 43.2611 55.7407C44.4524 55.3022 45.5949 54.6689 46.6491 53.9027C49.4835 51.8433 51.7067 48.814 52.5968 45.8777C52.8714 44.9742 53.022 44.0752 53.022 43.2159V39.27H53.0217Z" fill="#FED1A3"/>
<path fill-rule="evenodd" clip-rule="evenodd" d="M26.9809 39.27C28.4378 38.1496 33.1988 37.9148 33.7301 33.8669C34.5451 31.8873 34.4786 26.6213 32.5033 24.4247C27.6982 25.2661 25.6389 28.9776 26.2766 33.8758L26.9809 39.27Z" fill="#2B4D66"/>
<path fill-rule="evenodd" clip-rule="evenodd" d="M33.7299 33.8669C39.2082 37.9945 49.3721 31.5994 53.0212 39.27C53.7387 33.7695 53.8981 28.4283 48.9956 24.2608C44.465 20.4121 34.6687 20.2705 32.5031 24.4247C31.5333 26.6966 31.5777 31.967 33.7299 33.8669Z" fill="#375E7D"/>
<path fill-rule="evenodd" clip-rule="evenodd" d="M44.2882 22.4051C48.6371 26.1032 49.0002 30.7225 48.5264 35.5587C50.3865 36.0238 51.9719 37.0646 53.0215 39.27C53.7391 33.7695 53.8984 28.4283 48.9959 24.2608C47.5166 23.0075 45.484 22.1483 43.3359 21.701C43.6724 21.918 43.9913 22.1572 44.2882 22.4051Z" fill="#2B4D66"/>
<path fill-rule="evenodd" clip-rule="evenodd" d="M54.5625 73.1769H25.4351V54.9967C25.4351 54.049 26.2145 53.2739 27.1622 53.2739H52.8397C53.7874 53.2739 54.5625 54.049 54.5625 54.9967V73.1769Z" fill="#DDDAEC"/>
<path fill-rule="evenodd" clip-rule="evenodd" d="M46.157 54.2439C47.5609 57.0296 48.3625 60.2493 48.3625 63.6772C48.3625 67.136 47.5475 70.378 46.1216 73.1769H54.5626V58.026V54.9967C54.5626 54.049 53.7877 53.2739 52.8398 53.2739H47.4633H45.6299C45.816 53.5928 45.9888 53.9161 46.157 54.2439Z" fill="#BEB9DD"/>
<path fill-rule="evenodd" clip-rule="evenodd" d="M46.1217 73.1769H25.4354H24.3814C23.9252 73.1769 23.5488 73.5534 23.5488 74.0096V76.2683C23.5488 77.6457 24.6516 78.7751 26.0156 78.8282H53.9828C55.3468 78.7751 56.4495 77.6456 56.4495 76.2683V74.0096C56.4495 73.5534 56.0775 73.1769 55.617 73.1769H54.563H46.1217Z" fill="#BEB9DD"/>
<path fill-rule="evenodd" clip-rule="evenodd" d="M48.0083 74.0096V76.2683C48.0083 77.6457 46.9099 78.7751 45.5415 78.8282H53.9826C55.3466 78.7751 56.4494 77.6456 56.4494 76.2683V74.0096C56.4494 73.5534 56.0774 73.1769 55.6168 73.1769H54.5628H47.1757C47.6363 73.1769 48.0083 73.5534 48.0083 74.0096Z" fill="#A7A2D3"/>
<path fill-rule="evenodd" clip-rule="evenodd" d="M34.2485 5.76606C37.8888 9.35345 41.0112 14.8761 43.3273 21.6965C43.3316 21.6965 43.3316 21.7008 43.3362 21.7008C45.484 22.1482 47.5169 23.0073 48.9961 24.2607C53.8987 28.4282 53.7393 33.7693 53.0218 39.2699H55.4576C56.5913 39.2699 57.5169 40.1866 57.5169 41.3205V42.463C57.5169 44.6641 55.3246 45.8556 53.0705 45.8777H52.5965C51.8082 48.4773 49.9793 51.148 47.6054 53.1542C47.6011 53.1941 47.6011 53.2339 47.6011 53.2738H52.8401C53.7878 53.2738 54.5629 54.0489 54.5629 54.9966V58.0258L56.5337 58.6325C60.9047 59.9788 62.4948 64.3015 62.4948 68.3759V78.8279H68.4602C69.7667 78.8279 70.8384 77.7561 70.8384 76.4496V38.5524H76.8082C77.9863 38.5656 78.8056 38.105 78.8233 37.3698V37.3211C78.8144 36.9047 78.5488 36.3998 77.9553 35.8462L69.7002 28.1312L60.1254 19.1939L42.2999 2.54193C41.3256 1.62956 40.6613 1.17789 40.0014 1.17789C39.3371 1.17789 38.6772 1.62956 37.7029 2.54193L34.2485 5.76606Z" fill="#FBBA58"/>
<path d="M45.6962 43.6571C46.3436 43.6571 46.8681 43.1326 46.8681 42.4853V41.4666C46.8681 40.8195 46.3436 40.2948 45.6962 40.2948C45.0489 40.2948 44.5244 40.8193 44.5244 41.4666V42.4853C44.5246 43.1326 45.0491 43.6571 45.6962 43.6571Z" fill="black"/>
<path d="M34.6601 43.6571C35.3073 43.6571 35.8319 43.1326 35.8319 42.4853V41.4666C35.8319 40.8195 35.3073 40.2948 34.6601 40.2948C34.013 40.2948 33.4883 40.8193 33.4883 41.4666V42.4853C33.4883 43.1326 34.013 43.6571 34.6601 43.6571Z" fill="black"/>
<path d="M40.1774 49.8864H40.1816C41.1777 49.8853 42.113 49.496 42.8154 48.7906C43.2719 48.332 43.2702 47.59 42.8116 47.1334C42.3528 46.6767 41.611 46.6784 41.1544 47.1371C40.8944 47.3983 40.548 47.5424 40.1789 47.5429C40.1785 47.5429 40.1779 47.5429 40.1774 47.5429C39.8068 47.5429 39.458 47.3983 39.1953 47.1355C38.7375 46.6778 37.9956 46.678 37.538 47.1354C37.0804 47.593 37.0804 48.3349 37.538 48.7925C38.2437 49.498 39.1808 49.8864 40.1774 49.8864Z" fill="black"/>
<path d="M78.7549 34.9904L70.8718 27.6269V9.66615H71.2589C72.7475 9.66615 73.9587 8.45712 73.9587 6.9709V3.06911C73.9587 1.58288 72.7475 0.373701 71.2589 0.373701H58.5662C57.0776 0.373701 55.8664 1.58288 55.8664 3.06911V6.9709C55.8664 8.45712 57.0776 9.66615 58.5662 9.66615H58.9532V16.4943L43.0994 1.68561C40.6935 -0.562175 39.3031 -0.561552 36.9028 1.68545L17.7355 19.5823C17.2625 20.0238 17.2371 20.7653 17.6787 21.2383C18.1206 21.7116 18.8619 21.737 19.3349 21.2951L38.5036 3.3972C38.7806 3.1379 39.6237 2.34849 39.9996 2.34849C40.3761 2.34849 41.2219 3.13853 41.4998 3.39814L77.1563 36.704C77.4334 36.9622 77.2242 37.3848 76.808 37.3809H70.8381C70.1907 37.3809 69.6662 37.9054 69.6662 38.5527V76.4501C69.6662 77.1041 69.1137 77.6565 68.46 77.6565H63.6662V68.3763C63.6662 62.8833 61.1286 58.8221 56.8782 57.5128L55.7346 57.1608V54.9969C55.7346 53.4008 54.4362 52.1021 52.8399 52.1021H50.3411C51.716 50.5343 52.7799 48.7858 53.4384 47.0366C56.1034 46.8834 58.6883 45.3111 58.6883 42.4633V41.3206C58.6883 39.5438 57.2388 38.0984 55.4572 38.0984H54.3436C54.9185 32.9125 54.7472 27.612 49.7545 23.3678C46.7417 20.8083 41.3436 19.5784 36.9193 20.443C34.5582 20.9044 32.7553 21.9367 31.7685 23.3768C29.3823 23.9127 27.5187 25.1595 26.3571 27.0047C25.1879 28.8619 24.7582 31.2903 25.1145 34.0275L25.646 38.0984H24.5405C22.7588 38.0984 21.3093 39.544 21.3093 41.3206V42.4633C21.3093 45.3088 23.8899 46.8808 26.5626 47.0363C27.2205 48.7862 28.2834 50.5346 29.6574 52.1023H27.1623C25.5638 52.1023 24.2633 53.4008 24.2633 54.997V57.1609L23.119 57.5132C18.8689 58.8235 16.3314 62.8845 16.3314 68.3765V77.6567H11.538C10.8753 77.6567 10.336 77.1155 10.336 76.4503V38.5525C10.336 37.9054 9.81129 37.3807 9.16413 37.3807L3.17581 37.3809C2.77005 37.3862 2.56429 36.963 2.84258 36.7029L15.1543 25.2058C15.6273 24.7641 15.6527 24.0226 15.211 23.5496C14.7693 23.0769 14.0276 23.0512 13.5548 23.4929L1.24289 34.9902C-0.244738 36.3798 -0.07789 37.5564 0.153861 38.1342C0.560554 39.1477 1.69643 39.7407 3.18966 39.7242H7.99215V76.4498C7.99215 78.4072 9.58265 79.9998 11.5378 79.9998H68.4598C70.4172 79.9998 72.0097 78.4072 72.0097 76.4498V39.7244L76.7939 39.7242C78.2967 39.7471 79.4398 39.1471 79.8462 38.1325C80.0779 37.5544 80.2438 36.3776 78.7549 34.9904ZM58.5662 7.32249C58.3732 7.32249 58.21 7.1614 58.21 6.97074V3.06911C58.21 2.87845 58.3732 2.7172 58.5662 2.7172H71.2589C71.4519 2.7172 71.615 2.87829 71.615 3.06911V6.9709C71.615 7.1614 71.4519 7.32265 71.2589 7.32265L58.5662 7.32249ZM68.5282 25.4378L61.2969 18.6833V9.66615H68.5282V25.4378ZM54.1932 43.216V40.4419H55.4572C55.9467 40.4419 56.3447 40.836 56.3447 41.3206V42.4633C56.3447 43.6979 55.2062 44.3444 54.0848 44.5888C54.1539 44.1241 54.1932 43.6649 54.1932 43.216ZM23.653 42.4633V41.3206C23.653 40.8361 24.0511 40.4419 24.5405 40.4419H25.809V43.216C25.809 43.6647 25.8483 44.1239 25.9171 44.5885C24.7911 44.3441 23.653 43.6976 23.653 42.4633ZM24.2634 72.0112C23.2132 72.0727 22.3767 72.9441 22.3767 74.0097V76.2685C22.3767 76.7589 22.4729 77.2271 22.6458 77.6565H18.6753V68.3763C18.6753 66.2595 19.1755 61.1815 23.8093 59.7528L24.2634 59.6131V72.0112ZM33.5627 24.9312C34.1266 23.8898 35.4751 23.1133 37.3688 22.7432C38.1707 22.5865 39.016 22.5116 39.8746 22.5116C43.0013 22.5116 46.296 23.5049 48.2368 25.1536C51.8837 28.2539 52.4427 32.0725 52.17 36.1405C49.5402 33.7815 45.796 33.9703 42.406 34.1415C39.3602 34.2949 36.4829 34.4398 34.4785 32.962C32.8751 31.496 32.7385 26.9351 33.5627 24.9312ZM27.4385 33.7247C27.1395 31.4272 27.2751 27.6683 30.8714 26.1136C30.4944 28.6963 30.7739 32.2199 32.4594 34.2342C31.9984 35.894 30.4762 36.5798 28.4214 37.3307C28.2539 37.3919 28.0908 37.4514 27.9328 37.511L27.4385 33.7247ZM28.1526 43.216V39.9491C28.4578 39.8129 28.8454 39.671 29.2259 39.5318C30.9444 38.9038 33.3931 38.0087 34.4432 35.6481C36.8734 36.7673 39.7384 36.6223 42.5241 36.4817C46.5621 36.2772 50.0617 36.1032 51.8496 39.5493V43.2159C51.8496 43.9465 51.721 44.7231 51.4818 45.5163C51.479 45.525 51.4762 45.5339 51.4735 45.5427C50.78 47.821 49.1708 50.2353 47.0283 52.1018H32.9691C30.0748 49.5801 28.1526 46.0542 28.1526 43.216ZM55.2774 76.2683C55.2774 77.0336 54.6547 77.6563 53.8894 77.6563H26.1128C25.345 77.6563 24.7204 77.0336 24.7204 76.2683V74.3488H37.8178C38.465 74.3488 38.9897 73.8243 38.9897 73.177C38.9897 72.5296 38.465 72.0051 37.8178 72.0051H26.6071V54.9969C26.6071 54.6982 26.8614 54.4458 27.1624 54.4458H52.8399C53.1385 54.4458 53.3909 54.6981 53.3909 54.9969V72.0053H42.707C42.0597 72.0053 41.5352 72.5298 41.5352 73.1771C41.5352 73.8243 42.0597 74.3489 42.707 74.3489H55.2774V76.2683ZM61.3226 77.6563H57.3523C57.5251 77.2269 57.6211 76.7588 57.6211 76.2683V74.0095C57.6211 72.944 56.7848 72.0725 55.7344 72.011V59.6128L56.1884 59.7525C60.8222 61.1798 61.3226 66.2588 61.3226 68.376V77.6563Z" fill="black"/>
<path d="M43.5646 63.4867C43.5646 62.8394 43.0401 62.3148 42.3928 62.3148H37.6054C36.9583 62.3148 36.4336 62.8394 36.4336 63.4867C36.4336 64.134 36.9583 64.6585 37.6054 64.6585H42.3928C43.0401 64.6585 43.5646 64.134 43.5646 63.4867Z" fill="black"/>
</g>
<defs>
<clipPath id="clip0_199_187">
<rect width="80" height="80" fill="white"/>
</clipPath>
</defs>
</svg>
